<svg xmlns="http://www.w3.org/2000/svg" viewBox="0 0 153.93 158.65"><defs><style>.cls-1,.cls-3{fill:#362c2b;}.cls-2{fill:#fff;}.cls-3,.cls-4{stroke:#fff;stroke-linecap:round;stroke-linejoin:round;stroke-width:3px;}.cls-4{fill:none;}</style></defs><title>chat-icon-white</title><g id="Camada_2" data-name="Camada 2"><g id="Camada_1-2" data-name="Camada 1"><g id="Camada_2-2" data-name="Camada 2"><g id="ícones"><rect class="cls-1" x="23.13" y="62.33" width="112" height="0.01"/><path class="cls-2" d="M135.31,62.15h-.21l-55.49-1c-18.67-.3-37.44-.67-56.29-.85h-.19a2,2,0,0,0-2,2,2,2,0,0,0,1.88,2h.31c9.27.41,18.55.56,27.82.62h14l14-.14,14-.29c4.67-.15,9.33-.25,14-.45q4.48-.16,9-.37h.22c6.27-.29,12.54-.65,18.81-1.13a.26.26,0,0,0,.24-.25A.29.29,0,0,0,135.31,62.15Zm-.39.18.18-.18,0,0c-9.33-.72-18.67-1.16-28-1.51-4.67-.2-9.33-.3-14-.45l-14-.29-14-.14c-4.67,0-9.33,0-14,0-9.27,0-18.55.21-27.82.62h-.18l2,2-2,2h.18c14-.15,28-.39,42-.63h.6l12.73-.21,56.3-1a.27.27,0,0,1-.07-.14l0,0Z"/><rect class="cls-1" x="23.13" y="88.08" width="112" height="0.01"/><path class="cls-2" d="M135.31,87.91h-.21L79.61,87c-18.67-.3-37.44-.67-56.29-.85h-.19a2,2,0,0,0-2,2,2,2,0,0,0,1.88,2h.31c9.27.41,18.55.56,27.82.62h14l14-.14,14-.29c4.67-.15,9.33-.25,14-.45,9.33-.35,18.67-.79,28-1.51a.26.26,0,0,0,.24-.25A.29.29,0,0,0,135.31,87.91Zm-.38.17.17-.17,0,0c-9.33-.72-18.67-1.16-28-1.51-4.67-.2-9.33-.3-14-.45l-14-.29-14-.14c-4.67,0-9.33-.05-14,0-9.27,0-18.55.21-27.82.62h-.18l2,2h0l0,0-2,2h.17c18.36-.19,36.79-.56,55.34-.85l56.3-1a.27.27,0,0,1-.07-.14Z"/><rect class="cls-3" x="23.13" y="88.08" width="112" height="0.01"/><rect class="cls-3" x="23.13" y="63.71" width="112" height="0.01"/><path class="cls-2" d="M129.14,21.37A76.58,76.58,0,0,0,102.27,4.49,75.6,75.6,0,0,0,86.66.66,78.88,78.88,0,0,0,70.55.22,76,76,0,0,0,39.77,9.48a78.41,78.41,0,0,0-24.24,21.1q-2,2.59-3.68,5.36a77.61,77.61,0,0,0,24.56,107,76.5,76.5,0,0,0,68.7,6.18l.46-.18.27-.08a3,3,0,0,1,.67-.08,7.46,7.46,0,0,1,1.63.17,22.78,22.78,0,0,1,3.5,1.07c4.71,1.82,9.28,4.34,14.16,6.34a32.07,32.07,0,0,0,3.79,1.32,10.47,10.47,0,0,0,4.27.44,3.79,3.79,0,0,0,2.29-1.13,4.68,4.68,0,0,0,1-2.22,15.11,15.11,0,0,0,0-4.14c-.6-5.32-2.1-10.25-3-15.32a34.43,34.43,0,0,1-.48-3.79,7.74,7.74,0,0,1,.41-3.54,12,12,0,0,1,1.1-1.45l1.24-1.52c.77-1.05,1.58-2.08,2.32-3.15a79,79,0,0,0,7.61-13.62,78.08,78.08,0,0,0-17.21-86.84ZM145.81,108A74.35,74.35,0,0,1,138,121.29c-.75,1.06-1.57,2.06-2.36,3.06l-1.26,1.47a11.77,11.77,0,0,0-1.27,1.62,8.66,8.66,0,0,0-.61,4.09,34.6,34.6,0,0,0,.4,3.94c.75,5.16,2.09,10.27,2.52,15.27a13.64,13.64,0,0,1-.12,3.61,2.85,2.85,0,0,1-.59,1.27,1.79,1.79,0,0,1-1.16.47,8.69,8.69,0,0,1-3.39-.51,33.81,33.81,0,0,1-3.51-1.34c-4.67-2-9.15-4.71-14.07-6.71a24.41,24.41,0,0,0-3.9-1.29,9.87,9.87,0,0,0-2.23-.28,5.92,5.92,0,0,0-1.26.13l-.67.19-.45.17a74.75,74.75,0,0,1-37.45,3.85,72.34,72.34,0,0,1-28.15-10.7,73.7,73.7,0,0,1-21.4-21.07,72.51,72.51,0,0,1-9.9-57.65A71.24,71.24,0,0,1,20.25,34.19,74.08,74.08,0,0,1,145.38,48a72.08,72.08,0,0,1,5,14.57,74.78,74.78,0,0,1,1.75,15.35A73.37,73.37,0,0,1,145.81,108Z"/><path class="cls-4" d="M135.38,62.33a.26.26,0,0,1-.24.25c-6.27.48-12.54.84-18.81,1.13h-.22q-4.48.21-9,.37c-4.67.2-9.33.3-14,.45l-14,.29-14,.14h-14c-9.27-.06-18.55-.21-27.82-.62H23a2,2,0,0,1-1.88-2,2,2,0,0,1,2-2h.19c9.27-.41,18.55-.57,27.82-.62,4.67,0,9.33,0,14,0l14,.14,14,.29c4.67.15,9.33.25,14,.45,9.33.35,18.67.79,28,1.51l0,0h.21A.29.29,0,0,1,135.38,62.33Z"/><path class="cls-4" d="M135.38,88.09a.26.26,0,0,1-.24.25c-9.33.72-18.67,1.16-28,1.51-4.67.2-9.33.3-14,.45l-14,.29-14,.14h-14c-9.27-.06-18.55-.21-27.82-.62H23a2,2,0,0,1-1.88-2,2,2,0,0,1,2-2h.19c9.27-.41,18.55-.57,27.82-.62,4.67-.05,9.33,0,14,0l14,.14,14,.29c4.67.15,9.33.25,14,.45,9.33.35,18.67.79,28,1.51l0,0h.21A.29.29,0,0,1,135.38,88.09Z"/><path class="cls-4" d="M152.43,77.87v0a75,75,0,1,0-47.38,69.73c5.89-2.3,25.08,12.67,30.08,9,4.56-3.32-4.89-25.17-1.19-29.4A74.68,74.68,0,0,0,152.43,77.87Zm-19.91,53.66a34.6,34.6,0,0,0,.4,3.94c.75,5.16,2.09,10.27,2.52,15.27a13.64,13.64,0,0,1-.12,3.61,2.85,2.85,0,0,1-.59,1.27,1.79,1.79,0,0,1-1.16.47,8.69,8.69,0,0,1-3.39-.51,33.81,33.81,0,0,1-3.51-1.34c-4.67-2-9.15-4.71-14.07-6.71a24.41,24.41,0,0,0-3.9-1.29,9.87,9.87,0,0,0-2.23-.28,5.92,5.92,0,0,0-1.26.13l-.67.19-.45.17a74.75,74.75,0,0,1-37.45,3.85,72.34,72.34,0,0,1-28.15-10.7,73.7,73.7,0,0,1-21.4-21.07,72.51,72.51,0,0,1-9.9-57.65A71.24,71.24,0,0,1,20.25,34.19,74.08,74.08,0,0,1,145.38,48a72.08,72.08,0,0,1,5,14.57,74.78,74.78,0,0,1,1.75,15.35A73.37,73.37,0,0,1,145.81,108,74.35,74.35,0,0,1,138,121.29c-.75,1.06-1.57,2.06-2.36,3.06l-1.26,1.47a11.77,11.77,0,0,0-1.27,1.62A8.66,8.66,0,0,0,132.52,131.53Z"/></g></g></g></g></svg>