<svg xmlns="http://www.w3.org/2000/svg" viewBox="0 0 153.92 158.64"><defs><style>.cls-1,.cls-3{fill:#fdfeff;}.cls-2{fill:#211915;}.cls-3,.cls-4{stroke:#211915;stroke-linecap:round;stroke-linejoin:round;stroke-width:3px;}.cls-4{fill:none;}</style></defs><title>chat-icon</title><g id="Camada_2" data-name="Camada 2"><g id="ícones"><rect class="cls-1" x="23.12" y="62.33" width="112" height="0.01"/><path class="cls-2" d="M134.95,62.5l-56.3,1c-18.61.29-37.1.66-55.52.85l2-2h0l-2-2c9.33-.42,18.67-.58,28-.63,4.67-.05,9.33,0,14,0l14,.14,14,.29c4.67.15,9.33.25,14,.45,9.33.35,18.67.79,28,1.51l-.25.25A.23.23,0,0,0,134.95,62.5Zm.35-.35a.28.28,0,0,1,.07.18.26.26,0,0,1-.24.25h0c-9.33.72-18.67,1.16-28,1.51-4.67.2-9.33.3-14,.45l-14,.29-14,.14c-4.67,0-9.33,0-14,0-9.33-.06-18.67-.21-28-.63H23a2,2,0,0,1-1.88-2h0v0a2,2,0,0,1,2-2c18.91.18,37.75.55,56.48.85Z"/><rect class="cls-1" x="23.12" y="88.08" width="112" height="0.01"/><path class="cls-2" d="M134.95,88.26l-56.3,1c-18.61.29-37.1.66-55.52.85l2-2h0l-2-2c9.33-.42,18.67-.58,28-.63,4.67-.05,9.33,0,14,0l14,.14,14,.29c4.67.15,9.33.25,14,.45,9.33.35,18.67.79,28,1.51l-.25.25A.23.23,0,0,0,134.95,88.26Zm.35-.35a.28.28,0,0,1,.07.18.26.26,0,0,1-.24.25h0c-9.33.72-18.67,1.16-28,1.51-4.67.2-9.33.3-14,.45l-14,.29-14,.14c-4.67,0-9.33,0-14,0-9.33-.06-18.67-.21-28-.63H23a2,2,0,0,1-1.88-2h0v0a2,2,0,0,1,2-2c18.91.18,37.75.55,56.48.85Z"/><rect class="cls-3" x="23.12" y="88.08" width="112" height="0.01"/><rect class="cls-3" x="23.12" y="63.71" width="112" height="0.01"/><path class="cls-2" d="M152.72,77.87a77.74,77.74,0,0,1-6.38,30.34,79.1,79.1,0,0,1-7.61,13.62c-.74,1.07-1.55,2.1-2.32,3.15l-1.24,1.52a11.82,11.82,0,0,0-1.1,1.45,7.71,7.71,0,0,0-.41,3.54,34.79,34.79,0,0,0,.48,3.79c.9,5.07,2.4,10,3,15.32a15.23,15.23,0,0,1,0,4.14,4.68,4.68,0,0,1-1,2.22,3.74,3.74,0,0,1-2.29,1.13,10.51,10.51,0,0,1-4.27-.44,32.94,32.94,0,0,1-3.79-1.32c-4.88-2-9.45-4.52-14.16-6.34a22.65,22.65,0,0,0-3.5-1.07,7.29,7.29,0,0,0-1.63-.17,3.16,3.16,0,0,0-.67.08l-.27.08-.46.18a76.5,76.5,0,0,1-68.7-6.18A77.61,77.61,0,0,1,15.52,30.58,78.36,78.36,0,0,1,39.76,9.48,76,76,0,0,1,70.54.22,79,79,0,0,1,86.65.66a75.48,75.48,0,0,1,15.61,3.83,76.47,76.47,0,0,1,26.87,16.88A78.19,78.19,0,0,1,152.72,77.87Zm-.6,0a74.64,74.64,0,0,0-1.75-15.35,72,72,0,0,0-5-14.57A74.09,74.09,0,0,0,20.24,34.19,71.29,71.29,0,0,0,7.18,60.88a72.5,72.5,0,0,0,9.9,57.65A73.66,73.66,0,0,0,38.48,139.6,72.38,72.38,0,0,0,66.63,150.3a74.77,74.77,0,0,0,37.45-3.85l.45-.17.67-.19a5.92,5.92,0,0,1,1.26-.13,10,10,0,0,1,2.23.28,25.16,25.16,0,0,1,3.9,1.29c4.92,2,9.4,4.66,14.07,6.71a34.17,34.17,0,0,0,3.51,1.34,8.69,8.69,0,0,0,3.39.51,1.81,1.81,0,0,0,1.16-.47,2.83,2.83,0,0,0,.59-1.27,13.63,13.63,0,0,0,.12-3.61c-.43-5-1.77-10.11-2.52-15.27a35.84,35.84,0,0,1-.4-3.94,8.63,8.63,0,0,1,.61-4.09,11.89,11.89,0,0,1,1.27-1.62l1.26-1.47c.79-1,1.61-2,2.36-3.06A74.16,74.16,0,0,0,145.8,108,73.4,73.4,0,0,0,152.12,77.87Z"/><path class="cls-4" d="M152.42,77.87a74.68,74.68,0,0,1-18.49,49.3c-3.7,4.23,5.75,26.08,1.19,29.4-5,3.67-24.19-11.3-30.08-9a75,75,0,1,1,47.38-69.73Z"/></g></g></svg>