<svg xmlns="http://www.w3.org/2000/svg" viewBox="0 0 109.41 110.43"><defs><style>.cls-1{fill:#ff276c;}</style></defs><title>email-usuario</title><g id="Camada_2" data-name="Camada 2"><g id="icones2"><path class="cls-1" d="M54.94.25A54,54,0,0,1,109,54.31a53.45,53.45,0,0,1-6,24.64c-.15.31-4.62,8.78-13.09,11.09-1.08,0-2,.15-2.93.15a8.47,8.47,0,0,1-7.24-3.7,9.42,9.42,0,0,1-2.16-6.16V68.63C73,76.79,64.65,82.34,54.94,82.34c-14.48,0-26.49-12.78-26.49-28,0-15.4,12-27.87,26.49-27.87,14.63,0,26.34,12.47,26.34,27.87V79.87a8.17,8.17,0,0,0,1.54,4.31,5,5,0,0,0,4.16,2,3,3,0,0,0,2-.46c4.62-.77,8.32-5.24,9.86-7.39a7,7,0,0,0,.77-1.39,50,50,0,1,0-44.66,27.26,45.79,45.79,0,0,0,12.32-1.54,2.59,2.59,0,0,1,2.62,1.39,2.39,2.39,0,0,1-1.54,2.62,62.64,62.64,0,0,1-13.4,1.54,54,54,0,0,1,0-108Zm0,78.08c12.32,0,22.64-10.78,22.64-24,0-13.4-10.32-24.18-22.64-24.18S32.46,40.91,32.46,54.31C32.46,67.55,42.62,78.33,54.94,78.33Z"/><path class="cls-1" d="M54.94,0A60.22,60.22,0,0,1,70.8,2.36,59.47,59.47,0,0,1,85.28,9.25,59.7,59.7,0,0,1,97.1,20.08l2.41,3.22A14.36,14.36,0,0,1,100.61,25l1,1.72,1.05,1.71.88,1.81.88,1.81a14.44,14.44,0,0,1,.81,1.84,54.84,54.84,0,0,1,3,31.65,51.3,51.3,0,0,1-5.62,15.13,27,27,0,0,1-5.36,6.17,20,20,0,0,1-7.24,3.94l-.09,0h-.1c-.89,0-1.81.15-2.84.18a10.43,10.43,0,0,1-3-.4,8.9,8.9,0,0,1-5-3.6l.06.08a10,10,0,0,1-2.17-4.46,11.89,11.89,0,0,1-.24-2.45l0-2.3-.06-9.18,1.78.47a29.16,29.16,0,0,1-7.83,9,26.1,26.1,0,0,1-11,4.87,23.3,23.3,0,0,1-6,.4c-.51,0-1,0-1.52-.08l-1.5-.24a19.92,19.92,0,0,1-3-.67,26.94,26.94,0,0,1-10.53-5.87A30.24,30.24,0,0,1,29.2,43.19a29.08,29.08,0,0,1,6.63-10.13,28.15,28.15,0,0,1,10.24-6.53,26.06,26.06,0,0,1,12.11-1.38,27,27,0,0,1,11.47,4.18A28.52,28.52,0,0,1,78.22,38a30.51,30.51,0,0,1,4.27,11.41,23,23,0,0,1,.34,3c.06,1,.11,2.05.1,3l0,5.81,0,11.62,0,5.81v.73c0,.25,0,.5,0,.61a5.14,5.14,0,0,0,.21,1.05,6.69,6.69,0,0,0,1,2l-.08-.1a5.56,5.56,0,0,0,.95.88,2.68,2.68,0,0,0,.95.41,5.45,5.45,0,0,0,1.29.09,2.08,2.08,0,0,0,.46,0,.34.34,0,0,0,.14-.07l.4-.27.37-.06A11.1,11.1,0,0,0,94,81.1a22.22,22.22,0,0,0,2.26-2.37c.35-.43.68-.85,1-1.32a4.58,4.58,0,0,0,.37-.56,5.92,5.92,0,0,0,.28-.58l0-.08,0-.08a47.7,47.7,0,0,0,4.72-15.55c.17-1.35.29-2.71.34-4.07,0-.68,0-1.36,0-2s-.07-1.36-.1-2l-.11-2-.05-1-.16-1c-.22-1.34-.39-2.69-.65-4A47.8,47.8,0,0,0,55.26,6.52,47.74,47.74,0,0,0,25.34,17.06,48.6,48.6,0,0,0,14.75,29.12,45.8,45.8,0,0,0,8.72,44,50.34,50.34,0,0,0,8,60,46.17,46.17,0,0,0,12.6,75.3a47.11,47.11,0,0,0,22.6,22,48.55,48.55,0,0,0,15.47,4.17,45.53,45.53,0,0,0,16-1.13l.17,0,.14,0a4.89,4.89,0,0,1,3,.55A5,5,0,0,1,72,103l.18.36.05.41a4.85,4.85,0,0,1-.63,3.09,5,5,0,0,1-2.34,2l-.2.08-.22.05c-15.35,3.58-32.42.58-45.27-8.61A56.42,56.42,0,0,1,7.73,83.16a55.14,55.14,0,0,1-7.4-22A55.18,55.18,0,0,1,32.62,4.74,53.82,53.82,0,0,1,54.94,0Zm0,.5A53.13,53.13,0,0,0,15,19,52.37,52.37,0,0,0,4.24,38.61,53.68,53.68,0,0,0,2.66,60.83a52.31,52.31,0,0,0,7.63,20.76A53.08,53.08,0,0,0,25.65,97.32,52.15,52.15,0,0,0,46,105.25a40.56,40.56,0,0,0,5.45.59,53.42,53.42,0,0,0,5.48.08,64.35,64.35,0,0,0,10.9-1.54l-.42.13c.16-.08.17-.12.14-.09s0,.07,0-.08l.23.77a.47.47,0,0,0-.09-.07c-.06,0-.08,0-.07,0l.31-.06a45,45,0,0,1-8.82,1.54c-1.48.11-3,.18-4.43.16l-4.45-.2a53.54,53.54,0,0,1-17.14-4.55A52.24,52.24,0,0,1,7.95,77.61a49.83,49.83,0,0,1-5.07-17,55.42,55.42,0,0,1,.91-17.71,52.25,52.25,0,0,1,84.14-29,52.81,52.81,0,0,1,17.89,29.65c.27,1.44.45,2.9.67,4.35l.16,1.09.05,1.1.1,2.2c0,.73.08,1.46.09,2.2s0,1.47-.06,2.2c-.06,1.47-.21,2.93-.4,4.38a51.41,51.41,0,0,1-5.21,16.72l.07-.15a9.2,9.2,0,0,1-.5,1,8.38,8.38,0,0,1-.61.92c-.36.49-.76,1-1.16,1.48a25.8,25.8,0,0,1-2.66,2.75,18,18,0,0,1-3.2,2.29,12.18,12.18,0,0,1-3.9,1.39l.77-.33a3.92,3.92,0,0,1-1.41.67,5.46,5.46,0,0,1-1.25.14,8.94,8.94,0,0,1-2.14-.19,6.24,6.24,0,0,1-2.18-1,9,9,0,0,1-1.57-1.46l-.05-.06,0,0a10.09,10.09,0,0,1-1.53-3.17,8.52,8.52,0,0,1-.33-1.79c0-.38,0-.61,0-.84v-.73l0-5.81,0-11.62,0-5.81c0-1,0-1.9-.07-2.81a19.93,19.93,0,0,0-.28-2.73,27.31,27.31,0,0,0-3.74-10.23A24.75,24.75,0,0,0,57.83,28.12a24.17,24.17,0,0,0-20,6.95,26.3,26.3,0,0,0-6.07,9.13,27.63,27.63,0,0,0,7,30.5,24.53,24.53,0,0,0,9.54,5.47,17.75,17.75,0,0,0,2.69.65l1.36.24c.46,0,.92.06,1.38.09a21.1,21.1,0,0,0,5.53-.3,24,24,0,0,0,10.13-4.36,27.18,27.18,0,0,0,7.39-8.32l1.81-3.08,0,3.55-.06,9.18,0,2.3a10.12,10.12,0,0,0,.16,2.11A8.36,8.36,0,0,0,80.37,86l0,0,0,0a7.31,7.31,0,0,0,4,3,8.91,8.91,0,0,0,2.58.38c.87,0,1.84-.14,2.85-.13l-.19,0c5-1.34,9.11-5,12-9.35a49.2,49.2,0,0,0,5.68-14.68,54.05,54.05,0,0,0-2.63-31.22,54.91,54.91,0,0,0-8-13.69A59.2,59.2,0,0,0,85,9.66,59,59,0,0,0,70.65,2.84,59.73,59.73,0,0,0,54.94.5Z"/><path class="cls-1" d="M54.94,78.08a19.66,19.66,0,0,0,8.77-1.93,21.27,21.27,0,0,0,7-5.52,24.62,24.62,0,0,0,5.58-16.34A23.62,23.62,0,0,0,70,38.65a20.17,20.17,0,0,0-15-6.52,18.82,18.82,0,0,0-7.95,1.94,20.27,20.27,0,0,0-6.4,5.05A24.38,24.38,0,0,0,35,54.2,25.44,25.44,0,0,0,39.77,70a20.53,20.53,0,0,0,6.56,5.76A18.64,18.64,0,0,0,54.94,78.08Zm0,.5a24.57,24.57,0,0,1-17.16-6.75A24.74,24.74,0,0,1,30,54.18,26.1,26.1,0,0,1,37,35.8a24.13,24.13,0,0,1,18-7.67,23,23,0,0,1,9.62,2.36,24.69,24.69,0,0,1,7.74,6,26.5,26.5,0,0,1,6.43,17.82,25,25,0,0,1-7.3,17.05A24.06,24.06,0,0,1,54.94,78.58Z"/></g></g></svg>