<svg xmlns="http://www.w3.org/2000/svg" viewBox="0 0 205.8 199.8"><defs><style>.cls-1{fill:#ffae00;}.cls-1,.cls-2{stroke:#ffae00;stroke-miterlimit:10;stroke-width:5px;}.cls-2{fill:#fff;}</style></defs><title>explore-icon</title><g id="Camada_2" data-name="Camada 2"><g id="ícones"><path class="cls-1" d="M110.68,99.9a9.5,9.5,0,1,1-9.49-9.49A9.49,9.49,0,0,1,110.68,99.9Z"/><path class="cls-1" d="M99.9,2.5a97.4,97.4,0,1,0,97.4,97.4A97.4,97.4,0,0,0,99.9,2.5ZM81,118.83,45.9,45.9,118.83,81,153.9,153.9Z"/><path class="cls-1" d="M110.68,99.9a9.5,9.5,0,1,1-9.49-9.49A9.49,9.49,0,0,1,110.68,99.9Z"/><path class="cls-1" d="M110.68,99.9a9.5,9.5,0,1,1-9.49-9.49A9.49,9.49,0,0,1,110.68,99.9Z"/><path class="cls-2" d="M116.68,99.9a9.5,9.5,0,1,1-9.49-9.49A9.49,9.49,0,0,1,116.68,99.9Z"/><path class="cls-2" d="M105.9,2.5a97.4,97.4,0,1,0,97.4,97.4A97.4,97.4,0,0,0,105.9,2.5ZM87,118.83,51.9,45.9,124.83,81,159.9,153.9Z"/><path class="cls-2" d="M116.68,99.9a9.5,9.5,0,1,1-9.49-9.49A9.49,9.49,0,0,1,116.68,99.9Z"/><path class="cls-2" d="M116.68,99.9a9.5,9.5,0,1,1-9.49-9.49A9.49,9.49,0,0,1,116.68,99.9Z"/></g></g></svg>
