<svg xmlns="http://www.w3.org/2000/svg" viewBox="0 0 205.8 199.8"><defs><style>.cls-1{fill:#fff;}</style></defs><title>explorar-icon-white</title><g id="Camada_2" data-name="Camada 2"><g id="ícones"><path class="cls-1" d="M104.19,106.2a7,7,0,0,1,0-12.6,6.75,6.75,0,0,1,3-.69,3,3,0,0,1,.43,0,9.49,9.49,0,0,0-6.43-2.52,9.9,9.9,0,0,0-1.45.11h0a9.49,9.49,0,0,0,0,18.76h0a9.9,9.9,0,0,0,1.45.11,9.49,9.49,0,0,0,6.43-2.52,3,3,0,0,1-.43,0A6.75,6.75,0,0,1,104.19,106.2Z"/><path class="cls-1" d="M107.62,106.87a3,3,0,0,1-.43,0,6.75,6.75,0,0,1-3-.69,6.85,6.85,0,0,1-3,.69,2.27,2.27,0,0,1-.45,0,7,7,0,0,1,0-13.92,2.27,2.27,0,0,1,.45,0,6.85,6.85,0,0,1,3,.69,6.75,6.75,0,0,1,3-.69,3,3,0,0,1,.43,0h0a7,7,0,0,1,4.47,2,12.06,12.06,0,0,0-3.46-4.41h0a11.78,11.78,0,0,0-4.44-2.23h0a11.78,11.78,0,0,0-3-.38,12,12,0,1,0,0,24,11.78,11.78,0,0,0,3-.38h0a11.78,11.78,0,0,0,4.44-2.23h0a12.06,12.06,0,0,0,3.46-4.41,7,7,0,0,1-4.47,2Z"/><path class="cls-1" d="M126.7,79.1,46.55,40.56l1.8,3.75,1.74,3.6,3.61,1.74,3.61,1.74L118.83,81l31.53,65.58,1.74,3.6,1.73,3.6,3.61,1.74,7.8,3.75Zm0,0L46.55,40.56l1.8,3.75,1.74,3.6,3.61,1.74,3.61,1.74L118.83,81l31.53,65.58,1.74,3.6,1.73,3.6,3.61,1.74,7.8,3.75Zm0,0L46.55,40.56l1.8,3.75,1.74,3.6,3.61,1.74,3.61,1.74L118.83,81l31.53,65.58,1.74,3.6,1.73,3.6,3.61,1.74,7.8,3.75Zm0,0L46.55,40.56l1.8,3.75,1.74,3.6,3.61,1.74,3.61,1.74L118.83,81l31.53,65.58,1.74,3.6,1.73,3.6,3.61,1.74,7.8,3.75Zm0,0L46.55,40.56l1.8,3.75,1.74,3.6,3.61,1.74,3.61,1.74L118.83,81l31.53,65.58,1.74,3.6,1.73,3.6,3.61,1.74,7.8,3.75Zm0,0L46.55,40.56l1.8,3.75,1.74,3.6,3.61,1.74,3.61,1.74L118.83,81l31.53,65.58,1.74,3.6,1.73,3.6,3.61,1.74,7.8,3.75Zm0,0L46.55,40.56l1.8,3.75,1.74,3.6,3.61,1.74,3.61,1.74L118.83,81l31.53,65.58,1.74,3.6,1.73,3.6,3.61,1.74,7.8,3.75Zm0,0L46.55,40.56l1.8,3.75,1.74,3.6,3.61,1.74,3.61,1.74L118.83,81l31.53,65.58,1.74,3.6,1.73,3.6,3.61,1.74,7.8,3.75ZM102.9,194.75A94.9,94.9,0,0,1,102.9,5c1,0,2,0,3,0a94.25,94.25,0,0,1,37.44,7.71A96.61,96.61,0,0,0,102.9,2.55c-1,0-2,0-3,0a97.4,97.4,0,1,0,0,194.8c1,0,2,0,3,0a96.61,96.61,0,0,0,40.44-10.16,94.25,94.25,0,0,1-37.44,7.71C104.9,194.8,103.9,194.78,102.9,194.75ZM126.7,79.1,46.55,40.56l1.8,3.75,1.74,3.6,3.61,1.74,3.61,1.74L118.83,81l31.53,65.58,1.74,3.6,1.73,3.6,3.61,1.74,7.8,3.75Zm0,0L46.55,40.56l1.8,3.75,1.74,3.6,3.61,1.74,3.61,1.74L118.83,81l31.53,65.58,1.74,3.6,1.73,3.6,3.61,1.74,7.8,3.75Zm0,0L46.55,40.56l1.8,3.75,1.74,3.6,3.61,1.74,3.61,1.74L118.83,81l31.53,65.58,1.74,3.6,1.73,3.6,3.61,1.74,7.8,3.75Zm0,0L46.55,40.56l1.8,3.75,1.74,3.6,3.61,1.74,3.61,1.74L118.83,81l31.53,65.58,1.74,3.6,1.73,3.6,3.61,1.74,7.8,3.75Zm0,0L46.55,40.56l1.8,3.75,1.74,3.6,3.61,1.74,3.61,1.74L118.83,81l31.53,65.58,1.74,3.6,1.73,3.6,3.61,1.74,7.8,3.75Zm0,0L46.55,40.56l1.8,3.75,1.74,3.6,3.61,1.74,3.61,1.74L118.83,81l31.53,65.58,1.74,3.6,1.73,3.6,3.61,1.74,7.8,3.75Zm0,0L46.55,40.56l1.8,3.75,1.74,3.6,3.61,1.74,3.61,1.74L118.83,81l31.53,65.58,1.74,3.6,1.73,3.6,3.61,1.74,7.8,3.75Zm0,0L46.55,40.56l1.8,3.75,1.74,3.6,3.61,1.74,3.61,1.74L118.83,81l31.53,65.58,1.74,3.6,1.73,3.6,3.61,1.74,7.8,3.75Zm0,0L46.55,40.56l1.8,3.75,1.74,3.6,3.61,1.74,3.61,1.74L118.83,81l31.53,65.58,1.74,3.6,1.73,3.6,3.61,1.74,7.8,3.75Zm0,0L46.55,40.56l1.8,3.75,1.74,3.6,3.61,1.74,3.61,1.74L118.83,81l31.53,65.58,1.74,3.6,1.73,3.6,3.61,1.74,7.8,3.75Zm0,0L46.55,40.56l1.8,3.75,1.74,3.6,3.61,1.74,3.61,1.74L118.83,81l31.53,65.58,1.74,3.6,1.73,3.6,3.61,1.74,7.8,3.75Z"/><path class="cls-1" d="M155.7,151.88l-1.73-3.6L122.36,82.56,120.7,79.1,52,46l-3.62-1.74,1.74,3.6,1.73,3.61,3.62,1.74L59,55l57.91,27.85,29.8,62,1.73,3.6.07.15L83.43,117.24l1.66,3.46,68.74,33,3.61,1.74Zm0,0-1.73-3.6L122.36,82.56,120.7,79.1,52,46l-3.62-1.74,1.74,3.6,1.73,3.61,3.62,1.74L59,55l57.91,27.85,29.8,62,1.73,3.6.07.15L83.43,117.24l1.66,3.46,68.74,33,3.61,1.74Zm0,0-1.73-3.6L122.36,82.56,120.7,79.1,52,46l-3.62-1.74,1.74,3.6,1.73,3.61,3.62,1.74L59,55l57.91,27.85,29.8,62,1.73,3.6.07.15L83.43,117.24l1.66,3.46,68.74,33,3.61,1.74Zm0,0-1.73-3.6L122.36,82.56,120.7,79.1,52,46l-3.62-1.74,1.74,3.6,1.73,3.61,3.62,1.74L59,55l57.91,27.85,29.8,62,1.73,3.6.07.15L83.43,117.24l1.66,3.46,68.74,33,3.61,1.74Zm0,0-1.73-3.6L122.36,82.56,120.7,79.1,52,46l-3.62-1.74,1.74,3.6,1.73,3.61,3.62,1.74L59,55l57.91,27.85,29.8,62,1.73,3.6.07.15L83.43,117.24l1.66,3.46,68.74,33,3.61,1.74Zm0,0-1.73-3.6L122.36,82.56,120.7,79.1,52,46l-3.62-1.74,1.74,3.6,1.73,3.61,3.62,1.74L59,55l57.91,27.85,29.8,62,1.73,3.6.07.15L83.43,117.24l1.66,3.46,68.74,33,3.61,1.74Zm0,0-1.73-3.6L122.36,82.56,120.7,79.1,52,46l-3.62-1.74,1.74,3.6,1.73,3.61,3.62,1.74L59,55l57.91,27.85,29.8,62,1.73,3.6.07.15L83.43,117.24l1.66,3.46,68.74,33,3.61,1.74Zm0,0-1.73-3.6L122.36,82.56,120.7,79.1,52,46l-3.62-1.74,1.74,3.6,1.73,3.61,3.62,1.74L59,55l57.91,27.85,29.8,62,1.73,3.6.07.15L83.43,117.24l1.66,3.46,68.74,33,3.61,1.74Zm0,0-1.73-3.6L122.36,82.56,120.7,79.1,52,46l-3.62-1.74,1.74,3.6,1.73,3.61,3.62,1.74L59,55l57.91,27.85,29.8,62,1.73,3.6.07.15L83.43,117.24l1.66,3.46,68.74,33,3.61,1.74Zm0,0-1.73-3.6L122.36,82.56,120.7,79.1,52,46l-3.62-1.74,1.74,3.6,1.73,3.61,3.62,1.74L59,55l57.91,27.85,29.8,62,1.73,3.6.07.15L83.43,117.24l1.66,3.46,68.74,33,3.61,1.74Zm0,0-1.73-3.6L122.36,82.56,120.7,79.1,52,46l-3.62-1.74,1.74,3.6,1.73,3.61,3.62,1.74L59,55l57.91,27.85,29.8,62,1.73,3.6.07.15L83.43,117.24l1.66,3.46,68.74,33,3.61,1.74Zm-12.36,35.21a94.25,94.25,0,0,1-37.44,7.71c-1,0-2,0-3,0s-2,0-3,0a94.18,94.18,0,0,1-37.42-7.7,95.31,95.31,0,0,1-40.81-33.55,94.67,94.67,0,0,1,0-107.3A95.31,95.31,0,0,1,62.48,12.7,94.18,94.18,0,0,1,99.9,5c1,0,2,0,3,0s2,0,3,0a94.25,94.25,0,0,1,37.44,7.71,95.29,95.29,0,0,1,40.79,33.54A100.59,100.59,0,0,0,143.4,10,99.05,99.05,0,0,0,102.9,0c-1,0-2,0-3,0a99.9,99.9,0,0,0,0,199.8c1,0,2,0,3,0a99.05,99.05,0,0,0,40.5-9.93,100.59,100.59,0,0,0,40.73-36.27A95.29,95.29,0,0,1,143.34,187.09Zm12.36-35.21-1.73-3.6L122.36,82.56,120.7,79.1,52,46l-3.62-1.74,1.74,3.6,1.73,3.61,3.62,1.74L59,55l57.91,27.85,29.8,62,1.73,3.6.07.15L83.43,117.24l1.66,3.46,68.74,33,3.61,1.74Zm0,0-1.73-3.6L122.36,82.56,120.7,79.1,52,46l-3.62-1.74,1.74,3.6,1.73,3.61,3.62,1.74L59,55l57.91,27.85,29.8,62,1.73,3.6.07.15L83.43,117.24l1.66,3.46,68.74,33,3.61,1.74Zm0,0-1.73-3.6L122.36,82.56,120.7,79.1,52,46l-3.62-1.74,1.74,3.6,1.73,3.61,3.62,1.74L59,55l57.91,27.85,29.8,62,1.73,3.6.07.15L83.43,117.24l1.66,3.46,68.74,33,3.61,1.74Zm0,0-1.73-3.6L122.36,82.56,120.7,79.1,52,46l-3.62-1.74,1.74,3.6,1.73,3.61,3.62,1.74L59,55l57.91,27.85,29.8,62,1.73,3.6.07.15L83.43,117.24l1.66,3.46,68.74,33,3.61,1.74Zm0,0-1.73-3.6L122.36,82.56,120.7,79.1,52,46l-3.62-1.74,1.74,3.6,1.73,3.61,3.62,1.74L59,55l57.91,27.85,29.8,62,1.73,3.6.07.15L83.43,117.24l1.66,3.46,68.74,33,3.61,1.74Zm0,0-1.73-3.6L122.36,82.56,120.7,79.1,52,46l-3.62-1.74,1.74,3.6,1.73,3.61,3.62,1.74L59,55l57.91,27.85,29.8,62,1.73,3.6.07.15L83.43,117.24l1.66,3.46,68.74,33,3.61,1.74Zm0,0-1.73-3.6L122.36,82.56,120.7,79.1,52,46l-3.62-1.74,1.74,3.6,1.73,3.61,3.62,1.74L59,55l57.91,27.85,29.8,62,1.73,3.6.07.15L83.43,117.24l1.66,3.46,68.74,33,3.61,1.74Zm0,0-1.73-3.6L122.36,82.56,120.7,79.1,52,46l-3.62-1.74,1.74,3.6,1.73,3.61,3.62,1.74L59,55l57.91,27.85,29.8,62,1.73,3.6.07.15L83.43,117.24l1.66,3.46,68.74,33,3.61,1.74Zm0,0-1.73-3.6L122.36,82.56,120.7,79.1,52,46l-3.62-1.74,1.74,3.6,1.73,3.61,3.62,1.74L59,55l57.91,27.85,29.8,62,1.73,3.6.07.15L83.43,117.24l1.66,3.46,68.74,33,3.61,1.74Zm0,0-1.73-3.6L122.36,82.56,120.7,79.1,52,46l-3.62-1.74,1.74,3.6,1.73,3.61,3.62,1.74L59,55l57.91,27.85,29.8,62,1.73,3.6.07.15L83.43,117.24l1.66,3.46,68.74,33,3.61,1.74Z"/><path class="cls-1" d="M104.19,106.2a7,7,0,0,1,0-12.6,6.75,6.75,0,0,1,3-.69,3,3,0,0,1,.43,0,9.49,9.49,0,0,0-6.43-2.52,9.9,9.9,0,0,0-1.45.11h0a9.49,9.49,0,0,0,0,18.76h0a9.9,9.9,0,0,0,1.45.11,9.49,9.49,0,0,0,6.43-2.52,3,3,0,0,1-.43,0A6.75,6.75,0,0,1,104.19,106.2Z"/><path class="cls-1" d="M107.62,106.87a3,3,0,0,1-.43,0,6.75,6.75,0,0,1-3-.69,6.85,6.85,0,0,1-3,.69,2.27,2.27,0,0,1-.45,0,7,7,0,0,1,0-13.92,2.27,2.27,0,0,1,.45,0,6.85,6.85,0,0,1,3,.69,6.75,6.75,0,0,1,3-.69,3,3,0,0,1,.43,0h0a7,7,0,0,1,4.47,2,12.06,12.06,0,0,0-3.46-4.41h0a11.78,11.78,0,0,0-4.44-2.23h0a11.78,11.78,0,0,0-3-.38,12,12,0,1,0,0,24,11.78,11.78,0,0,0,3-.38h0a11.78,11.78,0,0,0,4.44-2.23h0a12.06,12.06,0,0,0,3.46-4.41,7,7,0,0,1-4.47,2Z"/><path class="cls-1" d="M104.19,106.2a7,7,0,0,1,0-12.6,6.75,6.75,0,0,1,3-.69,3,3,0,0,1,.43,0,9.49,9.49,0,0,0-6.43-2.52,9.9,9.9,0,0,0-1.45.11h0a9.49,9.49,0,0,0,0,18.76h0a9.9,9.9,0,0,0,1.45.11,9.49,9.49,0,0,0,6.43-2.52,3,3,0,0,1-.43,0A6.75,6.75,0,0,1,104.19,106.2Z"/><path class="cls-1" d="M107.62,106.87a3,3,0,0,1-.43,0,6.75,6.75,0,0,1-3-.69,6.85,6.85,0,0,1-3,.69,2.27,2.27,0,0,1-.45,0,7,7,0,0,1,0-13.92,2.27,2.27,0,0,1,.45,0,6.85,6.85,0,0,1,3,.69,6.75,6.75,0,0,1,3-.69,3,3,0,0,1,.43,0h0a7,7,0,0,1,4.47,2,12.06,12.06,0,0,0-3.46-4.41h0a11.78,11.78,0,0,0-4.44-2.23h0a11.78,11.78,0,0,0-3-.38,12,12,0,1,0,0,24,11.78,11.78,0,0,0,3-.38h0a11.78,11.78,0,0,0,4.44-2.23h0a12.06,12.06,0,0,0,3.46-4.41,7,7,0,0,1-4.47,2Z"/><path class="cls-1" d="M108.64,90.52h0a9.76,9.76,0,0,0-1.44-.11,9.29,9.29,0,0,0-3,.49,9.14,9.14,0,0,0-3.45,2,9.47,9.47,0,0,0,0,13.92,9.14,9.14,0,0,0,3.45,2,9.29,9.29,0,0,0,3,.49,9.76,9.76,0,0,0,1.44-.11h0a9.49,9.49,0,0,0,0-18.76Zm3.46,14.35a7,7,0,0,1-4.47,2h0a3,3,0,0,1-.43,0,6.75,6.75,0,0,1-3-.69,7,7,0,0,1,0-12.6,6.75,6.75,0,0,1,3-.69,3,3,0,0,1,.43,0h0a7,7,0,0,1,4.47,11.94Z"/><path class="cls-1" d="M107.19,87.91a11.92,11.92,0,0,0-3,.38h0a11.85,11.85,0,0,0-4.44,2.23h0a12,12,0,0,0,0,18.76h0a11.85,11.85,0,0,0,4.44,2.23h0a12,12,0,1,0,3-23.6Zm.44,19h0a3,3,0,0,1-.43,0,6.75,6.75,0,0,1-3-.69,7,7,0,0,1,0-12.6,6.75,6.75,0,0,1,3-.69,3,3,0,0,1,.43,0h0a7,7,0,0,1,0,13.94Z"/><path class="cls-1" d="M126.7,79.1,46.55,40.56l1.8,3.75,1.74,3.6,1.73,3.61,31.61,65.72,1.66,3.46,68.74,33,3.61,1.74,7.8,3.75Zm29,72.78-3.6-1.73-3.62-1.74L87,118.83,55.44,53.26,53.7,49.65,52,46l-.07-.15L124.83,81,159.9,153.9Zm-29-72.78L46.55,40.56l1.8,3.75,1.74,3.6,1.73,3.61,31.61,65.72,1.66,3.46,68.74,33,3.61,1.74,7.8,3.75Zm29,72.78-3.6-1.73-3.62-1.74L87,118.83,55.44,53.26,53.7,49.65,52,46l-.07-.15L124.83,81,159.9,153.9Zm-29-72.78L46.55,40.56l1.8,3.75,1.74,3.6,1.73,3.61,31.61,65.72,1.66,3.46,68.74,33,3.61,1.74,7.8,3.75Zm29,72.78-3.6-1.73-3.62-1.74L87,118.83,55.44,53.26,53.7,49.65,52,46l-.07-.15L124.83,81,159.9,153.9Zm-29-72.78L46.55,40.56l1.8,3.75,1.74,3.6,1.73,3.61,31.61,65.72,1.66,3.46,68.74,33,3.61,1.74,7.8,3.75Zm29,72.78-3.6-1.73-3.62-1.74L87,118.83,55.44,53.26,53.7,49.65,52,46l-.07-.15L124.83,81,159.9,153.9Zm-29-72.78L46.55,40.56l1.8,3.75,1.74,3.6,1.73,3.61,31.61,65.72,1.66,3.46,68.74,33,3.61,1.74,7.8,3.75Zm29,72.78-3.6-1.73-3.62-1.74L87,118.83,55.44,53.26,53.7,49.65,52,46l-.07-.15L124.83,81,159.9,153.9Zm-29-72.78L46.55,40.56l1.8,3.75,1.74,3.6,1.73,3.61,31.61,65.72,1.66,3.46,68.74,33,3.61,1.74,7.8,3.75Zm29,72.78-3.6-1.73-3.62-1.74L87,118.83,55.44,53.26,53.7,49.65,52,46l-.07-.15L124.83,81,159.9,153.9Zm-29-72.78L46.55,40.56l1.8,3.75,1.74,3.6,1.73,3.61,31.61,65.72,1.66,3.46,68.74,33,3.61,1.74,7.8,3.75Zm29,72.78-3.6-1.73-3.62-1.74L87,118.83,55.44,53.26,53.7,49.65,52,46l-.07-.15L124.83,81,159.9,153.9Zm-29-72.78L46.55,40.56l1.8,3.75,1.74,3.6,1.73,3.61,31.61,65.72,1.66,3.46,68.74,33,3.61,1.74,7.8,3.75Zm29,72.78-3.6-1.73-3.62-1.74L87,118.83,55.44,53.26,53.7,49.65,52,46l-.07-.15L124.83,81,159.9,153.9Zm-29-72.78L46.55,40.56l1.8,3.75,1.74,3.6,1.73,3.61,31.61,65.72,1.66,3.46,68.74,33,3.61,1.74,7.8,3.75Zm29,72.78-3.6-1.73-3.62-1.74L87,118.83,55.44,53.26,53.7,49.65,52,46l-.07-.15L124.83,81,159.9,153.9Zm-29-72.78L46.55,40.56l1.8,3.75,1.74,3.6,1.73,3.61,31.61,65.72,1.66,3.46,68.74,33,3.61,1.74,7.8,3.75Zm29,72.78-3.6-1.73-3.62-1.74L87,118.83,55.44,53.26,53.7,49.65,52,46l-.07-.15L124.83,81,159.9,153.9Zm-29-72.78L46.55,40.56l1.8,3.75,1.74,3.6,1.73,3.61,31.61,65.72,1.66,3.46,68.74,33,3.61,1.74,7.8,3.75Zm29,72.78-3.6-1.73-3.62-1.74L87,118.83,55.44,53.26,53.7,49.65,52,46l-.07-.15L124.83,81,159.9,153.9Zm-29-72.78L46.55,40.56l1.8,3.75,1.74,3.6,1.73,3.61,31.61,65.72,1.66,3.46,68.74,33,3.61,1.74,7.8,3.75Zm29,72.78-3.6-1.73-3.62-1.74L87,118.83,55.44,53.26,53.7,49.65,52,46l-.07-.15L124.83,81,159.9,153.9Zm-29-72.78L46.55,40.56l1.8,3.75,1.74,3.6,1.73,3.61,31.61,65.72,1.66,3.46,68.74,33,3.61,1.74,7.8,3.75Zm29,72.78-3.6-1.73-3.62-1.74L87,118.83,55.44,53.26,53.7,49.65,52,46l-.07-.15L124.83,81,159.9,153.9Zm-29-72.78L46.55,40.56l1.8,3.75,1.74,3.6,1.73,3.61,31.61,65.72,1.66,3.46,68.74,33,3.61,1.74,7.8,3.75Zm29,72.78-3.6-1.73-3.62-1.74L87,118.83,55.44,53.26,53.7,49.65,52,46l-.07-.15L124.83,81,159.9,153.9ZM143.4,10A97.08,97.08,0,0,0,105.9,2.5c-1,0-2,0-3,0A97.41,97.41,0,0,0,62.48,187.1a96.66,96.66,0,0,0,40.42,10.15c1,0,2,0,3,0A97.42,97.42,0,0,0,143.4,10Zm-.06,177.11a94.25,94.25,0,0,1-37.44,7.71c-1,0-2,0-3,0A94.9,94.9,0,0,1,102.9,5c1,0,2,0,3,0a94.25,94.25,0,0,1,37.44,7.71,95.29,95.29,0,0,1,40.79,33.54,94.67,94.67,0,0,1,0,107.3A95.29,95.29,0,0,1,143.34,187.09ZM46.55,40.56l1.8,3.75,1.74,3.6,1.73,3.61,31.61,65.72,1.66,3.46,68.74,33,3.61,1.74,7.8,3.75L126.7,79.1ZM155.7,151.88l-3.6-1.73-3.62-1.74L87,118.83,55.44,53.26,53.7,49.65,52,46l-.07-.15L124.83,81,159.9,153.9Zm-29-72.78L46.55,40.56l1.8,3.75,1.74,3.6,1.73,3.61,31.61,65.72,1.66,3.46,68.74,33,3.61,1.74,7.8,3.75Zm29,72.78-3.6-1.73-3.62-1.74L87,118.83,55.44,53.26,53.7,49.65,52,46l-.07-.15L124.83,81,159.9,153.9Zm-29-72.78L46.55,40.56l1.8,3.75,1.74,3.6,1.73,3.61,31.61,65.72,1.66,3.46,68.74,33,3.61,1.74,7.8,3.75Zm29,72.78-3.6-1.73-3.62-1.74L87,118.83,55.44,53.26,53.7,49.65,52,46l-.07-.15L124.83,81,159.9,153.9Zm-29-72.78L46.55,40.56l1.8,3.75,1.74,3.6,1.73,3.61,31.61,65.72,1.66,3.46,68.74,33,3.61,1.74,7.8,3.75Zm29,72.78-3.6-1.73-3.62-1.74L87,118.83,55.44,53.26,53.7,49.65,52,46l-.07-.15L124.83,81,159.9,153.9Zm-29-72.78L46.55,40.56l1.8,3.75,1.74,3.6,1.73,3.61,31.61,65.72,1.66,3.46,68.74,33,3.61,1.74,7.8,3.75Zm29,72.78-3.6-1.73-3.62-1.74L87,118.83,55.44,53.26,53.7,49.65,52,46l-.07-.15L124.83,81,159.9,153.9Zm-29-72.78L46.55,40.56l1.8,3.75,1.74,3.6,1.73,3.61,31.61,65.72,1.66,3.46,68.74,33,3.61,1.74,7.8,3.75Zm29,72.78-3.6-1.73-3.62-1.74L87,118.83,55.44,53.26,53.7,49.65,52,46l-.07-.15L124.83,81,159.9,153.9Zm-29-72.78L46.55,40.56l1.8,3.75,1.74,3.6,1.73,3.61,31.61,65.72,1.66,3.46,68.74,33,3.61,1.74,7.8,3.75Zm29,72.78-3.6-1.73-3.62-1.74L87,118.83,55.44,53.26,53.7,49.65,52,46l-.07-.15L124.83,81,159.9,153.9Zm-29-72.78L46.55,40.56l1.8,3.75,1.74,3.6,1.73,3.61,31.61,65.72,1.66,3.46,68.74,33,3.61,1.74,7.8,3.75Zm29,72.78-3.6-1.73-3.62-1.74L87,118.83,55.44,53.26,53.7,49.65,52,46l-.07-.15L124.83,81,159.9,153.9Zm-29-72.78L46.55,40.56l1.8,3.75,1.74,3.6,1.73,3.61,31.61,65.72,1.66,3.46,68.74,33,3.61,1.74,7.8,3.75Zm29,72.78-3.6-1.73-3.62-1.74L87,118.83,55.44,53.26,53.7,49.65,52,46l-.07-.15L124.83,81,159.9,153.9Zm-29-72.78L46.55,40.56l1.8,3.75,1.74,3.6,1.73,3.61,31.61,65.72,1.66,3.46,68.74,33,3.61,1.74,7.8,3.75Zm29,72.78-3.6-1.73-3.62-1.74L87,118.83,55.44,53.26,53.7,49.65,52,46l-.07-.15L124.83,81,159.9,153.9Zm-29-72.78L46.55,40.56l1.8,3.75,1.74,3.6,1.73,3.61,31.61,65.72,1.66,3.46,68.74,33,3.61,1.74,7.8,3.75Zm29,72.78-3.6-1.73-3.62-1.74L87,118.83,55.44,53.26,53.7,49.65,52,46l-.07-.15L124.83,81,159.9,153.9Zm-29-72.78L46.55,40.56l1.8,3.75,1.74,3.6,1.73,3.61,31.61,65.72,1.66,3.46,68.74,33,3.61,1.74,7.8,3.75Zm29,72.78-3.6-1.73-3.62-1.74L87,118.83,55.44,53.26,53.7,49.65,52,46l-.07-.15L124.83,81,159.9,153.9Zm-29-72.78L46.55,40.56l1.8,3.75,1.74,3.6,1.73,3.61,31.61,65.72,1.66,3.46,68.74,33,3.61,1.74,7.8,3.75Zm29,72.78-3.6-1.73-3.62-1.74L87,118.83,55.44,53.26,53.7,49.65,52,46l-.07-.15L124.83,81,159.9,153.9Zm-29-72.78L46.55,40.56l1.8,3.75,1.74,3.6,1.73,3.61,31.61,65.72,1.66,3.46,68.74,33,3.61,1.74,7.8,3.75Zm29,72.78-3.6-1.73-3.62-1.74L87,118.83,55.44,53.26,53.7,49.65,52,46l-.07-.15L124.83,81,159.9,153.9Zm-29-72.78L46.55,40.56l1.8,3.75,1.74,3.6,1.73,3.61,31.61,65.72,1.66,3.46,68.74,33,3.61,1.74,7.8,3.75Zm29,72.78-3.6-1.73-3.62-1.74L87,118.83,55.44,53.26,53.7,49.65,52,46l-.07-.15L124.83,81,159.9,153.9Z"/><path class="cls-1" d="M126.7,79.1,46.55,40.56l1.8,3.75,1.74,3.6,1.73,3.61,31.61,65.72,1.66,3.46,68.74,33,3.61,1.74,7.8,3.75ZM154,148.28l-3.61-1.73-3.61-1.74L88.84,117,59,55l-1.73-3.6-.07-.15,65.12,31.32.59.28,31.6,65.72ZM126.7,79.1,46.55,40.56l1.8,3.75,1.74,3.6,1.73,3.61,31.61,65.72,1.66,3.46,68.74,33,3.61,1.74,7.8,3.75ZM154,148.28l-3.61-1.73-3.61-1.74L88.84,117,59,55l-1.73-3.6-.07-.15,65.12,31.32.59.28,31.6,65.72ZM126.7,79.1,46.55,40.56l1.8,3.75,1.74,3.6,1.73,3.61,31.61,65.72,1.66,3.46,68.74,33,3.61,1.74,7.8,3.75ZM154,148.28l-3.61-1.73-3.61-1.74L88.84,117,59,55l-1.73-3.6-.07-.15,65.12,31.32.59.28,31.6,65.72ZM126.7,79.1,46.55,40.56l1.8,3.75,1.74,3.6,1.73,3.61,31.61,65.72,1.66,3.46,68.74,33,3.61,1.74,7.8,3.75ZM154,148.28l-3.61-1.73-3.61-1.74L88.84,117,59,55l-1.73-3.6-.07-.15,65.12,31.32.59.28,31.6,65.72ZM126.7,79.1,46.55,40.56l1.8,3.75,1.74,3.6,1.73,3.61,31.61,65.72,1.66,3.46,68.74,33,3.61,1.74,7.8,3.75ZM154,148.28l-3.61-1.73-3.61-1.74L88.84,117,59,55l-1.73-3.6-.07-.15,65.12,31.32.59.28,31.6,65.72ZM126.7,79.1,46.55,40.56l1.8,3.75,1.74,3.6,1.73,3.61,31.61,65.72,1.66,3.46,68.74,33,3.61,1.74,7.8,3.75ZM154,148.28l-3.61-1.73-3.61-1.74L88.84,117,59,55l-1.73-3.6-.07-.15,65.12,31.32.59.28,31.6,65.72ZM126.7,79.1,46.55,40.56l1.8,3.75,1.74,3.6,1.73,3.61,31.61,65.72,1.66,3.46,68.74,33,3.61,1.74,7.8,3.75ZM154,148.28l-3.61-1.73-3.61-1.74L88.84,117,59,55l-1.73-3.6-.07-.15,65.12,31.32.59.28,31.6,65.72ZM126.7,79.1,46.55,40.56l1.8,3.75,1.74,3.6,1.73,3.61,31.61,65.72,1.66,3.46,68.74,33,3.61,1.74,7.8,3.75ZM154,148.28l-3.61-1.73-3.61-1.74L88.84,117,59,55l-1.73-3.6-.07-.15,65.12,31.32.59.28,31.6,65.72ZM126.7,79.1,46.55,40.56l1.8,3.75,1.74,3.6,1.73,3.61,31.61,65.72,1.66,3.46,68.74,33,3.61,1.74,7.8,3.75ZM154,148.28l-3.61-1.73-3.61-1.74L88.84,117,59,55l-1.73-3.6-.07-.15,65.12,31.32.59.28,31.6,65.72ZM126.7,79.1,46.55,40.56l1.8,3.75,1.74,3.6,1.73,3.61,31.61,65.72,1.66,3.46,68.74,33,3.61,1.74,7.8,3.75ZM154,148.28l-3.61-1.73-3.61-1.74L88.84,117,59,55l-1.73-3.6-.07-.15,65.12,31.32.59.28,31.6,65.72ZM126.7,79.1,46.55,40.56l1.8,3.75,1.74,3.6,1.73,3.61,31.61,65.72,1.66,3.46,68.74,33,3.61,1.74,7.8,3.75ZM154,148.28l-3.61-1.73-3.61-1.74L88.84,117,59,55l-1.73-3.6-.07-.15,65.12,31.32.59.28,31.6,65.72ZM126.7,79.1,46.55,40.56l1.8,3.75,1.74,3.6,1.73,3.61,31.61,65.72,1.66,3.46,68.74,33,3.61,1.74,7.8,3.75ZM154,148.28l-3.61-1.73-3.61-1.74L88.84,117,59,55l-1.73-3.6-.07-.15,65.12,31.32.59.28,31.6,65.72ZM126.7,79.1,46.55,40.56l1.8,3.75,1.74,3.6,1.73,3.61,31.61,65.72,1.66,3.46,68.74,33,3.61,1.74,7.8,3.75ZM154,148.28l-3.61-1.73-3.61-1.74L88.84,117,59,55l-1.73-3.6-.07-.15,65.12,31.32.59.28,31.6,65.72ZM126.7,79.1,46.55,40.56l1.8,3.75,1.74,3.6,1.73,3.61,31.61,65.72,1.66,3.46,68.74,33,3.61,1.74,7.8,3.75ZM154,148.28l-3.61-1.73-3.61-1.74L88.84,117,59,55l-1.73-3.6-.07-.15,65.12,31.32.59.28,31.6,65.72ZM126.7,79.1,46.55,40.56l1.8,3.75,1.74,3.6,1.73,3.61,31.61,65.72,1.66,3.46,68.74,33,3.61,1.74,7.8,3.75ZM154,148.28l-3.61-1.73-3.61-1.74L88.84,117,59,55l-1.73-3.6-.07-.15,65.12,31.32.59.28,31.6,65.72ZM126.7,79.1,46.55,40.56l1.8,3.75,1.74,3.6,1.73,3.61,31.61,65.72,1.66,3.46,68.74,33,3.61,1.74,7.8,3.75ZM154,148.28l-3.61-1.73-3.61-1.74L88.84,117,59,55l-1.73-3.6-.07-.15,65.12,31.32.59.28,31.6,65.72ZM105.9,0c-1,0-2,0-3,0A99.05,99.05,0,0,0,62.4,10,100.46,100.46,0,0,0,21.67,46.25a99.68,99.68,0,0,0,0,107.3A100.46,100.46,0,0,0,62.4,189.82a99.05,99.05,0,0,0,40.5,9.93c1,0,2,0,3,0A99.9,99.9,0,1,0,105.9,0Zm37.44,187.09a94.25,94.25,0,0,1-37.44,7.71c-1,0-2,0-3,0A94.9,94.9,0,0,1,102.9,5c1,0,2,0,3,0a94.25,94.25,0,0,1,37.44,7.71,95.29,95.29,0,0,1,40.79,33.54,94.67,94.67,0,0,1,0,107.3A95.29,95.29,0,0,1,143.34,187.09ZM46.55,40.56l1.8,3.75,1.74,3.6,1.73,3.61,31.61,65.72,1.66,3.46,68.74,33,3.61,1.74,7.8,3.75L126.7,79.1ZM154,148.28l-3.61-1.73-3.61-1.74L88.84,117,59,55l-1.73-3.6-.07-.15,65.12,31.32.59.28,31.6,65.72ZM126.7,79.1,46.55,40.56l1.8,3.75,1.74,3.6,1.73,3.61,31.61,65.72,1.66,3.46,68.74,33,3.61,1.74,7.8,3.75ZM154,148.28l-3.61-1.73-3.61-1.74L88.84,117,59,55l-1.73-3.6-.07-.15,65.12,31.32.59.28,31.6,65.72ZM126.7,79.1,46.55,40.56l1.8,3.75,1.74,3.6,1.73,3.61,31.61,65.72,1.66,3.46,68.74,33,3.61,1.74,7.8,3.75ZM154,148.28l-3.61-1.73-3.61-1.74L88.84,117,59,55l-1.73-3.6-.07-.15,65.12,31.32.59.28,31.6,65.72ZM126.7,79.1,46.55,40.56l1.8,3.75,1.74,3.6,1.73,3.61,31.61,65.72,1.66,3.46,68.74,33,3.61,1.74,7.8,3.75ZM154,148.28l-3.61-1.73-3.61-1.74L88.84,117,59,55l-1.73-3.6-.07-.15,65.12,31.32.59.28,31.6,65.72ZM126.7,79.1,46.55,40.56l1.8,3.75,1.74,3.6,1.73,3.61,31.61,65.72,1.66,3.46,68.74,33,3.61,1.74,7.8,3.75ZM154,148.28l-3.61-1.73-3.61-1.74L88.84,117,59,55l-1.73-3.6-.07-.15,65.12,31.32.59.28,31.6,65.72ZM126.7,79.1,46.55,40.56l1.8,3.75,1.74,3.6,1.73,3.61,31.61,65.72,1.66,3.46,68.74,33,3.61,1.74,7.8,3.75ZM154,148.28l-3.61-1.73-3.61-1.74L88.84,117,59,55l-1.73-3.6-.07-.15,65.12,31.32.59.28,31.6,65.72ZM126.7,79.1,46.55,40.56l1.8,3.75,1.74,3.6,1.73,3.61,31.61,65.72,1.66,3.46,68.74,33,3.61,1.74,7.8,3.75ZM154,148.28l-3.61-1.73-3.61-1.74L88.84,117,59,55l-1.73-3.6-.07-.15,65.12,31.32.59.28,31.6,65.72ZM126.7,79.1,46.55,40.56l1.8,3.75,1.74,3.6,1.73,3.61,31.61,65.72,1.66,3.46,68.74,33,3.61,1.74,7.8,3.75ZM154,148.28l-3.61-1.73-3.61-1.74L88.84,117,59,55l-1.73-3.6-.07-.15,65.12,31.32.59.28,31.6,65.72ZM126.7,79.1,46.55,40.56l1.8,3.75,1.74,3.6,1.73,3.61,31.61,65.72,1.66,3.46,68.74,33,3.61,1.74,7.8,3.75ZM154,148.28l-3.61-1.73-3.61-1.74L88.84,117,59,55l-1.73-3.6-.07-.15,65.12,31.32.59.28,31.6,65.72ZM126.7,79.1,46.55,40.56l1.8,3.75,1.74,3.6,1.73,3.61,31.61,65.72,1.66,3.46,68.74,33,3.61,1.74,7.8,3.75ZM154,148.28l-3.61-1.73-3.61-1.74L88.84,117,59,55l-1.73-3.6-.07-.15,65.12,31.32.59.28,31.6,65.72ZM126.7,79.1,46.55,40.56l1.8,3.75,1.74,3.6,1.73,3.61,31.61,65.72,1.66,3.46,68.74,33,3.61,1.74,7.8,3.75ZM154,148.28l-3.61-1.73-3.61-1.74L88.84,117,59,55l-1.73-3.6-.07-.15,65.12,31.32.59.28,31.6,65.72ZM126.7,79.1,46.55,40.56l1.8,3.75,1.74,3.6,1.73,3.61,31.61,65.72,1.66,3.46,68.74,33,3.61,1.74,7.8,3.75ZM154,148.28l-3.61-1.73-3.61-1.74L88.84,117,59,55l-1.73-3.6-.07-.15,65.12,31.32.59.28,31.6,65.72ZM126.7,79.1,46.55,40.56l1.8,3.75,1.74,3.6,1.73,3.61,31.61,65.72,1.66,3.46,68.74,33,3.61,1.74,7.8,3.75ZM154,148.28l-3.61-1.73-3.61-1.74L88.84,117,59,55l-1.73-3.6-.07-.15,65.12,31.32.59.28,31.6,65.72ZM126.7,79.1,46.55,40.56l1.8,3.75,1.74,3.6,1.73,3.61,31.61,65.72,1.66,3.46,68.74,33,3.61,1.74,7.8,3.75ZM154,148.28l-3.61-1.73-3.61-1.74L88.84,117,59,55l-1.73-3.6-.07-.15,65.12,31.32.59.28,31.6,65.72ZM126.7,79.1,46.55,40.56l1.8,3.75,1.74,3.6,1.73,3.61,31.61,65.72,1.66,3.46,68.74,33,3.61,1.74,7.8,3.75ZM154,148.28l-3.61-1.73-3.61-1.74L88.84,117,59,55l-1.73-3.6-.07-.15,65.12,31.32.59.28,31.6,65.72Z"/><path class="cls-1" d="M108.64,90.52h0a9.76,9.76,0,0,0-1.44-.11,9.29,9.29,0,0,0-3,.49,9.14,9.14,0,0,0-3.45,2,9.47,9.47,0,0,0,0,13.92,9.14,9.14,0,0,0,3.45,2,9.29,9.29,0,0,0,3,.49,9.76,9.76,0,0,0,1.44-.11h0a9.49,9.49,0,0,0,0-18.76Zm3.46,14.35a7,7,0,0,1-4.47,2h0a3,3,0,0,1-.43,0,6.75,6.75,0,0,1-3-.69,7,7,0,0,1,0-12.6,6.75,6.75,0,0,1,3-.69,3,3,0,0,1,.43,0h0a7,7,0,0,1,4.47,11.94Z"/><path class="cls-1" d="M107.19,87.91a11.92,11.92,0,0,0-3,.38h0a11.85,11.85,0,0,0-4.44,2.23h0a12,12,0,0,0,0,18.76h0a11.85,11.85,0,0,0,4.44,2.23h0a12,12,0,1,0,3-23.6Zm.44,19h0a3,3,0,0,1-.43,0,6.75,6.75,0,0,1-3-.69,7,7,0,0,1,0-12.6,6.75,6.75,0,0,1,3-.69,3,3,0,0,1,.43,0h0a7,7,0,0,1,0,13.94Z"/><path class="cls-1" d="M108.64,90.52h0a9.76,9.76,0,0,0-1.44-.11,9.29,9.29,0,0,0-3,.49,9.14,9.14,0,0,0-3.45,2,9.47,9.47,0,0,0,0,13.92,9.14,9.14,0,0,0,3.45,2,9.29,9.29,0,0,0,3,.49,9.76,9.76,0,0,0,1.44-.11h0a9.49,9.49,0,0,0,0-18.76Zm3.46,14.35a7,7,0,0,1-4.47,2h0a3,3,0,0,1-.43,0,6.75,6.75,0,0,1-3-.69,7,7,0,0,1,0-12.6,6.75,6.75,0,0,1,3-.69,3,3,0,0,1,.43,0h0a7,7,0,0,1,4.47,11.94Z"/><path class="cls-1" d="M107.19,87.91a11.92,11.92,0,0,0-3,.38h0a11.85,11.85,0,0,0-4.44,2.23h0a12,12,0,0,0,0,18.76h0a11.85,11.85,0,0,0,4.44,2.23h0a12,12,0,1,0,3-23.6Zm.44,19h0a3,3,0,0,1-.43,0,6.75,6.75,0,0,1-3-.69,7,7,0,0,1,0-12.6,6.75,6.75,0,0,1,3-.69,3,3,0,0,1,.43,0h0a7,7,0,0,1,0,13.94Z"/></g></g></svg>