<svg xmlns="http://www.w3.org/2000/svg" viewBox="0 0 714 372.63"><defs><style>.cls-1{fill:#fff;}.cls-2{fill:#ffae00;}.cls-3{font-size:33px;font-family:Quicksand-Regular, Quicksand;}.cls-4{letter-spacing:-0.02em;}.cls-5{letter-spacing:-0.02em;}.cls-6{letter-spacing:-0.03em;}.cls-7{letter-spacing:-0.01em;}.cls-8{fill:#ebebeb;}.cls-11,.cls-8{stroke:#cfcfcf;stroke-miterlimit:10;}.cls-9{font-size:23px;font-family:Karla-Regular, Karla;}.cls-10{letter-spacing:-0.02em;}.cls-11{fill:#ababab;}.cls-12{letter-spacing:-0.03em;}.cls-13,.cls-14,.cls-15,.cls-16{font-family:MyriadPro-Regular, Myriad Pro;}.cls-14{letter-spacing:-0.01em;}.cls-15{letter-spacing:0em;}.cls-16{letter-spacing:-0.01em;}</style></defs><title>explorar-ideias-print</title><g id="Camada_2" data-name="Camada 2"><g id="icones2"><rect class="cls-1" width="714" height="372.63"/><rect class="cls-2" x="37.67" y="81.3" width="638.67" height="8"/><text class="cls-3" transform="translate(234.23 73.23)">Ex<tspan class="cls-4" x="38.38" y="0">p</tspan><tspan x="59.5" y="0">l</tspan><tspan class="cls-5" x="67.71" y="0">o</tspan><tspan class="cls-6" x="87.68" y="0">r</tspan><tspan x="101.34" y="0">ar I</tspan><tspan class="cls-7" x="156.22" y="0">d</tspan><tspan x="177.5" y="0">eias</tspan></text><rect class="cls-8" x="37.67" y="124.63" width="638.67" height="92" rx="5.17" ry="5.17"/><text></text><text class="cls-9" transform="translate(76.67 176.29)"><tspan class="cls-10">F</tspan><tspan x="11.5" y="0">azer caderninhos</tspan></text><path class="cls-11" d="M644.83,159a1.7,1.7,0,0,1,.26,2.38L629.6,180.71l-1.57,2a1.7,1.7,0,0,1-2.64,0l-1.57-2-15.49-19.28a1.7,1.7,0,0,1,.26-2.38l.88-.7a1.7,1.7,0,0,1,2.38.26l13.55,16.86a1.7,1.7,0,0,0,2.64,0l13.55-16.86a1.7,1.7,0,0,1,2.38-.26Z"/><rect class="cls-8" x="36.67" y="251.96" width="638.67" height="92" rx="5.17" ry="5.17"/><text class="cls-9" transform="translate(75.67 304.29)"><tspan class="cls-12">V</tspan><tspan x="12.19" y="0">ender bolo na pra</tspan><tspan class="cls-13" x="195.63" y="0">ça </tspan><tspan class="cls-14" x="221.9" y="0">c</tspan><tspan class="cls-13" x="232.07" y="0">e</tspan><tspan class="cls-15" x="243.59" y="0">n</tspan><tspan class="cls-13" x="256.26" y="0">t</tspan><tspan class="cls-16" x="263.88" y="0">r</tspan><tspan class="cls-13" x="271.28" y="0">al</tspan></text><path class="cls-11" d="M643.83,286.37a1.7,1.7,0,0,1,.26,2.38L628.6,308,627,310a1.7,1.7,0,0,1-2.64,0l-1.57-2-15.49-19.28a1.7,1.7,0,0,1,.26-2.38l.88-.7a1.7,1.7,0,0,1,2.38.26l13.55,16.86a1.7,1.7,0,0,0,2.64,0l13.55-16.86a1.7,1.7,0,0,1,2.38-.26Z"/></g></g></svg>