<svg xmlns="http://www.w3.org/2000/svg" viewBox="0 0 152.5 207"><defs><style>.cls-1{fill:#ffae00;}.cls-1,.cls-2{stroke:#ffae00;stroke-miterlimit:10;stroke-width:5px;}.cls-2{fill:#fff;}</style></defs><title>lamp-icon</title><g id="Camada_2" data-name="Camada 2"><g id="ícones"><path class="cls-1" d="M99.92,177.54H44.58a5,5,0,0,0-4.76,6.55A30.1,30.1,0,0,0,68.25,204.5h8a30.1,30.1,0,0,0,28.43-20.41A5,5,0,0,0,99.92,177.54Z"/><path class="cls-1" d="M142,72.25A69.75,69.75,0,1,0,19.94,118.37,72.55,72.55,0,0,1,34.21,143h-.06a5.31,5.31,0,0,0-3.76,1.56,5.24,5.24,0,0,0-1.56,3.75,5.32,5.32,0,0,0,5.32,5.32h76.2a5.32,5.32,0,0,0,0-10.63A77.38,77.38,0,0,1,125,117.87,69.42,69.42,0,0,0,142,72.25Z"/><path class="cls-1" d="M110.35,160.21H34.15a5.31,5.31,0,0,0-3.76,1.56,5.24,5.24,0,0,0-1.56,3.75,5.32,5.32,0,0,0,5.32,5.32h76.2a5.32,5.32,0,1,0,0-10.63Z"/><path class="cls-2" d="M107.92,177.54H52.58a5,5,0,0,0-4.76,6.55A30.1,30.1,0,0,0,76.25,204.5h8a30.1,30.1,0,0,0,28.43-20.41A5,5,0,0,0,107.92,177.54Z"/><path class="cls-2" d="M150,72.25A69.75,69.75,0,1,0,27.94,118.37,72.55,72.55,0,0,1,42.21,143h-.06a5.31,5.31,0,0,0-3.76,1.56,5.24,5.24,0,0,0-1.56,3.75,5.32,5.32,0,0,0,5.32,5.32h76.2a5.32,5.32,0,1,0,0-10.63A77.38,77.38,0,0,1,133,117.87,69.42,69.42,0,0,0,150,72.25Z"/><path class="cls-2" d="M118.35,160.21H42.15a5.31,5.31,0,0,0-3.76,1.56,5.24,5.24,0,0,0-1.56,3.75,5.32,5.32,0,0,0,5.32,5.32h76.2a5.32,5.32,0,1,0,0-10.63Z"/></g></g></svg>