<svg xmlns="http://www.w3.org/2000/svg" viewBox="0 0 152.5 207"><defs><style>.cls-1{fill:#fff;}</style></defs><title>lampada-icon-white</title><g id="Camada_2" data-name="Camada 2"><g id="ícones"><path class="cls-1" d="M50.52,181.1a2.42,2.42,0,0,0-.34,2.19A29.14,29.14,0,0,0,51.77,187a27.38,27.38,0,0,0,24.48,15h8a27.93,27.93,0,0,0,4.94-.44,29.71,29.71,0,0,1-12.94,2.94h-8a30.36,30.36,0,0,1-5.84-.57h0a30,30,0,0,1-20.85-15.75,30.63,30.63,0,0,1-1.73-4.08,5,5,0,0,1,4.76-6.55H99.92a5,5,0,0,1,4.34,2.5H52.58A2.51,2.51,0,0,0,50.52,181.1Z"/><path class="cls-1" d="M106,178.19a5.56,5.56,0,0,0-.53-.65,7.51,7.51,0,0,0-5.59-2.5H44.58a7.55,7.55,0,0,0-6.12,3.15,7.3,7.3,0,0,0-1,6.7A32.55,32.55,0,0,0,68.25,207h8a32.54,32.54,0,0,0,13.84-3.07,0,0,0,0,0,0,0,31.92,31.92,0,0,0,8.91-6.2,27.25,27.25,0,0,1-9.8,3.84h0a27.93,27.93,0,0,1-4.94.44h-16a27.93,27.93,0,0,1-4.94-.44,0,0,0,0,1,0,0A27.46,27.46,0,0,1,43.77,187a29.14,29.14,0,0,1-1.59-3.74,2.42,2.42,0,0,1,.34-2.19A2.51,2.51,0,0,1,44.58,180H107A7.28,7.28,0,0,0,106,178.19Z"/><path class="cls-1" d="M114.85,151.17a4.79,4.79,0,0,1-.74.94,5.26,5.26,0,0,1-3.76,1.56H34.15a5.32,5.32,0,0,1-5.32-5.32,5.24,5.24,0,0,1,1.56-3.75A5.31,5.31,0,0,1,34.15,143h.06a72.55,72.55,0,0,0-14.27-24.67A69.78,69.78,0,0,1,53.74,5,70.68,70.68,0,0,1,72.62,2.5c1.23,0,2.44,0,3.65.12A69,69,0,0,1,97.83,7.34,66.63,66.63,0,0,0,80.61,5h-.37c-1.37,0-2.72,0-4.06.12a67.25,67.25,0,0,0-46.37,111.6,74.73,74.73,0,0,1,14.77,25.51l1.12,3.31H42.21a2.8,2.8,0,0,0-2.05.83,2.74,2.74,0,0,0-.83,2,2.83,2.83,0,0,0,2.82,2.82Z"/><polygon class="cls-1" points="114.86 145.53 114.85 145.53 114.85 145.52 114.86 145.53"/><path class="cls-1" d="M115.81,142.77l-1,2.75h2.79A7.84,7.84,0,0,0,115.81,142.77Zm-81.66,8.4a2.83,2.83,0,0,1-2.82-2.82,2.74,2.74,0,0,1,.83-2,2.8,2.8,0,0,1,2.05-.83H37.7l0-.06-.94-2.76-.16-.49a74.73,74.73,0,0,0-14.77-25.51A67.56,67.56,0,0,1,33.5,17h0A66.26,66.26,0,0,1,54.82,7.22l0,0A68.86,68.86,0,0,1,72.24,5h.37c1.2,0,2.39,0,3.57.12C77.52,5,78.87,5,80.24,5h.37a66.81,66.81,0,0,1,39.14,12.89A72.45,72.45,0,0,0,98.12,4.81,71.54,71.54,0,0,0,76.32.11C75.1,0,73.87,0,72.63,0h-.39A72.23,72.23,0,0,0,18.07,120,69.87,69.87,0,0,1,30.9,141.24a8,8,0,0,0-2.27,1.58,7.74,7.74,0,0,0-2.3,5.53,7.83,7.83,0,0,0,7.82,7.82h76.2a7.74,7.74,0,0,0,5.52-2.28,2.09,2.09,0,0,0,.2-.22,7.41,7.41,0,0,0,1.58-2.5Z"/><path class="cls-1" d="M114.85,168.34a4.79,4.79,0,0,1-.74.94,5.26,5.26,0,0,1-3.76,1.56H34.15a5.32,5.32,0,0,1-5.32-5.32,5.24,5.24,0,0,1,1.56-3.75,5.31,5.31,0,0,1,3.76-1.56h76.2a5.29,5.29,0,0,1,4.5,2.5H42.15a2.83,2.83,0,0,0-2.82,2.81,2.83,2.83,0,0,0,2.82,2.82Z"/><path class="cls-1" d="M34.15,168.34a2.83,2.83,0,0,1-2.82-2.82,2.83,2.83,0,0,1,2.82-2.81h83.49a7.64,7.64,0,0,0-1.56-2.5,7.8,7.8,0,0,0-5.73-2.5H34.15a7.82,7.82,0,0,0-7.82,7.81,7.83,7.83,0,0,0,7.82,7.82h76.2a7.71,7.71,0,0,0,5.52-2.29,1.8,1.8,0,0,0,.19-.21,7.41,7.41,0,0,0,1.58-2.5Z"/><path class="cls-1" d="M107.92,177.54H52.58a5,5,0,0,0-4.34,2.5,4.86,4.86,0,0,0-.42,4,30.63,30.63,0,0,0,1.73,4.08,30,30,0,0,0,13.74,13.39,0,0,0,0,0,0,0,29.71,29.71,0,0,0,12.94,2.94h8a30.36,30.36,0,0,0,5.84-.57,0,0,0,0,0,0,0,30,30,0,0,0,20.85-15.75,30.63,30.63,0,0,0,1.73-4.08A5,5,0,0,0,107.92,177.54Zm2.4,5.75a27.85,27.85,0,0,1-1.6,3.74,27.4,27.4,0,0,1-19.51,14.53h0a27.93,27.93,0,0,1-4.94.44h-8a27.38,27.38,0,0,1-24.48-15,29.14,29.14,0,0,1-1.59-3.74,2.42,2.42,0,0,1,.34-2.19A2.51,2.51,0,0,1,52.58,180h55.34A2.51,2.51,0,0,1,110,181.1,2.42,2.42,0,0,1,110.32,183.29Z"/><path class="cls-1" d="M114,178.19a7.55,7.55,0,0,0-6.12-3.15H52.58a7.51,7.51,0,0,0-5.59,2.5,5.56,5.56,0,0,0-.53.65,7.41,7.41,0,0,0-1,6.7,32.83,32.83,0,0,0,8,12.82,32,32,0,0,0,8.92,6.21h0A32.54,32.54,0,0,0,76.25,207h8a32.34,32.34,0,0,0,28.92-17.68,31.82,31.82,0,0,0,1.88-4.43A7.3,7.3,0,0,0,114,178.19Zm-3.72,5.1a27.85,27.85,0,0,1-1.6,3.74,27.4,27.4,0,0,1-19.51,14.53h0a27.93,27.93,0,0,1-4.94.44h-8a27.38,27.38,0,0,1-24.48-15,29.14,29.14,0,0,1-1.59-3.74,2.42,2.42,0,0,1,.34-2.19A2.51,2.51,0,0,1,52.58,180h55.34A2.51,2.51,0,0,1,110,181.1,2.42,2.42,0,0,1,110.32,183.29Z"/><path class="cls-1" d="M150,72.25A69.67,69.67,0,0,0,80.62,2.5q-2.19,0-4.35.12A69.44,69.44,0,0,0,54.86,7.2l0,0A69.81,69.81,0,0,0,27.94,118.37,72.55,72.55,0,0,1,42.21,143h-.06a5.31,5.31,0,0,0-3.76,1.56,5,5,0,0,0-.71.88.21.21,0,0,0,0,.06,5.27,5.27,0,0,0,0,5.63,5.29,5.29,0,0,0,4.5,2.5h76.2a5.32,5.32,0,0,0,0-10.63A77.38,77.38,0,0,1,133,117.87,69.42,69.42,0,0,0,150,72.25Zm-34,70-.19.55-1,2.75h3.5a2.82,2.82,0,0,1,2.82,2.81,2.83,2.83,0,0,1-2.82,2.82H42.15a2.83,2.83,0,0,1-2.82-2.82,2.74,2.74,0,0,1,.83-2,2.8,2.8,0,0,1,2.05-.83H45.7l-1.12-3.31a74.73,74.73,0,0,0-14.77-25.51A67.25,67.25,0,0,1,76.18,5.12C77.52,5,78.87,5,80.24,5h.37a67.24,67.24,0,0,1,50.5,111.23A79.48,79.48,0,0,0,116,142.22Z"/><path class="cls-1" d="M152.5,72.25A72.41,72.41,0,0,0,80.63,0h-.39c-1.31,0-2.62,0-3.92.11A71.84,71.84,0,0,0,33.51,17h0q-2,1.7-3.91,3.56A72.43,72.43,0,0,0,26.07,120,69.87,69.87,0,0,1,38.9,141.24a7.69,7.69,0,0,0-2.16,1.48l-.11.1a7.82,7.82,0,0,0,5.52,13.35h76.2a7.82,7.82,0,0,0,7.82-7.82,7.84,7.84,0,0,0-4.5-7.07,74.83,74.83,0,0,1,13.22-21.77A72.16,72.16,0,0,0,152.5,72.25Zm-36.5,70-.19.55-1,2.75h3.5a2.82,2.82,0,0,1,2.82,2.81,2.83,2.83,0,0,1-2.82,2.82H42.15a2.83,2.83,0,0,1-2.82-2.82,2.74,2.74,0,0,1,.83-2,2.8,2.8,0,0,1,2.05-.83H45.7l-1.12-3.31a74.73,74.73,0,0,0-14.77-25.51A67.25,67.25,0,0,1,76.18,5.12C77.52,5,78.87,5,80.24,5h.37a67.24,67.24,0,0,1,50.5,111.23A79.48,79.48,0,0,0,116,142.22Z"/><path class="cls-1" d="M118.35,160.21H42.15a5.31,5.31,0,0,0-3.76,1.56,4.84,4.84,0,0,0-.75.94,5.27,5.27,0,0,0,0,5.63,5.29,5.29,0,0,0,4.5,2.5h76.2a5.32,5.32,0,1,0,0-10.63Zm2,7.31a2.74,2.74,0,0,1-2,.82H42.15a2.83,2.83,0,0,1-2.82-2.82,2.83,2.83,0,0,1,2.82-2.81h76.2a2.82,2.82,0,0,1,2.82,2.81A2.76,2.76,0,0,1,120.33,167.52Z"/><path class="cls-1" d="M118.35,157.71H42.15A7.75,7.75,0,0,0,36.63,160a2.09,2.09,0,0,0-.2.22,7.41,7.41,0,0,0-1.58,2.5,7.82,7.82,0,0,0,7.3,10.63h76.2a7.84,7.84,0,0,0,7.82-7.82A7.82,7.82,0,0,0,118.35,157.71Zm2,9.81a2.74,2.74,0,0,1-2,.82H42.15a2.83,2.83,0,0,1-2.82-2.82,2.83,2.83,0,0,1,2.82-2.81h76.2a2.82,2.82,0,0,1,2.82,2.81A2.76,2.76,0,0,1,120.33,167.52Z"/></g></g></svg>