<svg xmlns="http://www.w3.org/2000/svg" viewBox="0 0 153.39 195.16"><defs><style>.cls-1{fill:#fff;}.cls-2{fill:#ff276c;}.cls-3,.cls-4{fill:none;stroke:#ff276c;stroke-width:3px;}.cls-3{stroke-miterlimit:10;}.cls-4{stroke-linecap:round;stroke-linejoin:round;}</style></defs><title>localizacao-rosa-icon</title><g id="Camada_2" data-name="Camada 2"><g id="ícones"><path class="cls-1" d="M94.41,65.41a15.14,15.14,0,0,0,0-11.14,13.53,13.53,0,0,1,0,11.14Z"/></g><g id="icones2"><path class="cls-2" d="M83.23,1,91,2.28A67.44,67.44,0,0,1,98.6,4.1,75.8,75.8,0,0,1,113.11,10a76.65,76.65,0,0,1,24.08,20,73.69,73.69,0,0,1,8.5,13.36A79.52,79.52,0,0,1,151.2,58.3a68.21,68.21,0,0,1,2.18,15.89c0,1.35,0,2.69-.09,4s-.22,2.73-.41,4.08a59.6,59.6,0,0,1-1.73,7.94,140.24,140.24,0,0,1-12.92,29,242.24,242.24,0,0,1-17.28,26.42c-6.28,8.3-12.6,16.62-19.26,24.72-3.34,4.08-6.82,8-10.31,11.92l-5.24,5.8L83.53,191l-1.29,1.44-.64.72c-.25.27-.62.62-.93.92a3.88,3.88,0,0,1-5.48-.12l-.06-.07-5.47-5.69-2.74-2.84c-.91-.95-1.75-1.91-2.64-2.87-3.5-3.84-7-7.67-10.54-11.6-7-7.89-13.62-16.13-20-24.42-3.22-4.17-6.31-8.3-9.46-12.6s-6-8.87-8.74-13.5S10.38,111,8.1,106.13A96.74,96.74,0,0,1,2.28,90.78,66.89,66.89,0,0,1,.54,82.52,57.67,57.67,0,0,1,0,74,68.3,68.3,0,0,1,2.41,57.52a72.94,72.94,0,0,1,15-29A75.32,75.32,0,0,1,29,17.31,79.59,79.59,0,0,1,42.66,8.88,81.56,81.56,0,0,1,57.57,3.41a76.5,76.5,0,0,1,7.75-1.55q1.95-.3,3.91-.51c.65-.08,1.31-.12,2-.18.33,0,.66,0,.91-.09s.59-.13.94-.2h.13Zm-.08,1-10,.14h.13c-.29.07-.6.17-1,.24s-.71.1-1,.15c-.64.09-1.28.15-1.92.26q-1.91.28-3.81.66a72.9,72.9,0,0,0-7.46,2A72,72,0,0,0,51,8.17,69.59,69.59,0,0,0,22.32,32.31a71.86,71.86,0,0,0-7.08,13.07A74.17,74.17,0,0,0,11.05,59.5,68.66,68.66,0,0,0,9.72,74,54,54,0,0,0,12,88a99.8,99.8,0,0,0,5.46,13.74c2.15,4.58,4.53,9.06,7,13.47s5.19,8.67,8,12.85,6,8.45,9,12.64,6.08,8.36,9.2,12.47,6.28,8.09,9.62,12S67,173,70.46,177c.86,1,1.7,2,2.57,3l2.6,2.85,5.22,5.7-5.54-.19c.16-.15.28-.23.48-.43l.67-.72,1.34-1.43,2.69-2.84,5.36-5.66c3.55-3.77,7-7.54,10.38-11.44,6.73-7.81,13.19-15.91,19.66-24.05a236.2,236.2,0,0,0,17.45-25.37,137.74,137.74,0,0,0,13.12-27.56,54.86,54.86,0,0,0,1.84-7.24,48.12,48.12,0,0,0,.71-7.42,64.18,64.18,0,0,0-1.37-15,76.66,76.66,0,0,0-4.52-14.56A70.19,70.19,0,0,0,98.36,4.92a66.55,66.55,0,0,0-7.56-1.73Z"/><path class="cls-2" d="M125.84,69.46a49.18,49.18,0,0,1-13.14,32.78A46.62,46.62,0,0,1,97.92,112.9a46.07,46.07,0,0,1-18,4.08,47.84,47.84,0,0,1-34-13.49,48.44,48.44,0,0,1-14.69-34,49.57,49.57,0,0,1,13.73-35,47.77,47.77,0,0,1,16-10.91c1.53-.55,3-1.15,4.6-1.63s3.14-.85,4.74-1.16,3.22-.47,4.83-.65l4.86-.18,4.84.35c1.6.24,3.18.57,4.77.86s3.1.91,4.63,1.37,3,1.22,4.45,1.82a46.37,46.37,0,0,1,15,11.42A50.51,50.51,0,0,1,125.84,69.46Zm-.8,0a41.21,41.21,0,0,0-4-17,41.93,41.93,0,0,0-10.47-13.63,44.94,44.94,0,0,0-14.53-8.31,46.37,46.37,0,0,0-16.14-2.54A44,44,0,0,0,50.54,40.08,41.75,41.75,0,0,0,41.15,53.4a42,42,0,0,0-.6,32.37,42.87,42.87,0,0,0,22.83,23.62A43.58,43.58,0,0,0,79.92,113a45.49,45.49,0,0,0,16.84-2.85,44.65,44.65,0,0,0,14.75-9.07,42.76,42.76,0,0,0,10.1-14.32c.5-1.39,1.07-2.75,1.52-4.16s.8-2.85,1.09-4.29.44-2.92.62-4.39Z"/><circle class="cls-3" cx="79.92" cy="69.46" r="45.52"/><path class="cls-4" d="M83.19,1.5c2.88.46,5.78.83,8.63,1.39a73.73,73.73,0,0,1,42.71,25.39A71.76,71.76,0,0,1,147,50.45a68.66,68.66,0,0,1,4,27.68,58.64,58.64,0,0,1-3.85,16.16,147.75,147.75,0,0,1-11.1,23,240.56,240.56,0,0,1-17.47,26.16c-6.67,8.61-13.36,17.21-20.4,25.52-6.28,7.42-13,14.44-19.6,21.64-.16.18-.35.33-.64.59-2.85-3-5.73-5.92-8.42-9C63,174.77,56.26,167.44,50,159.7c-7.11-8.84-13.88-18-20.51-27.16a178.15,178.15,0,0,1-15.87-26.8c-4-8.29-7.42-16.83-8.47-26.08A63.79,63.79,0,0,1,7.06,57.14,72.95,72.95,0,0,1,41.64,11.29,74.13,74.13,0,0,1,71.86,1.78a11.68,11.68,0,0,0,1.32-.28Z"/></g></g></svg>