<svg xmlns="http://www.w3.org/2000/svg" viewBox="0 0 140.23 140.26"><defs><style>.cls-1{fill:#c3c3c2;}</style></defs><title>logo-simbolo-cinza</title><g id="Camada_2" data-name="Camada 2"><g id="Capa"><path class="cls-1" d="M140.23,65.44v8.33a2.34,2.34,0,0,0-.1.39c-.06.73-.06,1.47-.19,2.19-.29,1.72-.63,3.44-.95,5.16s-.61,3.5-1,5.23a52.41,52.41,0,0,1-2.24,7.61c-.93,2.34-1.91,4.67-2.95,7a36.51,36.51,0,0,1-2.07,3.83q-1.7,2.79-3.52,5.51a60.9,60.9,0,0,1-6.32,7.84c-1.41,1.5-2.91,2.91-4.44,4.28s-3,2.51-4.51,3.71a58.52,58.52,0,0,1-7.71,5c-1.66.92-3.37,1.78-5.09,2.58s-3.3,1.46-5,2.08a47.53,47.53,0,0,1-7,2.06c-2,.4-3.95.79-5.94,1.1-1.64.26-3.3.4-5,.58-1.25.13-2.49.26-3.74.32s-2.41,0-3.61,0c-1.63-.05-3.26-.15-4.89-.24-.69,0-1.39-.08-2.07-.17-1.25-.16-2.5-.34-3.74-.56-1.49-.26-3-.52-4.45-.85a60.81,60.81,0,0,1-8.11-2.4c-1.61-.61-3.22-1.24-4.79-1.95s-2.9-1.4-4.32-2.17-2.76-1.51-4.05-2.39c-1.9-1.29-3.78-2.63-5.59-4.05-1.55-1.22-3-2.54-4.47-3.9a55.84,55.84,0,0,1-5-5.33c-.89-1.1-1.86-2.14-2.68-3.28-1.57-2.18-3.07-4.4-4.57-6.63-.55-.82-1-1.71-1.48-2.56l.08-.1.32.12c1.47.66,2.9,1.4,4.41,1.95a18.87,18.87,0,0,0,7.91,1.16,22.8,22.8,0,0,0,4-.65,24.77,24.77,0,0,0,7.06-3.15,22,22,0,0,1,4.41-2.62c1.44-.5,2.9-.91,4.36-1.35,1.25-.38,2.52-.71,3.76-1.12a1.25,1.25,0,0,0,.87-1.37,1.45,1.45,0,0,0-1.42-1.11,8.87,8.87,0,0,0-.95.12l-1.35.22c.59-.31,1.22-.52,1.82-.78,1-.46,2.07-.95,3.1-1.45a1,1,0,0,0,.66-1,1.44,1.44,0,0,0-1.94-1.29c-1,.36-2,.79-3,1.18-.58.22-1.18.41-1.76.62a.5.5,0,0,1,.23-.26l5-3.15a1.22,1.22,0,0,0,.52-1.35,1.47,1.47,0,0,0-2.39-.77l-4.12,2.65c-.33.21-.67.4-1,.61.45-.53.93-1,1.42-1.5.89-.89,1.79-1.78,2.67-2.68a1.06,1.06,0,0,0,.1-1.41c-.52-.67-1-.82-1.61-.46a10.45,10.45,0,0,0-1.48,1c-1.46,1.19-2.89,2.4-4.34,3.6l-1.57,1.28c.06-.15.07-.18.09-.21l1.31-2c.33-.52.59-1.07.16-1.65-.58-.81-1.09-1.09-1.81-.55A5.77,5.77,0,0,0,32.13,89a9.59,9.59,0,0,1-.61,1.42,12.29,12.29,0,0,1-3,3.9,15.35,15.35,0,0,1-2.11,1.5A10.17,10.17,0,0,1,20,97a10.51,10.51,0,0,1-3-.87,11.86,11.86,0,0,1-4.22-3.24,13.8,13.8,0,0,1-2.27-3.83,14.14,14.14,0,0,1-1-6.92c.15-1.25.33-2.5.58-3.73a26,26,0,0,1,3.16-8,34.7,34.7,0,0,1,5.07-6.62c.73-.75,1.55-1.43,2.34-2.12a25.76,25.76,0,0,1,5.78-3.74l.63-.31a3,3,0,0,0-.89,0c-1.07.11-2.15.2-3.22.33a29.05,29.05,0,0,0-5.07,1.12,27.9,27.9,0,0,0-5.47,2.36A21.39,21.39,0,0,0,7.94,64.7a31.61,31.61,0,0,0-2.82,3.13A25.26,25.26,0,0,0,1.48,74.3c-.21.52-.43,1-.66,1.59A2.35,2.35,0,0,1,0,74.31c0-3.07,0-6.14.08-9.21a5.1,5.1,0,0,1,.09-.87c.29-1.54.57-3.07.88-4.6.4-2,.78-4.08,1.25-6.11a55,55,0,0,1,2.27-7.69c.85-2.17,1.77-4.32,2.71-6.46.5-1.13,1.08-2.22,1.69-3.3.74-1.33,1.52-2.66,2.33-3.95a55.31,55.31,0,0,1,4.82-6.6c1.3-1.51,2.6-3,4-4.45s2.91-2.82,4.41-4.18a37.58,37.58,0,0,1,2.93-2.42c1.57-1.16,3.17-2.29,4.8-3.36s3-1.87,4.6-2.72c1.37-.74,2.77-1.43,4.19-2C42.94,5.5,44.87,4.72,46.83,4a46.44,46.44,0,0,1,4.51-1.4q3.13-.8,6.31-1.42C59,.9,60.43.76,61.83.59S64.45.29,65.76.2c1-.07,2.07-.06,3.1-.09a1.45,1.45,0,0,0,.35-.1h3a.72.72,0,0,0,.23.1C74,.19,75.61.25,77.2.35c.88.05,1.76.12,2.62.25,1.44.21,2.88.46,4.31.72a56.84,56.84,0,0,1,7.68,2,51.83,51.83,0,0,1,7.24,2.89c2,1,4,2,5.92,3.14s3.75,2.38,5.57,3.64c1.21.84,2.37,1.77,3.51,2.7.88.71,1.74,1.46,2.57,2.24,1.34,1.27,2.66,2.58,4,3.89.31.31.56.67.84,1a.52.52,0,0,1-.39,0,17.87,17.87,0,0,0-7.18-1.59,35,35,0,0,0-3.87.08,11.44,11.44,0,0,0-2.47.37c-2.07.6-4.12,1.27-6.17,1.94a49.69,49.69,0,0,0-6.69,2.77,8.9,8.9,0,0,1-1.56.58c-1.61.44-3.23.84-4.83,1.29-1.27.35-2.55.7-3.8,1.15-1,.36-1.52,1.08-1.07,2.15a1.49,1.49,0,0,0,1.48,1c.82-.11,1.63-.23,2.44-.36L88.63,32a.61.61,0,0,1-.27.29c-1.77.94-3.56,1.87-5.32,2.84a26.2,26.2,0,0,0-4,2.33,1.5,1.5,0,0,0-.45,2,1.37,1.37,0,0,0,1.93.64l4.9-2.12c.42-.18.86-.34,1.29-.51-1.9,1.46-3.84,2.83-5.77,4.22a1.86,1.86,0,0,0-1,1.77,1.89,1.89,0,0,0,1,1.49,1.32,1.32,0,0,0,1.48-.2L87.46,41c.37-.27.76-.51,1.14-.76a4,4,0,0,1-.51.69c-1.2,1.29-2.39,2.57-3.6,3.85a1.77,1.77,0,0,0-.17,2.53,1.26,1.26,0,0,0,1.67.28c.37-.33.8-.58,1.15-.92.93-.89,1.83-1.82,2.74-2.73L91,42.87c-.29.59-.66,1.11-1,1.66a2.55,2.55,0,0,0-.57,1.71,1.63,1.63,0,0,0,.81,1.3,1.18,1.18,0,0,0,1.44-.12,15.28,15.28,0,0,0,1.78-1.93c.85-1.14,1.51-2.42,2.43-3.5a17.07,17.07,0,0,1,5-4.06,14.82,14.82,0,0,1,6.47-1.8,16.35,16.35,0,0,1,3.47.25,14.71,14.71,0,0,1,4.78,1.79,18.11,18.11,0,0,1,5.2,4.59,21,21,0,0,1,2.7,4.64,22.13,22.13,0,0,1,1.83,7.7,41.58,41.58,0,0,1-.15,4.82,18.54,18.54,0,0,1-.95,4.42,21.94,21.94,0,0,1-1.83,4.15,20.09,20.09,0,0,1-2.65,3.69A16.66,16.66,0,0,1,116,75.29a15,15,0,0,1-5.08,2l-1.12.21v.13c1-.07,2-.15,2.95-.21a21.47,21.47,0,0,0,4.55-.75,30.12,30.12,0,0,0,3.45-1.17,16.72,16.72,0,0,0,2.11-1.2,28.88,28.88,0,0,0,5.22-3.87c1.13-1.08,2.18-2.26,3.21-3.44a26.34,26.34,0,0,0,3.22-4.84,40,40,0,0,0,2.77-6.69,16.57,16.57,0,0,1,.71-1.62l.12,0c.27,1.5.54,3,.81,4.51q.56,3,1.13,6.09C140.1,64.81,140.17,65.13,140.23,65.44ZM23.74,61l0,.07.23,0a37.67,37.67,0,0,1,3.73-.59,24.22,24.22,0,0,1,5.44.28A40.77,40.77,0,0,1,38.54,62,81.3,81.3,0,0,1,50,66.81c2.25,1.09,4.48,2.24,6.74,3.32,2.65,1.27,5.32,2.49,8,3.71,1.13.52,2.27,1,3.44,1.46s2.68.85,4,1.23c1.84.53,3.69,1.06,5.55,1.53s3.68.9,5.53,1.29c1.65.34,3.3.63,5,.9,1.11.18,2.24.3,3.36.41,1.29.13,2.57.29,3.86.31,1.87,0,3.74,0,5.61-.08a29.86,29.86,0,0,0,3.5-.33c1.71-.27,3.41-.62,5.11-1,.87-.18,1.73-.44,2.59-.66l0-.12c-.37,0-.73.09-1.1.09-1.07,0-2.15,0-3.22-.08s-2.37-.15-3.54-.33a47,47,0,0,1-5-.95c-2.21-.59-4.4-1.28-6.56-2-2.69-.95-5.33-2-8-3-2.46-.95-4.92-1.91-7.37-2.87-2.12-.82-4.25-1.66-6.38-2.46-1.77-.67-3.54-1.35-5.34-1.94q-4.06-1.33-8.15-2.54-3.12-.93-6.28-1.71c-2.08-.52-4.17-1-6.26-1.44-1.19-.26-2.39-.45-3.59-.67-1-.19-2.08-.39-3.13-.55S36.12,58,35,57.89c-.65-.08-1.29-.17-1.94-.23a6,6,0,0,0-1.39,0A19.42,19.42,0,0,0,25.35,60C24.79,60.3,24.28,60.67,23.74,61Z"/></g></g></svg>