<svg xmlns="http://www.w3.org/2000/svg" viewBox="0 0 389.23 140.26"><defs><style>.cls-1{fill:#fff;}</style></defs><title>logo-horizontal</title><g id="Camada_2" data-name="Camada 2"><g id="Camada_1-2" data-name="Camada 1"><path class="cls-1" d="M140.23,65.44v8.33a2.34,2.34,0,0,0-.1.39c-.06.73-.06,1.47-.19,2.19-.29,1.72-.63,3.44-.95,5.16s-.61,3.5-1,5.23a52.41,52.41,0,0,1-2.24,7.61c-.93,2.34-1.91,4.67-2.95,7a36.51,36.51,0,0,1-2.07,3.83q-1.7,2.79-3.52,5.51a60.9,60.9,0,0,1-6.32,7.84c-1.41,1.5-2.91,2.91-4.44,4.28s-3,2.51-4.51,3.71a58.52,58.52,0,0,1-7.71,5c-1.66.92-3.37,1.78-5.09,2.58s-3.3,1.46-5,2.08a47.53,47.53,0,0,1-7,2.06c-2,.4-3.95.79-5.94,1.1-1.64.26-3.3.4-5,.58-1.25.13-2.49.26-3.74.32s-2.41,0-3.61,0c-1.63-.05-3.26-.15-4.89-.24-.69,0-1.39-.08-2.07-.17-1.25-.16-2.5-.34-3.74-.56-1.49-.26-3-.52-4.45-.85a60.81,60.81,0,0,1-8.11-2.4c-1.61-.61-3.22-1.24-4.79-1.95s-2.9-1.4-4.32-2.17-2.76-1.51-4.05-2.39c-1.9-1.29-3.78-2.63-5.59-4.05-1.55-1.22-3-2.54-4.47-3.9a55.84,55.84,0,0,1-5-5.33c-.89-1.1-1.86-2.14-2.68-3.28-1.57-2.18-3.07-4.4-4.57-6.63-.55-.82-1-1.71-1.48-2.56l.08-.1.32.12c1.47.66,2.9,1.4,4.41,1.95a18.87,18.87,0,0,0,7.91,1.16,22.8,22.8,0,0,0,4-.65,24.77,24.77,0,0,0,7.06-3.15,22,22,0,0,1,4.41-2.62c1.44-.5,2.9-.91,4.36-1.35,1.25-.38,2.52-.71,3.76-1.12a1.25,1.25,0,0,0,.87-1.37,1.45,1.45,0,0,0-1.42-1.11,8.87,8.87,0,0,0-.95.12l-1.35.22c.59-.31,1.22-.52,1.82-.78,1-.46,2.07-.95,3.1-1.45a1,1,0,0,0,.66-1,1.44,1.44,0,0,0-1.94-1.29c-1,.36-2,.79-3,1.18-.58.22-1.18.41-1.76.62a.5.5,0,0,1,.23-.26l5-3.15a1.22,1.22,0,0,0,.52-1.35,1.47,1.47,0,0,0-2.39-.77l-4.12,2.65c-.33.21-.67.4-1,.61.45-.53.93-1,1.42-1.5.89-.89,1.79-1.78,2.67-2.68a1.06,1.06,0,0,0,.1-1.41c-.52-.67-1-.82-1.61-.46a10.45,10.45,0,0,0-1.48,1c-1.46,1.19-2.89,2.4-4.34,3.6l-1.57,1.28c.06-.15.07-.18.09-.21l1.31-2c.33-.52.59-1.07.16-1.65-.58-.81-1.09-1.09-1.81-.55A5.77,5.77,0,0,0,32.13,89a9.59,9.59,0,0,1-.61,1.42,12.29,12.29,0,0,1-3,3.9,15.35,15.35,0,0,1-2.11,1.5A10.17,10.17,0,0,1,20,97a10.51,10.51,0,0,1-3-.87,11.86,11.86,0,0,1-4.22-3.24,13.8,13.8,0,0,1-2.27-3.83,14.14,14.14,0,0,1-1-6.92c.15-1.25.33-2.5.58-3.73a26,26,0,0,1,3.16-8,34.7,34.7,0,0,1,5.07-6.62c.73-.75,1.55-1.43,2.34-2.12a25.76,25.76,0,0,1,5.78-3.74l.63-.31a3,3,0,0,0-.89,0c-1.07.11-2.15.2-3.22.33a29.05,29.05,0,0,0-5.07,1.12,27.9,27.9,0,0,0-5.47,2.36A21.39,21.39,0,0,0,7.94,64.7a31.61,31.61,0,0,0-2.82,3.13A25.26,25.26,0,0,0,1.48,74.3c-.21.52-.43,1-.66,1.59A2.35,2.35,0,0,1,0,74.31c0-3.07,0-6.14.08-9.21a5.1,5.1,0,0,1,.09-.87c.29-1.54.57-3.07.88-4.6.4-2,.78-4.08,1.25-6.11a55,55,0,0,1,2.27-7.69c.85-2.17,1.77-4.32,2.71-6.46.5-1.13,1.08-2.22,1.69-3.3.74-1.33,1.52-2.66,2.33-3.95a55.31,55.31,0,0,1,4.82-6.6c1.3-1.51,2.6-3,4-4.45s2.91-2.82,4.41-4.18a37.58,37.58,0,0,1,2.93-2.42c1.57-1.16,3.17-2.29,4.8-3.36s3-1.87,4.6-2.72c1.37-.74,2.77-1.43,4.19-2C42.94,5.5,44.87,4.72,46.83,4a46.44,46.44,0,0,1,4.51-1.4q3.13-.8,6.31-1.42C59,.9,60.43.76,61.83.59S64.45.29,65.76.2c1-.07,2.07-.06,3.1-.09a1.45,1.45,0,0,0,.35-.1h3a.72.72,0,0,0,.23.1C74,.19,75.61.25,77.2.35c.88.05,1.76.12,2.62.25,1.44.21,2.88.46,4.31.72a56.84,56.84,0,0,1,7.68,2,51.83,51.83,0,0,1,7.24,2.89c2,1,4,2,5.92,3.14s3.75,2.38,5.57,3.64c1.21.84,2.37,1.77,3.51,2.7.88.71,1.74,1.46,2.57,2.24,1.34,1.27,2.66,2.58,4,3.89.31.31.56.67.84,1a.52.52,0,0,1-.39,0,17.87,17.87,0,0,0-7.18-1.59,35,35,0,0,0-3.87.08,11.44,11.44,0,0,0-2.47.37c-2.07.6-4.12,1.27-6.17,1.94a49.69,49.69,0,0,0-6.69,2.77,8.9,8.9,0,0,1-1.56.58c-1.61.44-3.23.84-4.83,1.29-1.27.35-2.55.7-3.8,1.15-1,.36-1.52,1.08-1.07,2.15a1.49,1.49,0,0,0,1.48,1c.82-.11,1.63-.23,2.44-.36L88.63,32a.61.61,0,0,1-.27.29c-1.77.94-3.56,1.87-5.32,2.84a26.2,26.2,0,0,0-4,2.33,1.5,1.5,0,0,0-.45,2,1.37,1.37,0,0,0,1.93.64l4.9-2.12c.42-.18.86-.34,1.29-.51-1.9,1.46-3.84,2.83-5.77,4.22a1.86,1.86,0,0,0-1,1.77,1.89,1.89,0,0,0,1,1.49,1.32,1.32,0,0,0,1.48-.2L87.46,41c.37-.27.76-.51,1.14-.76a4,4,0,0,1-.51.69c-1.2,1.29-2.39,2.57-3.6,3.85a1.77,1.77,0,0,0-.17,2.53,1.26,1.26,0,0,0,1.67.28c.37-.33.8-.58,1.15-.92.93-.89,1.83-1.82,2.74-2.73L91,42.87c-.29.59-.66,1.11-1,1.66a2.55,2.55,0,0,0-.57,1.71,1.63,1.63,0,0,0,.81,1.3,1.18,1.18,0,0,0,1.44-.12,15.28,15.28,0,0,0,1.78-1.93c.85-1.14,1.51-2.42,2.43-3.5a17.07,17.07,0,0,1,5-4.06,14.82,14.82,0,0,1,6.47-1.8,16.35,16.35,0,0,1,3.47.25,14.71,14.71,0,0,1,4.78,1.79,18.11,18.11,0,0,1,5.2,4.59,21,21,0,0,1,2.7,4.64,22.13,22.13,0,0,1,1.83,7.7,41.58,41.58,0,0,1-.15,4.82,18.54,18.54,0,0,1-.95,4.42,21.94,21.94,0,0,1-1.83,4.15,20.09,20.09,0,0,1-2.65,3.69A16.66,16.66,0,0,1,116,75.29a15,15,0,0,1-5.08,2l-1.12.21v.13c1-.07,2-.15,2.95-.21a21.47,21.47,0,0,0,4.55-.75,30.12,30.12,0,0,0,3.45-1.17,16.72,16.72,0,0,0,2.11-1.2,28.88,28.88,0,0,0,5.22-3.87c1.13-1.08,2.18-2.26,3.21-3.44a26.34,26.34,0,0,0,3.22-4.84,40,40,0,0,0,2.77-6.69,16.57,16.57,0,0,1,.71-1.62l.12,0c.27,1.5.54,3,.81,4.51q.56,3,1.13,6.09C140.1,64.81,140.17,65.13,140.23,65.44ZM23.74,61l0,.07.23,0a37.67,37.67,0,0,1,3.73-.59,24.22,24.22,0,0,1,5.44.28A40.77,40.77,0,0,1,38.54,62,81.3,81.3,0,0,1,50,66.81c2.25,1.09,4.48,2.24,6.74,3.32,2.65,1.27,5.32,2.49,8,3.71,1.13.52,2.27,1,3.44,1.46s2.68.85,4,1.23c1.84.53,3.69,1.06,5.55,1.53s3.68.9,5.53,1.29c1.65.34,3.3.63,5,.9,1.11.18,2.24.3,3.36.41,1.29.13,2.57.29,3.86.31,1.87,0,3.74,0,5.61-.08a29.86,29.86,0,0,0,3.5-.33c1.71-.27,3.41-.62,5.11-1,.87-.18,1.73-.44,2.59-.66l0-.12c-.37,0-.73.09-1.1.09-1.07,0-2.15,0-3.22-.08s-2.37-.15-3.54-.33a47,47,0,0,1-5-.95c-2.21-.59-4.4-1.28-6.56-2-2.69-.95-5.33-2-8-3-2.46-.95-4.92-1.91-7.37-2.87-2.12-.82-4.25-1.66-6.38-2.46-1.77-.67-3.54-1.35-5.34-1.94q-4.06-1.33-8.15-2.54-3.12-.93-6.28-1.71c-2.08-.52-4.17-1-6.26-1.44-1.19-.26-2.39-.45-3.59-.67-1-.19-2.08-.39-3.13-.55S36.12,58,35,57.89c-.65-.08-1.29-.17-1.94-.23a6,6,0,0,0-1.39,0A19.42,19.42,0,0,0,25.35,60C24.79,60.3,24.28,60.67,23.74,61Z"/><path class="cls-1" d="M219.78,27a7.34,7.34,0,0,1,2.54-.17,21.54,21.54,0,0,1,2.49.38,12.28,12.28,0,0,1,6.39,3.61,12.72,12.72,0,0,1,3.6,6.57A14.87,14.87,0,0,1,230.6,51.2a22.05,22.05,0,0,1-6.1,4.17,21.81,21.81,0,0,1-6.11,1.91,49.62,49.62,0,0,1-6.37.56q-2.89,0-5.74-.23t-5.67-.71q-.34,5.14-1,10.17T198.1,77.2q-.9,4.7-2.18,9.39a71,71,0,0,1-3.17,9.11,39.33,39.33,0,0,1-2.06,4.1,23.35,23.35,0,0,1-2.61,3.66,19,19,0,0,1-3.42,3.34,10.33,10.33,0,0,1-4.38,2,1.93,1.93,0,0,1-1.28-.18,2.72,2.72,0,0,1-1-.83,2.31,2.31,0,0,1-.43-1.21,2.14,2.14,0,0,1,1.32-2.09q.58-.23,1.15-.49a8.16,8.16,0,0,0,1.19-.5,7.81,7.81,0,0,0,1.15-.73,16.66,16.66,0,0,0,4.2-5,41.43,41.43,0,0,0,2.7-5.86,73.06,73.06,0,0,0,4.08-14.16q1.33-7.31,2.1-14.71.39-3.27.63-6.91a34.22,34.22,0,0,0-6.79-.22,24.17,24.17,0,0,0-6.64,1.39,13.76,13.76,0,0,0-3.21,1.55A7.79,7.79,0,0,0,177,61.43a6.65,6.65,0,0,0-1,3.36,8,8,0,0,0,.63,3.51A10.15,10.15,0,0,0,178.47,71a4.43,4.43,0,0,0,3,1.42,2.23,2.23,0,0,0,.86,0l.83-.16.76-.3a2.16,2.16,0,0,1,.79-.15,2.62,2.62,0,0,1,1.33.41,1.93,1.93,0,0,1,.84,1.13,2.31,2.31,0,0,1,0,1.48,2.59,2.59,0,0,1-.81,1.05,3.75,3.75,0,0,1-1.28.67,13.44,13.44,0,0,1-1.38.34,8.17,8.17,0,0,1-3.73-.14,11.16,11.16,0,0,1-3.38-1.54A12.2,12.2,0,0,1,172,69.16a12.4,12.4,0,0,1-.2-7.37,12,12,0,0,1,3.95-5.86,16.5,16.5,0,0,1,6.33-3.2,26.57,26.57,0,0,1,7.37-.83q3.72.11,7.39.5l.8.08.6-.12a2,2,0,0,1,1.32.37q2.55.29,5,.48a44.41,44.41,0,0,0,5,.09,25.86,25.86,0,0,0,3.93-.44,12.6,12.6,0,0,0,3.68-1.33,14.79,14.79,0,0,0,3.71-3,16.14,16.14,0,0,0,2-2.76,9.71,9.71,0,0,0,1.16-3.3,6.2,6.2,0,0,0-.48-3.3,10.05,10.05,0,0,0-1.86-2.8,8.81,8.81,0,0,0-1.72-1.46,19.79,19.79,0,0,1-1.86-1.36A3.94,3.94,0,0,1,217,30.95a3.41,3.41,0,0,1,.83-2.62A4.08,4.08,0,0,1,219.78,27Z"/><path class="cls-1" d="M216.4,95.8a21.48,21.48,0,0,1-4.32-.68,18.33,18.33,0,0,1-4.93-2.07,15.24,15.24,0,0,1-1.81-1.33,8.58,8.58,0,0,1-2.89-4.46,7.27,7.27,0,0,1-.22-3.31,11.43,11.43,0,0,1,1.64-4.29,14.83,14.83,0,0,1,3.49-3.83,18.83,18.83,0,0,1,6-3.21,21.35,21.35,0,0,1,7.23-1,3.32,3.32,0,0,1,2.14.67,2.07,2.07,0,0,1,.91,1.55,1.84,1.84,0,0,1-1,1.44,3.73,3.73,0,0,1-2.23.47,10.74,10.74,0,0,0-4.91.75,12.28,12.28,0,0,0-3.19,1.9,11.77,11.77,0,0,0-2.62,3,8.44,8.44,0,0,0-1.22,3.48,4.38,4.38,0,0,0-.09,1.24A5.5,5.5,0,0,0,208.8,88a5.85,5.85,0,0,0,1.34,2,5.73,5.73,0,0,0,2.79,1.39,8.7,8.7,0,0,0,6.46-.88l1.11-.78A16,16,0,0,1,216.14,87c-2.2-2-3-4-2.51-6.2a5.4,5.4,0,0,1,2.77-3.32,9,9,0,0,1,2.3-.88,10.63,10.63,0,0,1,2.68-.31,8.67,8.67,0,0,1,4.71,1.17,6.41,6.41,0,0,1,3,3.25,10.51,10.51,0,0,1,.07,6.13,4.32,4.32,0,0,0,1.53-1,5.71,5.71,0,0,0,1.18-2,2.18,2.18,0,0,1,1.43-1.27,3.91,3.91,0,0,1,2.35-.12,3.11,3.11,0,0,1,1.86,1.2,1.93,1.93,0,0,1,.35,1.79,7.7,7.7,0,0,1-2.43,3.86A9.94,9.94,0,0,1,232.26,91a14,14,0,0,1-5.47.57q-.64.66-1.29,1.28a9.22,9.22,0,0,1-1.43,1.11A10.14,10.14,0,0,1,219,95.7,14.09,14.09,0,0,1,216.4,95.8Zm5.23-15.35a3,3,0,0,0-1.1.32,1.24,1.24,0,0,0-.69,1.06,2.33,2.33,0,0,0,.47,2.42,7,7,0,0,0,2.58,1.88l0-.14a7.18,7.18,0,0,0,.51-2.47,5.36,5.36,0,0,0-.31-2.07,1.26,1.26,0,0,0-1.21-1Z"/><path class="cls-1" d="M246.95,95.81a20.3,20.3,0,0,1-4.83-.54,13.36,13.36,0,0,1-6.85-3.93,10.56,10.56,0,0,1-2.7-6.73,9.64,9.64,0,0,1,.1-2.61,15.81,15.81,0,0,1,.71-2.66,16.05,16.05,0,0,1,2.68-5,17.14,17.14,0,0,1,4.66-4.66,14.55,14.55,0,0,1,5.63-2.28,8.61,8.61,0,0,1,4.31.28,6.09,6.09,0,0,1,3.28,2.2,5.65,5.65,0,0,1,1.19,4.68,9.66,9.66,0,0,1-2.66,5.24,3.2,3.2,0,0,1-2,.89,3.39,3.39,0,0,1-2.27-.54,2.45,2.45,0,0,1-1.29-1.66,1.87,1.87,0,0,1,.57-1.77A5.52,5.52,0,0,0,249,74.15a2,2,0,0,0-.28-1.6,1.07,1.07,0,0,0-1.16-.42,6.66,6.66,0,0,0-3.08,1.41,13.24,13.24,0,0,0-2.85,3.11,14.59,14.59,0,0,0-2.8,8.4A6.52,6.52,0,0,0,239,86.7a6.28,6.28,0,0,0,.66,1.64,4.64,4.64,0,0,0,1.27,1.39,5.38,5.38,0,0,0,2,.9c4,.85,7.54-.23,10.72-3.55A16.27,16.27,0,0,0,256.58,83c.61-1.28.94-2,1-2a2.38,2.38,0,0,1,1.51-1.4,3.61,3.61,0,0,1,2.35,0A3.13,3.13,0,0,1,263.26,81a2.47,2.47,0,0,1,.29,2,5.78,5.78,0,0,0-.39.81c-.21.47-.51,1.08-.9,1.8s-.87,1.53-1.44,2.4a14.16,14.16,0,0,1-2.12,2.54,16.63,16.63,0,0,1-3,2.69,14.5,14.5,0,0,1-3.4,1.74A17.86,17.86,0,0,1,246.95,95.81Z"/><path class="cls-1" d="M267.83,95.16a10.28,10.28,0,0,1-4.29-.82,9.28,9.28,0,0,1-5.13-5,11.31,11.31,0,0,1-.77-6.21,24.19,24.19,0,0,1,1.77-6.26,33.24,33.24,0,0,1,3.48-6.29,28,28,0,0,1,4.67-5.23,14.76,14.76,0,0,1,6.24-3.15,13.78,13.78,0,0,1,9.47,1.5,8.91,8.91,0,0,1,2,1.54q.55.64,1.22,1.32a2.56,2.56,0,0,1,.56,2.28,3.21,3.21,0,0,1-1.23,1.8,3.29,3.29,0,0,1-2.2.6,3.12,3.12,0,0,1-2.29-1.38l-.24-.15-.1,0a10.56,10.56,0,0,0-1.41-1.22,6.52,6.52,0,0,0-8,1.07,20.09,20.09,0,0,0-3.39,3.88,31.81,31.81,0,0,0-2.83,5.1,19.15,19.15,0,0,0-1.56,5.51,7.76,7.76,0,0,0-.07,1.32,8.24,8.24,0,0,0,.2,1.62,5.22,5.22,0,0,0,.6,1.55,2.33,2.33,0,0,0,1.2,1,1.31,1.31,0,0,0,.71.18,2.62,2.62,0,0,0,1-.21,9,9,0,0,0,2.84-2,23.54,23.54,0,0,0,4.14-6.31q.56-1.31,1.1-2.5a18.56,18.56,0,0,0,.85-2.2l.47-1.52a9.35,9.35,0,0,1,.59-1.45,2.93,2.93,0,0,1,2.15-1.83l.41-.07a1.23,1.23,0,0,0,.53,0,.75.75,0,0,1,.55.1l.1,0c0,.06.09.08.22.06a3.27,3.27,0,0,1,1.66,1.41,2.92,2.92,0,0,1,.35,2.24l-1.15,3.16a22.37,22.37,0,0,0-.74,5.66,8.49,8.49,0,0,0,.82,4.08,1.32,1.32,0,0,0,.3.47l.24.18a2,2,0,0,0,.49.1,1.43,1.43,0,0,0,.74-.22,7.93,7.93,0,0,0,2.21-2.25,22.33,22.33,0,0,0,2.27-4.14c.6-1.58,1-2.85,1.36-3.79l.5-1.73a2.88,2.88,0,0,1,1.43-1.84,3,3,0,0,1,2.35-.35,3.08,3.08,0,0,1,1.9,1.42,3.21,3.21,0,0,1,.41,2.42,17.89,17.89,0,0,1-.57,2c-.39,1.26-.91,2.74-1.56,4.43-2.06,4.89-4.43,7.88-7.09,9.1a6.43,6.43,0,0,1-2.64.8,7.08,7.08,0,0,1-3.2-.48,8.13,8.13,0,0,1-4.73-4,1.65,1.65,0,0,1-.34-.65l-.25.31a14,14,0,0,1-5.79,4.48A8.26,8.26,0,0,1,267.83,95.16ZM281.1,69.68c0,.13.07.18.14.17S281.12,69.81,281.1,69.68Z"/><path class="cls-1" d="M289,103.68a3.42,3.42,0,0,1-2.2-.79,3.29,3.29,0,0,1-1.32-2,2.36,2.36,0,0,1,.35-2.19,2.84,2.84,0,0,1,1.9-1.07Q294.37,96.89,301,96q1.12-3.23,2.23-6.53a9.16,9.16,0,0,1-6.52-.33,9.41,9.41,0,0,1-5.19-5.36,14.41,14.41,0,0,1-.8-6.83,27.05,27.05,0,0,1,1.7-6.73,37.15,37.15,0,0,1,3.41-6.79,27.12,27.12,0,0,1,5.18-6.1,13.42,13.42,0,0,1,5.58-3,12.2,12.2,0,0,1,5.49-.08,11.81,11.81,0,0,1,3.53,1.5,8.13,8.13,0,0,1,2,2.06c.44.7.71,1.11.8,1.24a3.35,3.35,0,0,1,.61,2.87,3.19,3.19,0,0,1-1.53,1.88,3.48,3.48,0,0,1-2.43.34A3.12,3.12,0,0,1,313,62.31a1.69,1.69,0,0,0-.35-.48,4.14,4.14,0,0,0-.93-.74,5,5,0,0,0-1.64-.56,6,6,0,0,0-2.47.16,6.36,6.36,0,0,0-3.16,1.91,24.58,24.58,0,0,0-3.36,4.18,30.29,30.29,0,0,0-2.71,5.54,22.5,22.5,0,0,0-1.35,5.4,10.4,10.4,0,0,0,.1,3.33,2.81,2.81,0,0,0,1.68,2.27,2.35,2.35,0,0,0,2.38-.12,8.25,8.25,0,0,0,3.16-2.76,29,29,0,0,0,3.18-5.62c.89-2.09,1.61-3.95,2.16-5.56l.52-1.8a3.7,3.7,0,0,1,1.6-2,2.76,2.76,0,0,1,2.34-.25A2.63,2.63,0,0,1,316,66.77a3.92,3.92,0,0,1,.3,2.58c-.14,0-.37.73-.69,2.1q-2.37,7.84-4.74,15.37,1.23-1.29,2.41-2.61a16.84,16.84,0,0,0,2.14-3,27.34,27.34,0,0,0,1.78-3.94,35.53,35.53,0,0,0,1.44-5.38,3.37,3.37,0,0,1,1.33-2.09,2.79,2.79,0,0,1,2.35-.45,3,3,0,0,1,1.9,1.54,3.61,3.61,0,0,1,.39,2.6,44.11,44.11,0,0,1-1.79,6.81,31.5,31.5,0,0,1-2.62,5.54,32.5,32.5,0,0,1-2.88,3.9,35.14,35.14,0,0,1-3.1,3.14l-1.6,1.55,5.16-.81a3.1,3.1,0,0,1,2.3.66,3.9,3.9,0,0,1,1.43,2.3,3.18,3.18,0,0,1-.35,2.51,2.84,2.84,0,0,1-2,1.36q-6.18.8-12.36,1.45a40,40,0,0,0-2.71,5.55q-.93,2.83-1.86,5.62l-.59,1.85a2.2,2.2,0,0,1-2.34,1.73,4.49,4.49,0,0,1-3.39-2.35,3.3,3.3,0,0,1-.14-2.43l.48-1.28a1.5,1.5,0,0,1,.09-.64l1-3.11q.49-1.51,1.05-2.92l.42-1.09q-4.8.47-9.61.85Z"/><path class="cls-1" d="M328.88,89.17a5.19,5.19,0,0,1-1.09,0,5,5,0,0,1-1.13-.2,8.29,8.29,0,0,1-6-4.66c-2.32-4.18-2.4-10.79-.23-20.34q1-5,2.16-8.73c.75-2.45,1.18-3.79,1.29-4a3.25,3.25,0,0,1,1.57-2.07,2.81,2.81,0,0,1,2.43-.19,2.87,2.87,0,0,1,1.75,1.78,4.09,4.09,0,0,1,0,2.8,31.31,31.31,0,0,0-1.16,3.59q-1.06,3.55-2,8.34c-.54,2.69-.9,4.93-1.08,6.76a38.42,38.42,0,0,0-.24,4.52,11.74,11.74,0,0,0,.31,2.75,5.15,5.15,0,0,0,.55,1.4A1.72,1.72,0,0,0,327.38,82a2.3,2.3,0,0,0,1.76-.79,12.5,12.5,0,0,0,2.16-2.83,55.77,55.77,0,0,0,5-12.29q.93-3.4,1.86-6.84.11-.65.23-1.19t.33-1.22q.53-2.66,1.12-5.29t1-5.3a4.45,4.45,0,0,1,1.37-2.47,2.56,2.56,0,0,1,2.29-.76,2.88,2.88,0,0,1,2,1.48,3.84,3.84,0,0,1,.44,2.77c0,.19-.3,1.61-.77,4.24s-1.16,5.84-2,9.58l-1.12,5.65q-.53,2.68-.81,4.9a22.32,22.32,0,0,0-.32,5,4.28,4.28,0,0,0,.44,1.75c0,.25.23.38.59.39s.9-.26,1.62-1.1A18,18,0,0,0,346.87,73a35.08,35.08,0,0,0,2-5.66c.43-1.76.64-2.68.63-2.77A4.1,4.1,0,0,1,351,62.26a2.33,2.33,0,0,1,2.33-.36,2.68,2.68,0,0,1,1.91,1.75,5.18,5.18,0,0,1,.3,3c-.06.1-.33,1.18-.84,3.21a51.11,51.11,0,0,1-2.2,6.67,41.1,41.1,0,0,1-1.88,3.88,22.2,22.2,0,0,1-1.91,2.92,7.42,7.42,0,0,1-3.86,2.84,5.69,5.69,0,0,1-3,0,7.54,7.54,0,0,1-4.82-3.93l0-.24-.51.72a17.55,17.55,0,0,1-1.89,2.87,12.28,12.28,0,0,1-2,2A8,8,0,0,1,328.88,89.17Z"/><path class="cls-1" d="M361.21,84.33a4.66,4.66,0,0,1-2.42-.06,8.61,8.61,0,0,1-5.11-2.2,11.86,11.86,0,0,1-2.59-3.56c-1.67-3.59-2-8.4-.88-14.61a63.75,63.75,0,0,1,2-8.83q1.3-4.34,2.52-7.53a3.71,3.71,0,0,1,1.68-2.28,2.24,2.24,0,0,1,2.36,0,3.27,3.27,0,0,1,1.65,2,4.75,4.75,0,0,1-.11,3.16q-1.51,4.14-2.49,7.84t-1.55,6.93a23.74,23.74,0,0,0-.39,6.51,14.84,14.84,0,0,0,.65,2.92,3.55,3.55,0,0,0,.85,1.08,4,4,0,0,0,1.85.73,2.1,2.1,0,0,0,.84-.05,5.16,5.16,0,0,0,3.11-2.83,34.44,34.44,0,0,0,2.15-4.44q.6-1.67,1.14-3.41c.36-1.16.65-2.19.87-3.08q.4-1.64.73-3a4.32,4.32,0,0,1,1.38-2.57,2.38,2.38,0,0,1,2.3-.62,3,3,0,0,1,1.9,1.76,5,5,0,0,1,.39,3.08,7.43,7.43,0,0,1-.2,1.19q-.22,1.06-.58,2.64c-.24,1.06-.56,2.25-1,3.58s-.87,2.67-1.38,4c-1.59,4.14-3.22,7-4.91,8.66A9.94,9.94,0,0,1,361.21,84.33Zm3.73-47.87a2.33,2.33,0,0,1-2-.24,3.41,3.41,0,0,1-1.6-2.07,5,5,0,0,1,.17-3.13l1.18-2.91a4.66,4.66,0,0,1,1.8-2.36,2,2,0,0,1,2.26-.08,3,3,0,0,1,1.66,2.12,5.15,5.15,0,0,1-.23,3.16l-1.06,3A4,4,0,0,1,364.94,36.46Z"/><path class="cls-1" d="M378,84.92a2.16,2.16,0,0,1-.57.05,4,4,0,0,1-.59-.09,3.87,3.87,0,0,1-2-1.93,4.61,4.61,0,0,1-.49-3.09l.36-2.64a4.07,4.07,0,0,1,1.25-2.72,2.45,2.45,0,0,1,2.27-.71,3.66,3.66,0,0,1,2,1.82,5.39,5.39,0,0,1,.6,3.19l-.36,2.69Q380,84.49,378,84.92Zm3-22.43a2.11,2.11,0,0,1-.57.09,3.35,3.35,0,0,1-.59,0,3.48,3.48,0,0,1-2-1.73,4.72,4.72,0,0,1-.5-3.16q2.89-22.75,5.77-46.35a5.73,5.73,0,0,1,1.19-3.11A2.62,2.62,0,0,1,386.61,7a2.77,2.77,0,0,1,2,1.45,4.67,4.67,0,0,1,.58,3q-2.88,24.1-5.76,47.36Q383,61.91,381,62.5Z"/></g></g></svg>