<svg xmlns="http://www.w3.org/2000/svg" viewBox="0 0 156.33 130.77"><defs><style>.cls-1{fill:#ff276c;}.cls-2{fill:#fff;}</style></defs><title>nome-usuario-icon</title><g id="Camada_2" data-name="Camada 2"><g id="icones2"><path class="cls-1" d="M142.63,24.15a12.6,12.6,0,0,1,11,6.34,12.91,12.91,0,0,1,1.64,6.44l.1,6.43.34,25.71.34,25.71.17,12.85.08,6.43c0,.55,0,1,0,1.63a14,14,0,0,1-1.12,5.36,13.89,13.89,0,0,1-11.42,8.27c-1.31.1-2.27.07-3.37.09l-3.21,0-6.43.07-25.71.26-51.42.52-25.71.3-6.43.09-3.21,0-1.61,0c-.55,0-1,0-1.76,0a15.23,15.23,0,0,1-7.75-2.43,15.54,15.54,0,0,1-5.43-6.07,15.14,15.14,0,0,1-1.33-3.92,14.43,14.43,0,0,1-.25-2.06c-.05-.76,0-1.25,0-1.78l0-6.43L0,95.21C0,86.64.06,78.07.14,69.5L.56,43.79.7,37.37l0-.8.06-1a15.35,15.35,0,0,1,.28-2,14.9,14.9,0,0,1,1.37-3.72,14.84,14.84,0,0,1,5.31-5.69,15.25,15.25,0,0,1,3.57-1.58,14.66,14.66,0,0,1,3.84-.55H16l.8,0,1.61,0,3.21.09,6.43.2,12.85.47c8.57.37,17.14.72,25.71,1.25a.35.35,0,0,1,0,.7c-8.57.53-17.14.88-25.71,1.25l-12.85.47L15.31,27A9.49,9.49,0,0,0,7.43,32.4a9.23,9.23,0,0,0-.74,2.33,9.57,9.57,0,0,0-.11,1.21v.62l0,.8.14,6.43L7.14,69.5c.08,8.57.15,17.14.14,25.71l-.08,12.85,0,6.43c0,.54,0,1.12,0,1.43a7.5,7.5,0,0,0,.11,1.13A8.19,8.19,0,0,0,8,119.21a8.63,8.63,0,0,0,7.26,5c.32,0,.93,0,1.45,0l1.61,0,3.21,0,6.43.09,25.71.3,51.42.52,25.71.26,6.43.07,3.21,0c1,0,2.23,0,3.06,0a10.26,10.26,0,0,0,8.53-5.94,10.59,10.59,0,0,0,.94-4c0-.49,0-1.06,0-1.58l.08-6.43.17-12.85.34-25.71.34-25.71.1-6.43a11.53,11.53,0,0,0-11.37-12.08.35.35,0,0,1,0-.7Z"/><path class="cls-1" d="M142.64,129h-127a13.51,13.51,0,0,1-13.5-13.5V36.25a13.52,13.52,0,0,1,13.5-13.5l50,.25a1.5,1.5,0,0,1,0,3h0l-50-.25A10.51,10.51,0,0,0,5.14,36.25V115.5A10.51,10.51,0,0,0,15.64,126h127a10.51,10.51,0,0,0,10.5-10.5v-79A10.51,10.51,0,0,0,142.64,26h-49a1.5,1.5,0,0,1,0-3h49a13.52,13.52,0,0,1,13.5,13.5v79A13.51,13.51,0,0,1,142.64,129Z"/><path class="cls-1" d="M47.6,45.14c-.36,0-.73,0-1.09,0s-.73,0-1.09,0a18.44,18.44,0,1,0,0,36.87c.37,0,.73,0,1.09,0s.73,0,1.09,0a18.44,18.44,0,1,0,0-36.87Zm6.74,33.41A16.26,16.26,0,0,1,47.6,80q-.54,0-1.09,0a16.42,16.42,0,0,1,0-32.76q.54,0,1.09,0a16.25,16.25,0,0,1,6.78,1.47,16.48,16.48,0,0,1,8.18,8.18,16.4,16.4,0,0,1,0,13.5A16.48,16.48,0,0,1,54.33,78.54Z"/><path d="M20.73,97.34a5.88,5.88,0,0,0-.09,3.9,3.81,3.81,0,0,1-.21-3.19c.21-.56.44-1.12.67-1.67C21,96.7,20.85,97,20.73,97.34Z"/><path class="cls-1" d="M74.8,100A5.79,5.79,0,0,0,74.45,97a36.74,36.74,0,0,0-10.08-14.9,5.87,5.87,0,0,0-5-1.34,5.66,5.66,0,0,0-3.86.61A20.67,20.67,0,0,1,46.51,84a20.61,20.61,0,0,1-9.06-2.61,5.66,5.66,0,0,0-3.86-.61,5.89,5.89,0,0,0-5,1.34A36.79,36.79,0,0,0,18.56,97a5.79,5.79,0,0,0-.34,2.93A5.9,5.9,0,0,0,24,105H69A5.9,5.9,0,0,0,74.8,100Zm-2.42,1c-.07.13-.15.27-.24.4a3.81,3.81,0,0,1-2.25,1.56,4,4,0,0,1-.91.1H26.34a4,4,0,0,1-2.82-1.1,3.83,3.83,0,0,1-.9-4.12,34.77,34.77,0,0,1,9.52-14.13,3.94,3.94,0,0,1,1.44-.79,3.87,3.87,0,0,1,1.1-.16,3.58,3.58,0,0,1,1.79.46,22.7,22.7,0,0,0,10,2.88c.36,0,.73,0,1.09,0a22.76,22.76,0,0,0,11.14-2.9,3.38,3.38,0,0,1,.7-.3,3.68,3.68,0,0,1,2,0,4,4,0,0,1,1.63.85,33.89,33.89,0,0,1,8.67,12l.18.43c.24.54.46,1.1.67,1.67A3.8,3.8,0,0,1,72.38,100.94Z"/><path class="cls-2" d="M62.58,70.3a18.36,18.36,0,0,0,0-13.5,16.4,16.4,0,0,1,0,13.5Z"/><line class="cls-1" x1="84.64" y1="56.5" x2="140.64" y2="56.5"/><path class="cls-1" d="M140.64,59h-56a2.5,2.5,0,0,1,0-5h56a2.5,2.5,0,0,1,0,5Z"/><line class="cls-1" x1="84.64" y1="76.5" x2="140.64" y2="76.5"/><path class="cls-1" d="M140.64,79h-56a2.5,2.5,0,0,1,0-5h56a2.5,2.5,0,0,1,0,5Z"/><line class="cls-1" x1="84.64" y1="95.5" x2="140.64" y2="95.5"/><path class="cls-1" d="M140.64,98h-56a2.5,2.5,0,0,1,0-5h56a2.5,2.5,0,0,1,0,5Z"/><path class="cls-1" d="M79.64,36a10.51,10.51,0,0,1-10.5-10.5v-15a10.5,10.5,0,0,1,21,0v15A10.51,10.51,0,0,1,79.64,36Zm0-33a7.51,7.51,0,0,0-7.5,7.5v15a7.5,7.5,0,0,0,15,0v-15A7.51,7.51,0,0,0,79.64,3Z"/></g></g></svg>