<svg xmlns="http://www.w3.org/2000/svg" viewBox="0 0 169.88 208.19"><defs><style>.cls-1{fill:none;stroke:#fff9ee;stroke-miterlimit:10;stroke-width:5px;}.cls-2{fill:#fff9ee;}.cls-3{fill:#fff;}</style></defs><title>outras_ideias</title><g id="Camada_2" data-name="Camada 2"><g id="ícones"><path class="cls-1" d="M125.3,177.54H70a5,5,0,0,0-4.76,6.55A30.1,30.1,0,0,0,93.63,204.5h8a30.1,30.1,0,0,0,28.43-20.41A5,5,0,0,0,125.3,177.54Z"/><path class="cls-1" d="M167.38,72.25A69.75,69.75,0,1,0,45.32,118.37,72.55,72.55,0,0,1,59.59,143h-.06a5.31,5.31,0,0,0-3.76,1.56,5.24,5.24,0,0,0-1.56,3.75,5.32,5.32,0,0,0,5.32,5.32h76.2a5.32,5.32,0,0,0,0-10.63,77.38,77.38,0,0,1,14.64-25.17A69.42,69.42,0,0,0,167.38,72.25Z"/><path class="cls-1" d="M135.73,160.21H59.53a5.31,5.31,0,0,0-3.76,1.56,5.24,5.24,0,0,0-1.56,3.75,5.32,5.32,0,0,0,5.32,5.32h76.2a5.32,5.32,0,1,0,0-10.63Z"/><path class="cls-2" d="M125.3,177.54q-9.81,0-19.62.61c-6.54.39-13.08,1-19.62,1.63l-9.81.9-4.9.4-1.23.09H70l-.05,0-.09,0c-.06,0-.1.05-.15.07a1.45,1.45,0,0,0-.46.39.91.91,0,0,0-.13.91s0,.06,0,.09,0,0,.09.22.27.65.41,1c.29.64.61,1.26.93,1.88a28.45,28.45,0,0,0,5,6.7,27.42,27.42,0,0,0,6.66,5,28.8,28.8,0,0,0,7.91,2.91c.7.1,1.4.28,2.12.35s1.39.18,2.25.23l4.9.39,2.43.21c.74,0,1.49.13,2.23.12s1.5,0,2.25-.06l1.13-.09,1.12-.16a27,27,0,0,0,16.2-8.74c.51-.62,1.06-1.21,1.52-1.87l.72-1,.64-1a24.54,24.54,0,0,0,2.18-4.35,4.82,4.82,0,0,0-.37-4.6A5,5,0,0,0,125.3,177.54Zm0,0a5,5,0,0,1,4.19,2.19,5.26,5.26,0,0,1,.89,2.29,5.43,5.43,0,0,1-.29,2.47,34.62,34.62,0,0,1-4.37,8.89,33.23,33.23,0,0,1-6.94,7.35,31.14,31.14,0,0,1-9.11,5l-1.26.43-1.28.35c-.86.26-1.73.4-2.61.57s-1.77.24-2.67.36-1.65.16-2.47.23l-4.9.39c-.78.07-1.73.09-2.65.12s-1.84-.06-2.76-.09a31.65,31.65,0,0,1-19.91-9.29,34.15,34.15,0,0,1-3.6-4.33c-.54-.77-1-1.58-1.49-2.39s-.89-1.65-1.28-2.49a26.87,26.87,0,0,1-1.05-2.6q-.23-.66-.44-1.33c-.05-.16-.17-.6-.25-1a7.55,7.55,0,0,1-.18-1.12,8.87,8.87,0,0,1,3.36-7.82,8.59,8.59,0,0,1,3.9-1.74,7.57,7.57,0,0,1,1.06-.11h.93l1.23.09,4.9.4,9.81.9c6.54.61,13.08,1.24,19.62,1.63S118.76,177.53,125.3,177.54Z"/><path class="cls-2" d="M167.38,72.25a67.8,67.8,0,0,0-9.93-35.42A67.94,67.94,0,0,0,77.71,8,67.3,67.3,0,0,0,38.88,42.42a67.71,67.71,0,0,0-6.42,34.06,66.34,66.34,0,0,0,11.26,32.59l1.24,1.8,1.32,1.74c.43.59.9,1.14,1.37,1.7l1.46,1.75A73.17,73.17,0,0,1,55,124a76,76,0,0,1,8.39,17.77l1.82,5.66-5.61-.36a1.35,1.35,0,0,0-.87.2,1.43,1.43,0,0,0-.57.68,1.56,1.56,0,0,0,.52,1.75,1.41,1.41,0,0,0,.45.24,1.61,1.61,0,0,0,.25.07l.14,0h.39l3.43.09,6.85.17q13.71.32,27.41.76l27.41.82,6.85.21,3.43.1H136a3.76,3.76,0,0,0,1.78-.51,4,4,0,0,0,1.85-4.45,4.2,4.2,0,0,0-3.93-3.13l-1.5,0,.51-1.36a80,80,0,0,1,9.35-17.59,85.18,85.18,0,0,1,6.19-7.76,69.71,69.71,0,0,0,6-7.81c.92-1.36,1.74-2.78,2.57-4.2s1.55-2.9,2.22-4.4a67.11,67.11,0,0,0,3.5-9.21,69.67,69.67,0,0,0,2.12-9.63A77.52,77.52,0,0,0,167.38,72.25Zm0,0a77.56,77.56,0,0,1-.67,9.85,75.77,75.77,0,0,1-2,9.66,71.51,71.51,0,0,1-13.77,26.11,81.68,81.68,0,0,0-5.83,7.9,73.77,73.77,0,0,0-8.34,17.62l-1-1.4a6.49,6.49,0,0,1,6.27,4.56,6.59,6.59,0,0,1-.09,4.17,6.72,6.72,0,0,1-4.59,4.2,6.56,6.56,0,0,1-1.07.2l-.54,0h-.43l-3.43.1-6.85.21-27.41.82q-13.71.43-27.41.76l-6.85.17-3.43.09h-.47l-.72,0a9,9,0,0,1-1.43-.23,8.82,8.82,0,0,1-2.68-1.12A9,9,0,0,1,51,151.5,9.16,9.16,0,0,1,54,140.9,9.33,9.33,0,0,1,59.59,139l-3.8,5.3a70.49,70.49,0,0,0-8-15.63,67.6,67.6,0,0,0-5.35-6.93L40.91,120c-.54-.63-1.08-1.25-1.58-1.9l-1.53-2-1.44-2a73,73,0,0,1-8.93-17.65,70,70,0,0,1-2.57-9.58c-.35-1.62-.56-3.26-.81-4.89s-.39-3.28-.44-4.94a72.93,72.93,0,0,1,8.21-38.17A71.65,71.65,0,0,1,76.25,3.18a72.9,72.9,0,0,1,19-2.57,71.61,71.61,0,0,1,18.88,2.45,70.79,70.79,0,0,1,17.47,7.21A72.8,72.8,0,0,1,157.84,36.6,78,78,0,0,1,162,45a72.33,72.33,0,0,1,5.39,27.28Z"/><path class="cls-2" d="M135.73,160.21q-11.61,0-23.23.61c-7.74.39-15.48,1-23.23,1.63S73.79,163.69,66,164.08c-1.94.09-3.87.21-5.81.27l-.72,0-.16,0a1,1,0,0,0-.27.13,1.39,1.39,0,0,0-.39.43.94.94,0,0,0,.82,1.36q11.61,0,23.23.6c7.74.39,15.48,1,23.23,1.63s15.48,1.25,23.23,1.64c1.94.09,3.87.21,5.81.27a10.54,10.54,0,0,0,1.41,0,5,5,0,0,0,3.52-2,5.16,5.16,0,0,0,.46-5.39A5.34,5.34,0,0,0,135.73,160.21Zm0,0a5.38,5.38,0,0,1,4.76,2.85,5.46,5.46,0,0,1-.28,5.62,5.81,5.81,0,0,1-2.25,1.95,5.52,5.52,0,0,1-1.45.46,11.07,11.07,0,0,1-1.49.11c-1.94.06-3.87.18-5.81.27-7.74.39-15.48,1-23.23,1.64s-15.48,1.25-23.23,1.63-15.48.6-23.23.6A9.82,9.82,0,0,1,50.86,170,9.67,9.67,0,0,1,51.64,160a9.52,9.52,0,0,1,6.57-3.85,9.68,9.68,0,0,1,1.29-.06l.73,0c1.94.06,3.87.18,5.81.27,7.74.39,15.48,1,23.23,1.63s15.48,1.24,23.23,1.63S128,160.2,135.73,160.21Z"/><path class="cls-3" d="M0,183.71a27.1,27.1,0,0,0,1.9-10A27,27,0,0,0,0,163.61a24.25,24.25,0,0,1,2.18,10.08A24.31,24.31,0,0,1,0,183.71Z"/><path class="cls-3" d="M98.63,118.13a9.93,9.93,0,0,1-9.92-9.92V90.82A4.81,4.81,0,0,0,83.9,86H66.5a9.92,9.92,0,0,1,0-19.85H83.9a4.81,4.81,0,0,0,4.81-4.81V44a9.92,9.92,0,0,1,19.84,0V61.35a4.81,4.81,0,0,0,4.81,4.81h17.4a9.93,9.93,0,0,1,9.92,9.92h0A9.93,9.93,0,0,1,130.76,86h-17.4a4.81,4.81,0,0,0-4.81,4.81v17.39A9.93,9.93,0,0,1,98.63,118.13ZM66.5,71.27a4.81,4.81,0,0,0,0,9.63H83.9a9.93,9.93,0,0,1,9.92,9.92v17.39a4.81,4.81,0,0,0,9.62,0V90.82a9.93,9.93,0,0,1,9.92-9.92h17.4a4.81,4.81,0,0,0,4.81-4.81h0a4.81,4.81,0,0,0-4.81-4.81h-17.4a9.93,9.93,0,0,1-9.92-9.92V44a4.81,4.81,0,1,0-9.62,0V61.35a9.93,9.93,0,0,1-9.92,9.92Z"/></g></g></svg>