<svg xmlns="http://www.w3.org/2000/svg" viewBox="0 0 192.91 89.54"><defs><style>.cls-1{fill:#00d6c8;}.cls-2{fill:#fff;}</style></defs><title>participantes-icon</title><g id="Camada_2" data-name="Camada 2"><g id="ícones"><path class="cls-1" d="M97.3,0c-.54,0-1.09,0-1.62.06S94.6,0,94,0a27.45,27.45,0,1,0,0,54.89c.55,0,1.09,0,1.63-.06s1.08.06,1.62.06A27.45,27.45,0,1,0,97.3,0Zm10,49.73a24.2,24.2,0,0,1-10,2.16q-.81,0-1.62-.06a24.44,24.44,0,0,1,0-48.77Q96.49,3,97.3,3a24.2,24.2,0,0,1,10.1,2.19,24.53,24.53,0,0,1,12.17,12.17,24.41,24.41,0,0,1,0,20.1A24.53,24.53,0,0,1,107.33,49.73Z"/><path d="M57.3,77.72a8.75,8.75,0,0,0-.13,5.8,5.67,5.67,0,0,1-.31-4.75c.31-.84.65-1.67,1-2.48C57.67,76.76,57.48,77.24,57.3,77.72Z"/><path class="cls-1" d="M137.3,77.72a54.71,54.71,0,0,0-15-22.24,8.74,8.74,0,0,0-7.38-2,8.42,8.42,0,0,0-5.74.91,30.77,30.77,0,0,1-13.48,3.89,30.68,30.68,0,0,1-13.49-3.89,8.42,8.42,0,0,0-5.74-.91,8.77,8.77,0,0,0-7.39,2A54.79,54.79,0,0,0,54,77.72a8.74,8.74,0,0,0,8.17,11.82h66.91a8.74,8.74,0,0,0,8.17-11.82Zm-3.11,5.76c-.11.2-.23.4-.36.59a5.68,5.68,0,0,1-3.35,2.32,6,6,0,0,1-1.35.15H65.47a5.74,5.74,0,0,1-5.36-7.77,51.76,51.76,0,0,1,14.17-21,5.87,5.87,0,0,1,2.14-1.18,5.76,5.76,0,0,1,1.64-.24,5.33,5.33,0,0,1,2.66.69,33.8,33.8,0,0,0,15,4.28c.54,0,1.08,0,1.62,0A33.89,33.89,0,0,0,113.88,57a5,5,0,0,1,1-.45,5.48,5.48,0,0,1,3-.07,5.93,5.93,0,0,1,2.42,1.26,50.45,50.45,0,0,1,12.9,17.9l.27.64c.35.81.69,1.64,1,2.48A5.66,5.66,0,0,1,134.19,83.48Z"/><path class="cls-2" d="M119.6,37.46a27.33,27.33,0,0,0,0-20.1,24.41,24.41,0,0,1,0,20.1Z"/><path class="cls-1" d="M158.65,4.81c-.46,0-.92,0-1.37.05s-.91-.05-1.38-.05a23.18,23.18,0,1,0,0,46.36c.46,0,.92,0,1.38-.05s.91.05,1.37.05a23.18,23.18,0,1,0,0-46.36Zm8.47,42a20.44,20.44,0,0,1-8.47,1.82q-.68,0-1.37-.05a20.64,20.64,0,0,1,0-41.19q.68-.05,1.37-.05a20.44,20.44,0,0,1,8.53,1.85,20.72,20.72,0,0,1,10.28,10.28,20.62,20.62,0,0,1,0,17A20.72,20.72,0,0,1,167.12,46.82Z"/><path class="cls-1" d="M192.44,70.46a46.21,46.21,0,0,0-12.69-18.78A7.38,7.38,0,0,0,173.52,50a7.11,7.11,0,0,0-4.85.77A26,26,0,0,1,157.28,54a25.91,25.91,0,0,1-11.39-3.29A7.11,7.11,0,0,0,141,50a7.41,7.41,0,0,0-6.24,1.69,42.82,42.82,0,0,0-8,9.44C124.93,64,138,80.44,138,80.44h47.54a7.39,7.39,0,0,0,6.9-10Zm-2.63,4.87c-.09.17-.19.34-.3.5a4.79,4.79,0,0,1-2.83,2,5.07,5.07,0,0,1-1.14.13H136.88s-7.89-10.8-6.82-12.76a41.42,41.42,0,0,1,9.15-11.56,5,5,0,0,1,1.81-1,4.87,4.87,0,0,1,1.39-.2,4.51,4.51,0,0,1,2.25.58,28.55,28.55,0,0,0,12.64,3.62c.46,0,.91,0,1.37,0a28.62,28.62,0,0,0,14-3.65,4.25,4.25,0,0,1,.88-.38,4.63,4.63,0,0,1,2.52-.06,5,5,0,0,1,2,1.06A42.61,42.61,0,0,1,189,68.71l.23.54c.3.68.58,1.39.84,2.09A4.78,4.78,0,0,1,189.81,75.32Z"/><path class="cls-2" d="M177.49,36.45a23.08,23.08,0,0,0,0-17,20.62,20.62,0,0,1,0,17Z"/><path class="cls-1" d="M37,4.65c-.46,0-.92,0-1.37.05s-.91-.05-1.38-.05a23.18,23.18,0,1,0,0,46.36c.46,0,.92,0,1.38-.05S36.55,51,37,51A23.18,23.18,0,1,0,37,4.65Zm8.47,42A20.44,20.44,0,0,1,37,48.47q-.68,0-1.37-.05a20.64,20.64,0,0,1,0-41.19q.68-.05,1.37-.05A20.44,20.44,0,0,1,45.53,9,20.72,20.72,0,0,1,55.81,19.31a20.62,20.62,0,0,1,0,17A20.72,20.72,0,0,1,45.48,46.65Z"/><path d="M3.22,70.29a7.39,7.39,0,0,0-.11,4.9,4.79,4.79,0,0,1-.26-4c.26-.71.55-1.41.84-2.09C3.53,69.48,3.37,69.89,3.22,70.29Z"/><path class="cls-1" d="M67.47,63.15A43.63,43.63,0,0,0,58.1,51.51a7.38,7.38,0,0,0-6.23-1.69,7.11,7.11,0,0,0-4.85.77,26,26,0,0,1-11.39,3.29,25.91,25.91,0,0,1-11.39-3.29,7.11,7.11,0,0,0-4.85-.77,7.41,7.41,0,0,0-6.24,1.69A46.28,46.28,0,0,0,.47,70.29a7.39,7.39,0,0,0,6.9,10h51.8a13.06,13.06,0,0,1,1-8.84C62.33,67.55,68.08,64.23,67.47,63.15ZM60.19,77.74H10.12a4.85,4.85,0,0,1-4.53-6.56,43.72,43.72,0,0,1,12-17.76,5,5,0,0,1,1.81-1,4.87,4.87,0,0,1,1.39-.2A4.51,4.51,0,0,1,23,52.8a28.55,28.55,0,0,0,12.64,3.62c.46,0,.91,0,1.37,0A28.62,28.62,0,0,0,51,52.8a4.25,4.25,0,0,1,.88-.38,4.63,4.63,0,0,1,2.52-.06,5,5,0,0,1,2,1.06C59.77,56.3,69.78,64.05,65,64,62.25,63.94,56.54,76.24,60.19,77.74Z"/><path class="cls-2" d="M55.84,36.29a23.08,23.08,0,0,0,0-17,20.62,20.62,0,0,1,0,17Z"/></g></g></svg>