<svg xmlns="http://www.w3.org/2000/svg" viewBox="0 0 194.69 197.34"><defs><style>.cls-1{fill:#524342;}.cls-2{fill:#fff;}.cls-3{fill:none;stroke:#524342;stroke-miterlimit:10;stroke-width:5px;}</style></defs><title>participantes2-icon</title><g id="Camada_2" data-name="Camada 2"><g id="ícones"><path class="cls-1" d="M98.89,68.09c-.33,0-.67,0-1,0s-.66,0-1,0a16.83,16.83,0,1,0,0,33.66c.34,0,.67,0,1,0s.66,0,1,0a16.83,16.83,0,1,0,0-33.66ZM105,98.59a14.84,14.84,0,0,1-6.15,1.32q-.5,0-1,0A15,15,0,0,1,97.9,70q.5,0,1,0a14.84,14.84,0,0,1,6.19,1.34,15,15,0,0,1,7.46,7.46,15,15,0,0,1,0,12.33A15,15,0,0,1,105,98.59Z"/><path d="M74.36,115.75a5.37,5.37,0,0,0-.08,3.56,3.48,3.48,0,0,1-.19-2.91c.19-.52.4-1,.61-1.52C74.59,115.17,74.47,115.46,74.36,115.75Z"/><path class="cls-1" d="M123.42,115.75a33.55,33.55,0,0,0-9.21-13.64,5.36,5.36,0,0,0-4.53-1.23,5.16,5.16,0,0,0-3.52.56,18.87,18.87,0,0,1-8.27,2.39,18.81,18.81,0,0,1-8.27-2.39,5.16,5.16,0,0,0-3.52-.56,5.38,5.38,0,0,0-4.53,1.23,33.6,33.6,0,0,0-9.2,13.64,5.36,5.36,0,0,0,5,7.25h41a5.36,5.36,0,0,0,5-7.25Zm-1.91,3.53c-.07.12-.14.25-.22.36a3.48,3.48,0,0,1-2.05,1.42,3.68,3.68,0,0,1-.83.09h-39a3.52,3.52,0,0,1-3.29-4.76,31.74,31.74,0,0,1,8.69-12.9,3.6,3.6,0,0,1,1.31-.72,3.53,3.53,0,0,1,1-.15,3.27,3.27,0,0,1,1.63.42,20.73,20.73,0,0,0,9.17,2.62c.33,0,.66,0,1,0a20.78,20.78,0,0,0,10.17-2.65,3.09,3.09,0,0,1,.64-.28,3.36,3.36,0,0,1,1.83,0,3.64,3.64,0,0,1,1.48.77,30.94,30.94,0,0,1,7.91,11l.17.39c.21.5.42,1,.61,1.52A3.47,3.47,0,0,1,121.52,119.29Z"/><path class="cls-2" d="M112.57,91.06a16.76,16.76,0,0,0,0-12.33,15,15,0,0,1,0,12.33Z"/><path class="cls-1" d="M136.52,71c-.28,0-.56,0-.84,0s-.56,0-.84,0a14.22,14.22,0,1,0,0,28.43c.28,0,.56,0,.84,0s.56,0,.84,0a14.22,14.22,0,1,0,0-28.43Zm5.2,25.76a12.54,12.54,0,0,1-5.2,1.12q-.42,0-.84,0a12.66,12.66,0,0,1,0-25.26q.42,0,.84,0a12.53,12.53,0,0,1,5.23,1.13,12.7,12.7,0,0,1,6.3,6.3,12.64,12.64,0,0,1,0,10.41A12.71,12.71,0,0,1,141.71,96.8Z"/><path class="cls-1" d="M157.23,111.3a28.34,28.34,0,0,0-7.78-11.52,4.53,4.53,0,0,0-3.82-1,4.36,4.36,0,0,0-3,.47,15.94,15.94,0,0,1-7,2,15.89,15.89,0,0,1-7-2,4.36,4.36,0,0,0-3-.47,4.54,4.54,0,0,0-3.83,1,26.26,26.26,0,0,0-4.94,5.79c-1.11,1.76,6.9,11.85,6.9,11.85H153a4.53,4.53,0,0,0,4.23-6.12Zm-1.61,3c-.06.1-.12.21-.19.31a2.94,2.94,0,0,1-1.74,1.2,3.11,3.11,0,0,1-.7.08H123.17s-4.84-6.62-4.18-7.83a25.4,25.4,0,0,1,5.61-7.09,3,3,0,0,1,1.11-.61,3,3,0,0,1,.85-.12,2.76,2.76,0,0,1,1.38.36,17.51,17.51,0,0,0,7.75,2.22l.84,0a17.55,17.55,0,0,0,8.59-2.24,2.61,2.61,0,0,1,.54-.23,2.84,2.84,0,0,1,1.54,0,3.07,3.07,0,0,1,1.25.65,26.13,26.13,0,0,1,6.68,9.27l.14.33c.18.42.36.85.52,1.28A2.93,2.93,0,0,1,155.62,114.29Z"/><path class="cls-2" d="M148.07,90.45a14.16,14.16,0,0,0,0-10.41,12.64,12.64,0,0,1,0,10.41Z"/><path class="cls-1" d="M61.92,70.94c-.28,0-.56,0-.84,0s-.56,0-.84,0a14.22,14.22,0,1,0,0,28.43c.28,0,.56,0,.84,0s.56,0,.84,0a14.22,14.22,0,1,0,0-28.43Zm5.2,25.76a12.54,12.54,0,0,1-5.2,1.12q-.42,0-.84,0a12.66,12.66,0,0,1,0-25.26q.42,0,.84,0a12.53,12.53,0,0,1,5.23,1.13,12.7,12.7,0,0,1,6.3,6.3,12.64,12.64,0,0,1,0,10.41A12.71,12.71,0,0,1,67.11,96.7Z"/><path d="M41.2,111.2a4.53,4.53,0,0,0-.07,3,2.94,2.94,0,0,1-.16-2.46c.16-.44.34-.86.52-1.28C41.39,110.7,41.29,110.95,41.2,111.2Z"/><path class="cls-1" d="M80.6,106.82a26.75,26.75,0,0,0-5.75-7.14,4.53,4.53,0,0,0-3.82-1,4.36,4.36,0,0,0-3,.47,15.94,15.94,0,0,1-7,2,15.89,15.89,0,0,1-7-2,4.36,4.36,0,0,0-3-.47,4.54,4.54,0,0,0-3.83,1,28.38,28.38,0,0,0-7.77,11.52,4.53,4.53,0,0,0,4.23,6.12H75.51a8,8,0,0,1,.62-5.42C77.45,109.52,81,107.48,80.6,106.82Zm-4.47,8.95H45.43a3,3,0,0,1-2.78-4A26.81,26.81,0,0,1,50,100.85a3,3,0,0,1,1.11-.61,3,3,0,0,1,.85-.12,2.76,2.76,0,0,1,1.38.36,17.51,17.51,0,0,0,7.75,2.22l.84,0a17.55,17.55,0,0,0,8.59-2.24,2.61,2.61,0,0,1,.54-.23,2.84,2.84,0,0,1,1.54,0,3.07,3.07,0,0,1,1.25.65c2,1.76,8.17,6.52,5.27,6.48C77.4,107.31,73.9,114.84,76.14,115.77Z"/><path class="cls-2" d="M73.47,90.34a14.16,14.16,0,0,0,0-10.41,12.64,12.64,0,0,1,0,10.41Z"/></g><g id="icones2"><path class="cls-1" d="M192.64,100.79A98.18,98.18,0,0,1,185.43,137a98,98,0,0,1-20.19,31.09,95.63,95.63,0,0,1-30.61,21.34,94.34,94.34,0,0,1-17.95,5.77,96.48,96.48,0,0,1-87.53-25.71A98,98,0,0,1,7.09,63.18,99,99,0,0,1,28.07,31,96.12,96.12,0,0,1,78.6,3.75a95.12,95.12,0,0,1,38.51.43,94.25,94.25,0,0,1,49.16,28.23,99,99,0,0,1,19.78,31.86,97.93,97.93,0,0,1,5,18A95.86,95.86,0,0,1,192.64,100.79Zm-.9,0a94.72,94.72,0,0,0-2-18.26,89,89,0,0,0-26.83-46.71,94.11,94.11,0,0,0-47.39-23.39A90.94,90.94,0,0,0,97.9,11,92.27,92.27,0,0,0,34.37,37.27a90.2,90.2,0,0,0-20.59,98.36,91.55,91.55,0,0,0,84.11,57.2,93.67,93.67,0,0,0,66-26,92.86,92.86,0,0,0,11.87-14A90.1,90.1,0,0,0,190,119.12,94.89,94.89,0,0,0,191.74,100.79Z"/><circle class="cls-3" cx="97.9" cy="96.79" r="94.29"/></g></g></svg>