<svg xmlns="http://www.w3.org/2000/svg" viewBox="0 0 714 272.37"><defs><style>.cls-1{fill:#544544;}.cls-2{font-size:43px;font-family:Karla-Regular, Karla;}.cls-2,.cls-5{fill:#fff;}.cls-3{fill:none;stroke:#fff9ee;stroke-miterlimit:10;stroke-width:5px;}.cls-4{fill:#fff9ee;}</style></defs><title>postar-ideia-print</title><g id="Camada_2" data-name="Camada 2"><g id="icones2"><text></text><rect class="cls-1" width="714" height="272.37"/><text class="cls-2" transform="translate(224.5 142.28)">Postar nova ideia</text><g id="Camada_2-2" data-name="Camada 2"><g id="ícones"><path class="cls-3" d="M138.45,157.51H109.93a2.58,2.58,0,0,0-2.45,3.38,15.52,15.52,0,0,0,14.64,10.53h4.13a15.52,15.52,0,0,0,14.66-10.53,2.58,2.58,0,0,0-2.45-3.38Z"/><path class="cls-3" d="M160.15,103.21A36,36,0,1,0,97.21,127a37.41,37.41,0,0,1,7.36,12.7h0a2.74,2.74,0,0,0-1.94.8,2.7,2.7,0,0,0-.8,1.93,2.74,2.74,0,0,0,2.74,2.74h39.3a2.74,2.74,0,0,0,0-5.48,39.9,39.9,0,0,1,7.55-13A35.8,35.8,0,0,0,160.15,103.21Z"/><path class="cls-3" d="M143.83,148.57h-39.3a2.74,2.74,0,0,0-1.94.8,2.7,2.7,0,0,0-.8,1.93,2.74,2.74,0,0,0,2.74,2.74h39.3a2.74,2.74,0,1,0,.24-5.48Z"/><path class="cls-4" d="M138.45,157.51q-5.06,0-10.12.31c-3.37.2-6.75.52-10.12.84l-5.06.46-2.53.21-.63,0h-.13s-.05,0-.08,0a.75.75,0,0,0-.24.2.47.47,0,0,0-.07.47v0s0,0,0,.11l.21.52c.15.33.31.65.48,1a14.67,14.67,0,0,0,2.58,3.46,14.14,14.14,0,0,0,3.43,2.58,14.85,14.85,0,0,0,4.08,1.5c.36.05.72.14,1.09.18s.72.09,1.16.12l2.53.2,1.25.11c.38,0,.77.07,1.15.06s.77,0,1.16,0l.58,0,.58-.08a13.92,13.92,0,0,0,8.35-4.51c.26-.32.55-.62.78-1l.37-.52.33-.52a12.65,12.65,0,0,0,1.12-2.24,2.49,2.49,0,0,0-.19-2.37A2.58,2.58,0,0,0,138.45,157.51Zm0,0a2.58,2.58,0,0,1,2.16,1.13,2.71,2.71,0,0,1,.46,1.18,2.8,2.8,0,0,1-.15,1.27,17.85,17.85,0,0,1-2.25,4.58,17.14,17.14,0,0,1-3.58,3.79,16.06,16.06,0,0,1-4.7,2.58l-.65.22-.66.18a13.32,13.32,0,0,1-1.35.29c-.45.09-.91.12-1.38.19s-.85.08-1.27.12l-2.53.2c-.4,0-.89,0-1.37.06s-.95,0-1.42,0a16.32,16.32,0,0,1-10.27-4.79,17.61,17.61,0,0,1-1.86-2.23c-.28-.4-.52-.81-.77-1.23a13.14,13.14,0,0,1-.66-1.28,13.86,13.86,0,0,1-.54-1.34q-.12-.34-.23-.69c0-.08-.09-.31-.13-.52a3.89,3.89,0,0,1-.09-.58,4.57,4.57,0,0,1,1.73-4,4.43,4.43,0,0,1,2-.9,3.9,3.9,0,0,1,.55-.06H110l.63,0,2.53.21,5.06.46c3.37.31,6.75.64,10.12.84S135.08,157.5,138.45,157.51Z"/><path class="cls-4" d="M160.15,103.21a34.84,34.84,0,1,0-69.58,2.18,34.21,34.21,0,0,0,5.81,16.81l.64.93.68.9c.22.3.46.59.71.88l.75.9a37.73,37.73,0,0,1,3,4.09,39.19,39.19,0,0,1,4.33,9.16l.94,2.92-2.89-.19a.7.7,0,0,0-.45.1.74.74,0,0,0-.29.35.8.8,0,0,0,.27.9.73.73,0,0,0,.23.12l.13,0h.27l1.77,0,3.53.09q7.07.17,14.14.39l14.14.42,3.53.11,1.77.05H144a1.94,1.94,0,0,0,.92-.26,2.06,2.06,0,0,0,1-2.29,2.17,2.17,0,0,0-2-1.61H143l.26-.7a41.26,41.26,0,0,1,4.82-9.07,43.93,43.93,0,0,1,3.19-4,36,36,0,0,0,3.09-4c.47-.7.9-1.43,1.33-2.17a23.36,23.36,0,0,0,1.14-2.27,34.61,34.61,0,0,0,1.8-4.75,35.93,35.93,0,0,0,1.09-5A40,40,0,0,0,160.15,103.21Zm0,0a40,40,0,0,1-.35,5.08,39.07,39.07,0,0,1-1,5,36.88,36.88,0,0,1-7.1,13.46,42.12,42.12,0,0,0-3,4.07,38,38,0,0,0-4.3,9.09l-.52-.72a3.35,3.35,0,0,1,3.23,2.35,3.4,3.4,0,0,1,0,2.15,3.47,3.47,0,0,1-2.37,2.17,3.38,3.38,0,0,1-.55.1h-.5l-1.77.05-3.53.11-14.14.42q-7.07.22-14.14.39l-3.53.09-1.77,0h-.61a4.64,4.64,0,0,1-.74-.12,4.55,4.55,0,0,1-1.38-.58,4.64,4.64,0,0,1-1.88-2.28,4.72,4.72,0,0,1,1.55-5.47,4.81,4.81,0,0,1,2.88-1l-2,2.73a36.35,36.35,0,0,0-4.13-8.06,34.86,34.86,0,0,0-2.76-3.57l-.79-.9c-.28-.32-.56-.64-.81-1l-.79-1-.74-1a37.65,37.65,0,0,1-4.61-9.1,36.1,36.1,0,0,1-1.33-4.94c-.18-.84-.29-1.68-.42-2.52a21,21,0,0,1-.23-2.55A37.61,37.61,0,0,1,90.24,86a37,37,0,0,1,22.91-18.41,37.59,37.59,0,0,1,9.8-1.33,36.93,36.93,0,0,1,9.74,1.26,36.51,36.51,0,0,1,9,3.72,37.54,37.54,0,0,1,13.53,13.58,40.22,40.22,0,0,1,2.15,4.33,37.3,37.3,0,0,1,2.78,14.07Z"/><path class="cls-4" d="M143.83,148.57q-6,0-12,.31c-4,.2-8,.52-12,.84s-8,.64-12,.84c-1,0-2,.11-3,.14h-.45l-.14.07a.72.72,0,0,0-.2.22.48.48,0,0,0,.42.7q6,0,12,.31c4,.2,8,.52,12,.84s8,.64,12,.85c1,0,2,.11,3,.14a5.43,5.43,0,0,0,.73,0,2.58,2.58,0,0,0,1.82-1,2.66,2.66,0,0,0,.24-2.78A2.75,2.75,0,0,0,143.83,148.57Zm0,0a2.77,2.77,0,0,1,2.45,1.47,2.82,2.82,0,0,1-.14,2.9,3,3,0,0,1-1.16,1,2.85,2.85,0,0,1-.75.24,5.71,5.71,0,0,1-.77.06c-1,0-2,.09-3,.14-4,.2-8,.52-12,.85s-8,.64-12,.84-8,.31-12,.31a5.06,5.06,0,0,1-4.47-2.75,5,5,0,0,1,.4-5.16,4.91,4.91,0,0,1,3.39-2,5,5,0,0,1,.67,0h.38c1,0,2,.09,3,.14,4,.2,8,.52,12,.84s8,.64,12,.84S139.84,148.57,143.83,148.57Z"/><path class="cls-5" d="M124.7,126.87a5.12,5.12,0,0,1-5.12-5.12v-9a2.48,2.48,0,0,0-2.48-2.49h-9a5.12,5.12,0,0,1,0-10.24h9a2.48,2.48,0,0,0,2.48-2.48V88.64a5.12,5.12,0,0,1,10.23,0v8.95a2.48,2.48,0,0,0,2.48,2.48h9a5.12,5.12,0,0,1,5.12,5.12h0a5.12,5.12,0,0,1-5.12,5.12h-9a2.48,2.48,0,0,0-2.48,2.48v9A5.12,5.12,0,0,1,124.7,126.87Zm-16.57-24.17a2.48,2.48,0,1,0,0,5h9a5.12,5.12,0,0,1,5.12,5.12v9a2.48,2.48,0,1,0,5,0h0v-9a5.12,5.12,0,0,1,5.12-5.12h9a2.48,2.48,0,0,0,2.48-2.48h0a2.48,2.48,0,0,0-2.48-2.48h-9a5.12,5.12,0,0,1-5.12-5.12v-9a2.48,2.48,0,0,0-5,0v8.95a5.12,5.12,0,0,1-5.12,5.12Z"/></g></g></g></g></svg>