<svg xmlns="http://www.w3.org/2000/svg" viewBox="0 0 103.1 119.71"><defs><style>.cls-1{fill:#ff276c;}.cls-2,.cls-3{fill:none;stroke:#ff276c;stroke-miterlimit:10;}.cls-2{stroke-width:5px;}.cls-3{stroke-width:6px;}</style></defs><title>senha-usuario</title><g id="Camada_2" data-name="Camada 2"><g id="icones2"><path class="cls-1" d="M88.6,115.33q-9.46.17-18.93.73c-6.31.4-12.62.9-18.93,1.44S38.12,118.57,31.81,119q-4.73.31-9.46.52l-4.73.19c-.32,0-1,0-1.5,0a12.64,12.64,0,0,1-1.66-.16,12.55,12.55,0,0,1-1.64-.32,12.68,12.68,0,0,1-1.61-.48,17.19,17.19,0,0,1-9.64-8.87A16.56,16.56,0,0,1,0,103.28l0-.42V98.42C0,92.11.11,85.8.25,79.49L.78,60.56A16.38,16.38,0,0,1,5.72,49.07,16.1,16.1,0,0,1,17.2,44.46l37.86.68L74,45.55l9.46.21,4.73.1c.36,0,.88,0,1.35.07a10.46,10.46,0,0,1,1.42.19,14.4,14.4,0,0,1,2.75.79,14.47,14.47,0,0,1,7.86,7.74,13.65,13.65,0,0,1,1.07,5.44c0,1.68-.11,3.18-.17,4.79l-.83,18.93c-.25,6.31-.46,12.62-.56,18.93a12.73,12.73,0,0,1-12.49,12.6Zm0-1A11.35,11.35,0,0,0,96.81,111a11.48,11.48,0,0,0,3.3-8.24c-.1-6.31-.31-12.62-.56-18.93l-.83-18.93c-.07-1.55-.11-3.21-.2-4.68a10,10,0,0,0-1-3.72,9.74,9.74,0,0,0-5.57-4.9,5.9,5.9,0,0,0-.89-.26,9.34,9.34,0,0,0-1.84-.25c-.32,0-.58,0-1,0l-4.73.1L74,51.37l-18.93.41-37.86.68A7.89,7.89,0,0,0,11.67,55a7.67,7.67,0,0,0-2,5.59l.52,18.93c.14,6.31.24,12.62.25,18.93V103a7.15,7.15,0,0,0,.56,2.6,7,7,0,0,0,3.79,3.76,3.84,3.84,0,0,0,.64.24,3.8,3.8,0,0,0,.67.18,3.9,3.9,0,0,0,.69.11,7.67,7.67,0,0,0,.87.06l4.73.19q4.73.21,9.46.52c6.31.43,12.62.94,18.93,1.49s12.62,1,18.93,1.44S82.29,114.22,88.6,114.33Z"/><rect class="cls-2" x="5.2" y="48.46" width="95.4" height="66.38" rx="12" ry="12"/><path class="cls-1" d="M28.29,40A25.92,25.92,0,0,1,24.21,27.3a27.26,27.26,0,0,1,3-14,33.17,33.17,0,0,1,2-3.23,34.87,34.87,0,0,1,2.53-2.9,34,34,0,0,1,3-2.44,27.64,27.64,0,0,1,3.37-1.92A32.64,32.64,0,0,1,52.93,0,27,27,0,0,1,66.8,4.51,11.52,11.52,0,0,1,68.25,5.6l1.39,1.15c.86.83,1.69,1.7,2.46,2.59a34.63,34.63,0,0,1,2,2.87L75,13.72l.41.75.34.78A32,32,0,0,1,78.3,28a47.2,47.2,0,0,1-1.86,12.09L75,39.84A54.34,54.34,0,0,0,73.63,28.5,26.85,26.85,0,0,0,69.2,19a17.14,17.14,0,0,0-16-6.95,15.05,15.05,0,0,0-7.55,3.62,54,54,0,0,0-5.77,5.72,38.58,38.58,0,0,0-5.26,7.83c-1.62,3.11-3,6.64-4.86,10.69Z"/><path class="cls-3" d="M29.42,39.94c-4.33-44.36,53.25-46.14,46.67,0"/><circle class="cls-1" cx="52.9" cy="76.58" r="7.5"/><rect class="cls-1" x="49.65" y="73.96" width="6.5" height="20.25" rx="3.25" ry="3.25"/><polygon class="cls-1" points="26.47 40.26 24.29 28.75 29.19 26.82 26.47 40.26"/></g></g></svg>