<?xml version="1.0" encoding="UTF-8" standalone="no"?>
<svg
   xmlns:dc="http://purl.org/dc/elements/1.1/"
   xmlns:cc="http://creativecommons.org/ns#"
   xmlns:rdf="http://www.w3.org/1999/02/22-rdf-syntax-ns#"
   xmlns:svg="http://www.w3.org/2000/svg"
   xmlns="http://www.w3.org/2000/svg"
   xmlns:sodipodi="http://sodipodi.sourceforge.net/DTD/sodipodi-0.dtd"
   xmlns:inkscape="http://www.inkscape.org/namespaces/inkscape"
   viewBox="0 0 176.29 119.02"
   version="1.1"
   id="svg12"
   sodipodi:docname="seta.svg"
   inkscape:version="0.92.1 r15371">
  <metadata
     id="metadata16">
    <rdf:RDF>
      <cc:Work
         rdf:about="">
        <dc:format>image/svg+xml</dc:format>
        <dc:type
           rdf:resource="http://purl.org/dc/dcmitype/StillImage" />
      </cc:Work>
    </rdf:RDF>
  </metadata>
  <sodipodi:namedview
     pagecolor="#ffffff"
     bordercolor="#666666"
     borderopacity="1"
     objecttolerance="10"
     gridtolerance="10"
     guidetolerance="10"
     inkscape:pageopacity="0"
     inkscape:pageshadow="2"
     inkscape:window-width="1366"
     inkscape:window-height="715"
     id="namedview14"
     showgrid="false"
     inkscape:zoom="1.9828601"
     inkscape:cx="99.240081"
     inkscape:cy="59.509998"
     inkscape:window-x="-8"
     inkscape:window-y="-8"
     inkscape:window-maximized="1"
     inkscape:current-layer="Camada_2" />
  <defs
     id="defs4">
    <style
       id="style2">.cls-1{fill:#00d6c8;}</style>
  </defs>
  <title
     id="title6">expandir-icon</title>
  <g
     id="Camada_2"
     data-name="Camada 2">
    <g
       id="ícones"
       transform="translate(0,0.50432248)"
       style="fill:#ffffff">
      <path
         class="cls-1"
         d="m 173.31,5.06 a 8,8 0 0 1 1.22,11.19 l -72.78,90.58 -7.4,9.17 a 8,8 0 0 1 -12.42,0 L 74.54,106.8 1.76,16.26 A 8,8 0 0 1 3,5.06 L 7.11,1.76 A 8,8 0 0 1 18.29,3 l 63.65,79.19 a 8,8 0 0 0 12.42,0 L 158,3 a 8,8 0 0 1 11.2,-1.22 z"
         id="path8"
         inkscape:connector-curvature="0"
         style="fill:#ffffff" />
    </g>
  </g>
</svg>
