<svg xmlns="http://www.w3.org/2000/svg" viewBox="0 0 648.56 288.15"><defs><style>.cls-1{fill:#3f3f41;}.cls-2{fill:#ebecec;}.cls-3{fill:#83848c;}.cls-4{fill:#858687;}.cls-5{fill:#afb0b2;}.cls-6{fill:#d2d8df;}.cls-7{fill:#544544;}.cls-8{fill:#adadac;}.cls-9{fill:#58595a;}.cls-10{fill:#b2b2b1;}</style></defs><title>smartphone-pc</title><g id="Camada_2" data-name="Camada 2"><g id="icones2"><path class="cls-1" d="M459.66,0H77.43a9.66,9.66,0,0,0-9.64,9.63V264.37h401.5V9.63A9.66,9.66,0,0,0,459.66,0Z"/><rect class="cls-2" x="85.66" y="16.6" width="366.18" height="235.28"/><polygon class="cls-3" points="512.32 288.15 24.09 288.15 0 279.31 536.41 279.31 512.32 288.15"/><path class="cls-4" d="M269.88,9.94a1.71,1.71,0,1,1-1.71-1.71A1.7,1.7,0,0,1,269.88,9.94Z"/><rect class="cls-5" x="224.58" y="264.33" width="86.93" height="8.83"/><path class="cls-6" d="M304.61,264.33v3.21a4,4,0,0,1-4,4h-65a4,4,0,0,1-4-4v-3.21H0v15H536.42v-15Z"/><rect class="cls-7" x="85.66" y="16.6" width="366.18" height="15.57"/><rect class="cls-7" x="85.66" y="32.16" width="45.32" height="219.71"/><rect class="cls-8" x="142.98" y="62" width="85" height="72.24"/><rect class="cls-8" x="249.98" y="62" width="85" height="72.24"/><rect class="cls-8" x="361.33" y="62" width="85" height="72.24"/><rect class="cls-8" x="142.98" y="149.53" width="85" height="72.24"/><rect class="cls-8" x="249.98" y="149.53" width="85" height="72.24"/><rect class="cls-8" x="361.33" y="149.53" width="85" height="72.24"/><rect class="cls-1" x="575.6" y="134.24" width="72.96" height="153.56" rx="11.36" ry="11.36"/><rect class="cls-2" x="580.96" y="155.21" width="62.25" height="112.28"/><circle class="cls-4" cx="612.08" cy="276.55" r="5.12"/><path class="cls-9" d="M617.57,148a1.54,1.54,0,0,1-1.54,1.53h-9.55a1.54,1.54,0,0,1-1.54-1.53h0a1.54,1.54,0,0,1,1.54-1.53H616a1.54,1.54,0,0,1,1.54,1.53Z"/><rect class="cls-7" x="580.96" y="155.21" width="62.25" height="12.54"/><rect class="cls-10" x="585.19" y="180.25" width="53.79" height="14.5"/><rect class="cls-10" x="585.19" y="204.1" width="53.79" height="14.5"/><rect class="cls-10" x="585.19" y="227.95" width="53.79" height="14.5"/><rect class="cls-10" x="585.19" y="249.87" width="53.79" height="14.5"/></g></g></svg>