<svg xmlns="http://www.w3.org/2000/svg" viewBox="0 0 221.03 195.67"><defs><style>.cls-1{fill:#ffae00;}.cls-2{fill:#fff;}</style></defs><title>solidario-icone</title><g id="Camada_2" data-name="Camada 2"><g id="Camada_4" data-name="Camada 4"><path d="M85.92,115.62l-.6-1.68-.45,1.21-.63,1.7-.09.24-.24.65-1,2.77c.28.7.55,1.36.81,2,.54,1.28,1,2.41,1.47,3.32l1-2.64.18-.49.81-2.17.28-.74Zm17.27,2.3c-.1-.26-.23-.63-.4-1.09-.49-1.34-1.26-3.47-2.17-6l-.69-1.92h0l-1.16,2.64-.5,1.12-1,2.23-.19.43c.28.81.53,1.55.75,2.21a2.25,2.25,0,0,1,.08.24l.14.39c.16.48.3.91.41,1.27a2.35,2.35,0,0,0,.7,1.06l.52-1.19.49-1.09.55-1.24.2-.46a2.21,2.21,0,0,0,1.26,1.69,1.9,1.9,0,0,0,.61.1,3,3,0,0,0,.49-.05A2,2,0,0,0,103.19,117.92Zm15.63-1-1.1-3-1,2.93-1,2.92.95,2.53,1.06,2.83a9.39,9.39,0,0,0,1.29-2.24c.35-.73.74-1.61,1.17-2.61Zm-.47,70.22a19.84,19.84,0,0,1-2.49,1.09,2.31,2.31,0,0,1-.52.12l-.66.08c-.79.08-2.06.17-3.67.2-1,.38-1.9.71-2.85,1a46.86,46.86,0,0,1-9.4,1.8,52.79,52.79,0,0,0,6.68,1h0c1.77.15,3.35.2,4.64.2l1.55,0A35.55,35.55,0,0,0,128.59,180,55.55,55.55,0,0,1,118.35,187.17Zm.47-70.22-1.1-3-1,2.93-1,2.92.95,2.53,1.06,2.83a9.39,9.39,0,0,0,1.29-2.24c.35-.73.74-1.61,1.17-2.61Zm-8.23-22-.78-2.08c-.35.95-.7,1.92-1.06,2.89l-1,2.9.78,2.08,1.38,3.69c.34-1,.69-1.92,1.05-2.9l1-2.9Z"/><path d="M87.41,119.78l-1.49-4.16-1.05-.47-1.47-.65-.85-.38,0,.07-1,2.81c.48,1.22,1,2.41,1.4,3.51.28.7.55,1.36.81,2l1-2.75.1-.26.44.19,1.88.84.65.28Zm13.21-9-.15.41-.54-2.33h0v0L99,105l-.26.59-1.18,2.65-.48,1.1L95.91,112c.42,1.2.82,2.32,1.17,3.33.28.81.53,1.55.75,2.21v0a2.5,2.5,0,0,0,.07.26l.14.39a1.74,1.74,0,0,0,1.63,1.14h0a3.11,3.11,0,0,0,1-.19,3.66,3.66,0,0,0,.6-.25l.16-.07a2.14,2.14,0,0,0,.71-.59,2.27,2.27,0,0,0,.42-.78l.19-.59C102.3,115.49,101.53,113.36,100.62,110.82Zm25.79,69.4s-.63.58-1.68,1.47a51.16,51.16,0,0,1-10,6.77,17.92,17.92,0,0,1-1.9.8,2.31,2.31,0,0,1-.52.12,40,40,0,0,1-4.1.28,46.86,46.86,0,0,1-9.4,1.8c-1.72.15-3.31.21-4.7.21l-1.61,0a49.73,49.73,0,0,0,8.13,1.63,54.38,54.38,0,0,0,6.42.39l1.6,0c2-.06,3.5-.22,4.13-.29a7.27,7.27,0,0,0,1.38-.32c.55-.2,1.11-.42,1.67-.68-.66.08-2.13.23-4.14.29A35.55,35.55,0,0,0,128.59,180s0,0,0,0a33.32,33.32,0,0,0,2.27-3.63ZM117.72,114l-1.4-3.72-1,2.93-1,2.91,1.39,3.73.95,2.53c.35-.8.73-1.7,1.13-2.67s.73-1.79,1.11-2.76Zm-7.91-21.13-1.38-3.67c-.34.94-.7,1.91-1.06,2.89L106.32,95l1.38,3.69.78,2.08,1-2.9c.36-1,.71-1.93,1.06-2.89Z"/><path class="cls-1" d="M164.43,152.41a6.26,6.26,0,0,1-1.83,3.14c-6.56,6.15-28.91,25.34-30.45,26.66-.8.74-8.23,7.44-14.95,9.83a7.46,7.46,0,0,1-1.38.32h0c-.66.08-2.13.23-4.14.29A35.55,35.55,0,0,0,128.59,180s0,0,0,0a33.32,33.32,0,0,0,2.27-3.63c7.19-6.2,21.06-18.2,25.91-22.75a2.27,2.27,0,0,0,.67-1.13c1.1-4.88-2.4-5.87-4.5-6-3,1.84-9.38,5.62-12.71,6.37l-.42.08a15.41,15.41,0,0,1-2.66.92,6.87,6.87,0,0,1-1.47.19c-2.65,0-1.66-2.5-1.66-2.5l3.44-8.88L153,102.78c0-.09.06-.17.09-.25.3-1.16,2.45-9.81-.35-11.56a7.4,7.4,0,0,0-3.3-.85h-.21a6.87,6.87,0,0,0-1.49,1.32,2.39,2.39,0,0,0-.43.74c-1.19,3.39-10.83,30.63-14.44,37.14a2.33,2.33,0,0,1-2,1.22,2.08,2.08,0,0,1-1-.25l0,0,0,.06a2.33,2.33,0,0,1-2,1.22,2,2,0,0,1-1-.25c-1.8-1-.59-3.3-.25-3.88a1.74,1.74,0,0,0,.16-.34l9.61-25.93s8.22-19.92,8.05-25.41a2.38,2.38,0,0,0-.79-1.64,5.33,5.33,0,0,0-3.68-1.5h-.42a9.37,9.37,0,0,0-1,.61,2.39,2.39,0,0,0-.8,1l-7.27,18.88s-6.48,18.21-10.32,27.21L118.82,117l-1.1-3-1.4-3.72,8.38-23.46a2.3,2.3,0,0,1,.2-.42c.79-1.31,5.13-9-.12-11.18a6.83,6.83,0,0,0-2.56-.55,8.52,8.52,0,0,0-2.67,3.3S115.67,88.42,112,98.63L110.59,95l-.78-2.08-1.38-3.67c2.29-6.22,4.1-11.12,4.29-11.62l0-.07,0-.08c1-2.3,3.7-6.07,8.19-6.67a9.15,9.15,0,0,1,4.34-1.09,10.57,10.57,0,0,1,4.08.86,8.17,8.17,0,0,1,2.5,1.57A6.09,6.09,0,0,1,133,71a12.76,12.76,0,0,1,5.2-2.26,10.88,10.88,0,0,1,4.69-1.13,9.36,9.36,0,0,1,6.42,2.58,6.34,6.34,0,0,1,2.05,4.44c.08,2.42-1,6.69-2.45,11.17a9.62,9.62,0,0,1,3.54-.67,11.29,11.29,0,0,1,5.1,1.28l.16.08.16.1c3.56,2.23,4.27,7.59,2.11,16l-.06.2,0,.15c-.05.13-.09.26-.15.4L144.28,143.1,142.77,147c1.84-1,3.91-2.23,6-3.57a6.29,6.29,0,0,1,3-1l.06,0a6.34,6.34,0,0,1,3.39-1c3.33,0,6.09,1.15,7.75,3.24C164.16,146.07,165.3,148.53,164.43,152.41Z"/><path d="M126.81,144.05a2,2,0,0,0-.11-.32L118.93,123l-1.22-3.26-1-2.78-1.39-3.72-4.37-11.68-1.38-3.69-.78-2.08-1.38-3.67-2.24-6a4.3,4.3,0,0,0-1.45-2,11.11,11.11,0,0,0-6.1-2.41c-1.88,0-5.2.88-6.24,6.77a4.29,4.29,0,0,0,.14,2c1.47,4.61,4,11.73,6.09,17.7.42,1.15.81,2.26,1.19,3.3.78,2.19,1.47,4.08,2,5.43.25.71.45,1.26.59,1.64a.19.19,0,0,1,0,.13s0,.08,0,.12a2.61,2.61,0,0,1-.1.42,2.42,2.42,0,0,1-.5-.17l-.22-.1a.36.36,0,0,1-.12-.18l-.2-.62c-.44-1.35-1.1-3.27-1.91-5.55-.36-1-.76-2.15-1.17-3.32C93,97.81,86.81,81.2,86.44,80.2c-.1-.23-2.37-5.53-7.61-5.53a8.75,8.75,0,0,0-3.31.7A5.84,5.84,0,0,0,72.07,79c-1.25,3.78,1.25,8.57,2.41,10.52l8.92,25,.84,2.35,1,2.83,1.07,3,.65,1.82a3.61,3.61,0,0,0,.19.44,4.24,4.24,0,0,1,.4,1.27c-.35-.64-.84-1.68-1.42-3-.43-1-.9-2.14-1.43-3.43l-.8-2c-.44-1.11-.91-2.3-1.39-3.55-2.15-5.58-4.64-12.31-6.93-18.75L68.31,76.55a4.21,4.21,0,0,0-1.48-1.94,10,10,0,0,0-5.63-2,7.21,7.21,0,0,0-5,2,4.3,4.3,0,0,0-1.44,3c-.17,5.74,7.34,24.16,8.18,26.17l9.61,25.92a4.35,4.35,0,0,0,.3.66,3.48,3.48,0,0,1,.43,1.09.44.44,0,0,1-.21-.15C69.51,125,59.83,97.63,58.74,94.53a4.38,4.38,0,0,0-.79-1.37,8.43,8.43,0,0,0-6.31-3,9.36,9.36,0,0,0-4.19,1.06l-.09,0-.08,0c-3.6,2.26-2.31,9.59-1.22,13.77a4.28,4.28,0,0,0,.15.47l15.52,39.87L65.07,154a6.3,6.3,0,0,1-.72-.13c-2.78-.62-8.84-4-13.18-6.79a4.38,4.38,0,0,0-2.32-.66c-1.57,0-4.47.33-6.19,2.49a6.82,6.82,0,0,0-1,6,4.18,4.18,0,0,0,1.24,2.13c6.62,6.21,29.48,25.83,30.4,26.61.31.29,7.75,7.13,14.33,9.46a4.14,4.14,0,0,0,.91.21,44,44,0,0,0,5.52.31h0a54,54,0,0,0,6.51-.39,47.8,47.8,0,0,0,4.86-.81h0a38.68,38.68,0,0,0,12.9-5.3,31.6,31.6,0,0,0,6.38-5.48,34.21,34.21,0,0,0,5.83-9.23,4.61,4.61,0,0,0,.34-1.19C132,162.66,127.35,145.92,126.81,144.05Zm2.1,27a2.48,2.48,0,0,1-.18.66,31,31,0,0,1-17.72,17c-1,.38-1.9.71-2.85,1a46.86,46.86,0,0,1-9.4,1.8c-1.72.15-3.31.21-4.7.21l-1.61,0c-1.84-.06-3.13-.21-3.66-.27a2.27,2.27,0,0,1-.5-.12c-6.26-2.21-13.63-9-13.63-9s-23.73-20.34-30.39-26.59a2.3,2.3,0,0,1-.66-1.12c-1.25-5.52,3.39-6.07,5.25-6.07a2.27,2.27,0,0,1,1.24.36c2.08,1.31,10,6.18,13.81,7a6.69,6.69,0,0,0,1.46.18c2.65,0,1.66-2.5,1.66-2.5l-3.44-8.87L48.08,104.78a1.81,1.81,0,0,1-.08-.25c-.3-1.15-2.46-9.81.34-11.56a7.4,7.4,0,0,1,3.3-.85,6.41,6.41,0,0,1,4.79,2.34,2.53,2.53,0,0,1,.42.73c1.19,3.38,10.83,30.64,14.44,37.15a2.42,2.42,0,0,0,2.06,1.2,2,2,0,0,0,1-.24c1.79-1,.58-3.29.24-3.88a3.57,3.57,0,0,1-.16-.34l-9.61-25.92s-8.22-19.94-8-25.42a2.33,2.33,0,0,1,.79-1.63A5.3,5.3,0,0,1,61.2,74.6a8,8,0,0,1,4.45,1.63,2.23,2.23,0,0,1,.8,1l7.27,18.89s4.13,11.59,7.75,20.84c.48,1.22,1,2.41,1.4,3.51.28.7.55,1.36.81,2,.54,1.28,1,2.41,1.47,3.32.72,1.54,1.26,2.46,1.51,2.46a4.52,4.52,0,0,0,.51,0c3.66,0,2.12-3.54,1.79-4.22a2.47,2.47,0,0,1-.1-.24l-1.08-3-.37-1-1.49-4.16-.6-1.68-9-25.11a2.4,2.4,0,0,0-.2-.43c-.79-1.31-5.13-9,.12-11.18a6.75,6.75,0,0,1,2.55-.55c4,0,5.76,4.3,5.76,4.3s7.15,19.26,11.32,31c.42,1.2.82,2.32,1.17,3.33.28.81.53,1.55.75,2.21a2.25,2.25,0,0,1,.08.24l.14.39c.16.48.3.91.41,1.27a2.35,2.35,0,0,0,.7,1.06,1.84,1.84,0,0,0,.43.3,4.06,4.06,0,0,0,1.77.51c1.48,0,1.86-1.47,1.95-2.34a2.11,2.11,0,0,0,0-.71,2,2,0,0,0-.09-.33c-.1-.26-.23-.63-.4-1.09-.49-1.34-1.26-3.47-2.17-6l-.69-1.92s0,0,0,0L99,105l-.26.59c-2-5.5-4.06-11.58-5.37-15.66a2.2,2.2,0,0,1-.07-1.08c.7-4,2.45-5.12,4.27-5.12a9.25,9.25,0,0,1,4.9,2,2.33,2.33,0,0,1,.78,1L106.32,95l1.38,3.69.78,2.08,1.38,3.69,4.38,11.69,1.39,3.73.95,2.53,1.06,2.83,7.19,19.22.06.16C125.26,145.91,130,162.71,128.91,171Z"/><path class="cls-2" d="M99.93,108.9l.54,2.33.15-.41Zm0,0v0h0S99.92,108.88,99.92,108.87Zm28.81,34.62c0-.17-.09-.31-.15-.47l-8.48-22.66L118.82,117l-1.1-3-1.4-3.72L112,98.63,110.59,95l-.78-2.08-1.38-3.67L107,85.39a6.27,6.27,0,0,0-2.14-2.85,12.73,12.73,0,0,0-7.29-2.81c-1.68,0-5.33.57-7.28,5.16-1.09-3-1.84-5-2-5.31l0-.08,0-.07c-1-2.51-4.22-6.76-9.45-6.76a10.77,10.77,0,0,0-4.08.85,7.91,7.91,0,0,0-4.07,3.61l-.5-1.3A6.27,6.27,0,0,0,68,73a12,12,0,0,0-6.8-2.39,9.3,9.3,0,0,0-6.39,2.56,6.3,6.3,0,0,0-2.08,4.46c-.07,2.42,1,6.69,2.46,11.17a9.68,9.68,0,0,0-3.55-.67,11.4,11.4,0,0,0-5.09,1.27l-.17.09-.16.1c-4.45,2.78-3.59,10.21-2.09,16a5.55,5.55,0,0,0,.22.69l15.52,39.88,1.78,4.62a97.39,97.39,0,0,1-9.41-5.32,6.39,6.39,0,0,0-3.38-1c-3.34,0-6.1,1.15-7.76,3.24-1.12,1.39-2.26,3.86-1.39,7.71a6.19,6.19,0,0,0,1.83,3.15c6.55,6.16,28.91,25.34,30.46,26.67.8.74,8.24,7.45,15,9.82a6,6,0,0,0,1.33.32,47.45,47.45,0,0,0,5.77.32,53,53,0,0,0,14.54-2c1-.29,2-.62,3-1A35.55,35.55,0,0,0,128.59,180s0,0,0,0a33.32,33.32,0,0,0,2.27-3.63,34.73,34.73,0,0,0,1.53-3.12,6.66,6.66,0,0,0,.48-1.73C134,162.69,129.63,146.62,128.73,143.49ZM94.06,191.67l-1.61,0c-1.84-.06-3.13-.21-3.66-.27a2.27,2.27,0,0,1-.5-.12c-6.26-2.21-13.63-9-13.63-9s-23.73-20.34-30.39-26.59a2.3,2.3,0,0,1-.66-1.12c-1.25-5.52,3.39-6.07,5.25-6.07a2.27,2.27,0,0,1,1.24.36c2.08,1.31,10,6.18,13.81,7a6.69,6.69,0,0,0,1.46.18c2.65,0,1.66-2.5,1.66-2.5l-3.44-8.87L48.08,104.78a1.81,1.81,0,0,1-.08-.25c-.3-1.15-2.46-9.81.34-11.56a7.4,7.4,0,0,1,3.3-.85,6.41,6.41,0,0,1,4.79,2.34,2.53,2.53,0,0,1,.42.73c1.19,3.38,10.83,30.64,14.44,37.15a2.42,2.42,0,0,0,2.06,1.2,2,2,0,0,0,1-.24c1.79-1,.58-3.29.24-3.88a3.57,3.57,0,0,1-.16-.34l-9.61-25.92s-8.22-19.94-8-25.42a2.33,2.33,0,0,1,.79-1.63A5.3,5.3,0,0,1,61.2,74.6a8,8,0,0,1,4.45,1.63,2.23,2.23,0,0,1,.8,1l7.27,18.89s4.13,11.59,7.75,20.84c.48,1.22,1,2.41,1.4,3.51.28.7.55,1.36.81,2,.54,1.28,1,2.41,1.47,3.32.72,1.54,1.26,2.46,1.51,2.46a4.52,4.52,0,0,0,.51,0c3.66,0,2.12-3.54,1.79-4.22a2.47,2.47,0,0,1-.1-.24l-1.08-3-.37-1-1.49-4.16-.6-1.68-9-25.11a2.4,2.4,0,0,0-.2-.43c-.79-1.31-5.13-9,.12-11.18a6.75,6.75,0,0,1,2.55-.55c4,0,5.76,4.3,5.76,4.3s7.15,19.26,11.32,31c.42,1.2.82,2.32,1.17,3.33.28.81.53,1.55.75,2.21a2.25,2.25,0,0,1,.08.24l.14.39c.16.48.3.91.41,1.27a2.35,2.35,0,0,0,.7,1.06,1.84,1.84,0,0,0,.43.3,4.06,4.06,0,0,0,1.77.51c1.48,0,1.86-1.47,1.95-2.34a2.11,2.11,0,0,0,0-.71,2,2,0,0,0-.09-.33c-.1-.26-.23-.63-.4-1.09-.49-1.34-1.26-3.47-2.17-6l-.69-1.92s0,0,0,0c-.38-1.05-.77-2.15-1.17-3.28-2-5.5-4.06-11.58-5.37-15.66a2.2,2.2,0,0,1-.07-1.08c.7-4,2.45-5.12,4.27-5.12a9.25,9.25,0,0,1,4.9,2,2.33,2.33,0,0,1,.78,1L106.32,95l1.38,3.69.78,2.08,1.38,3.69,4.38,11.69,1.39,3.73.95,2.53,1.06,2.83,7.19,19.22.06.16c.37,1.32,5.12,18.12,4,26.42a2.48,2.48,0,0,1-.18.66,31,31,0,0,1-17.72,17c-1,.38-1.9.71-2.85,1a46.86,46.86,0,0,1-9.4,1.8C97,191.61,95.45,191.67,94.06,191.67Zm5.86-82.8v0h0S99.92,108.88,99.92,108.87Zm0,0,.54,2.33.15-.41Zm0,0v0h0S99.92,108.88,99.92,108.87Zm0,0,.54,2.33.15-.41Zm0,0,.54,2.33.15-.41Zm0,0v0h0S99.92,108.88,99.92,108.87Z"/><path class="cls-1" d="M128.91,171a2.48,2.48,0,0,1-.18.66,31,31,0,0,1-17.72,17c-1,.38-1.9.71-2.85,1a46.86,46.86,0,0,1-9.4,1.8c-1.72.15-3.31.21-4.7.21l-1.61,0c-1.84-.06-3.13-.21-3.66-.27a2.27,2.27,0,0,1-.5-.12c-6.26-2.21-13.63-9-13.63-9s-23.73-20.34-30.39-26.59a2.3,2.3,0,0,1-.66-1.12c-1.25-5.52,3.39-6.07,5.25-6.07a2.27,2.27,0,0,1,1.24.36c2.08,1.31,10,6.18,13.81,7a6.69,6.69,0,0,0,1.46.18c2.65,0,1.66-2.5,1.66-2.5l-3.44-8.87L48.08,104.78a1.81,1.81,0,0,1-.08-.25c-.3-1.15-2.46-9.81.34-11.56a7.4,7.4,0,0,1,3.3-.85,6.41,6.41,0,0,1,4.79,2.34,2.53,2.53,0,0,1,.42.73c1.19,3.38,10.83,30.64,14.44,37.15a2.42,2.42,0,0,0,2.06,1.2,2,2,0,0,0,1-.24c1.79-1,.58-3.29.24-3.88a3.57,3.57,0,0,1-.16-.34l-9.61-25.92s-8.22-19.94-8-25.42a2.33,2.33,0,0,1,.79-1.63A5.3,5.3,0,0,1,61.2,74.6a8,8,0,0,1,4.45,1.63,2.23,2.23,0,0,1,.8,1l7.27,18.89s4.13,11.59,7.75,20.84c.48,1.22,1,2.41,1.4,3.51.28.7.55,1.36.81,2,.54,1.28,1,2.41,1.47,3.32.72,1.54,1.26,2.46,1.51,2.46a4.52,4.52,0,0,0,.51,0c3.66,0,2.12-3.54,1.79-4.22a2.47,2.47,0,0,1-.1-.24l-1.08-3-.37-1-1.49-4.16-.6-1.68-9-25.11a2.4,2.4,0,0,0-.2-.43c-.79-1.31-5.13-9,.12-11.18a6.75,6.75,0,0,1,2.55-.55c4,0,5.76,4.3,5.76,4.3s7.15,19.26,11.32,31c.42,1.2.82,2.32,1.17,3.33.28.81.53,1.55.75,2.21a2.25,2.25,0,0,1,.08.24l.14.39c.16.48.3.91.41,1.27a2.35,2.35,0,0,0,.7,1.06,1.84,1.84,0,0,0,.43.3,4.06,4.06,0,0,0,1.77.51c1.48,0,1.86-1.47,1.95-2.34a2.11,2.11,0,0,0,0-.71,2,2,0,0,0-.09-.33c-.1-.26-.23-.63-.4-1.09-.49-1.34-1.26-3.47-2.17-6l-.69-1.92s0,0,0,0L99,105l-.26.59c-2-5.5-4.06-11.58-5.37-15.66a2.2,2.2,0,0,1-.07-1.08c.7-4,2.45-5.12,4.27-5.12a9.25,9.25,0,0,1,4.9,2,2.33,2.33,0,0,1,.78,1L106.32,95l1.38,3.69.78,2.08,1.38,3.69,4.38,11.69,1.39,3.73.95,2.53,1.06,2.83,7.19,19.22.06.16C125.26,145.91,130,162.71,128.91,171Z"/><rect class="cls-1" x="101.69" width="3.33" height="30"/><rect class="cls-1" x="156.88" y="10.07" width="3.33" height="30" transform="translate(25.66 -64.97) rotate(25.13)"/><rect class="cls-1" x="156.88" y="10.07" width="3.33" height="30" transform="translate(25.66 -64.97) rotate(25.13)"/><rect class="cls-1" x="206.4" y="47.1" width="3.33" height="30" transform="translate(132.02 -141.29) rotate(52.88)"/><rect class="cls-1" x="49.32" y="13.37" width="3.33" height="30" transform="translate(-7.15 23.4) rotate(-24.2)"/><rect class="cls-1" x="10.31" y="43.21" width="3.33" height="30" transform="translate(-38.31 26.53) rotate(-46.16)"/></g></g></svg>