<svg xmlns="http://www.w3.org/2000/svg" viewBox="195.465 45.535 77.235 77.277">
  <defs>
    <style>
      .cls-1 {
        fill: #fff;
      }
    </style>
  </defs>
  <g id="Group_1" data-name="Group 1" transform="translate(195.465 45.513)">
    <path id="Path_3" data-name="Path 3" class="cls-1" d="M42.56,179.858c.669-.632,1.264-1.208,1.877-1.784a4.522,4.522,0,0,0,.483-.539.645.645,0,0,0,.019-.818.637.637,0,0,0-.78-.3,3.333,3.333,0,0,0-.818.5c-1.115.929-2.211,1.877-3.363,2.787l.836-1.282a.784.784,0,0,0-.186-1.115.59.59,0,0,0-.743-.074,3.009,3.009,0,0,0-.613.576c-.706.929-1.338,1.9-2.081,2.787a3.947,3.947,0,0,1-2.843,1.6c-.892.056-1.8.111-2.694.111a5.687,5.687,0,0,1-2.4-.52,3.522,3.522,0,0,1-1.728-1.6,9.742,9.742,0,0,1-1.264-4.664,7.907,7.907,0,0,1,3.586-6.763,12.774,12.774,0,0,1,4.422-1.8,23.156,23.156,0,0,1,4.515-.613,25.591,25.591,0,0,1,8.714,1.245c3.289,1.059,6.559,2.174,9.829,3.27a87.6,87.6,0,0,0,10.182,2.75,37.864,37.864,0,0,0,5.388.706,27.333,27.333,0,0,0,4.775-.074,26.6,26.6,0,0,0,11.65-3.939,17.576,17.576,0,0,0,7.265-9.848,5.357,5.357,0,0,1,.483-1.059l.223,1.115c.3,1.579.595,3.177.873,4.757a3.475,3.475,0,0,1,.056.632c0,1.617.037,3.215-.019,4.831a14.944,14.944,0,0,1-.3,2.007c-.279,1.524-.52,3.047-.855,4.571a36.546,36.546,0,0,1-5.2,12.263,38.279,38.279,0,0,1-14.4,13.155,34.808,34.808,0,0,1-10.74,3.642c-1.431.223-2.88.372-4.329.52a28.585,28.585,0,0,1-3.084.167,38.887,38.887,0,0,1-18.507-4.794,37,37,0,0,1-10.5-8.789,44.051,44.051,0,0,1-4.013-5.611,8.807,8.807,0,0,1-.483-.929.14.14,0,0,1,.019-.074c.372.186.743.39,1.133.576a11.829,11.829,0,0,0,5.63,1.245,12.2,12.2,0,0,0,5.723-1.747,8.344,8.344,0,0,0,1.171-.743,9.041,9.041,0,0,1,2.861-1.449c.818-.26,1.654-.409,2.471-.632a6.643,6.643,0,0,0,1.022-.353.721.721,0,0,0,.446-.836.765.765,0,0,0-.762-.557c-.446.037-.873.13-1.356.186.557-.223,1.1-.409,1.617-.632a10.3,10.3,0,0,0,1.115-.539c.446-.26.52-.539.334-.929a.772.772,0,0,0-1-.39c-.576.2-1.133.446-1.691.65a5.544,5.544,0,0,1-.985.316,1.7,1.7,0,0,1,.242-.149c.873-.539,1.747-1.078,2.6-1.635a.741.741,0,0,0,.074-1.282.634.634,0,0,0-.687-.149,3.9,3.9,0,0,0-.483.242c-.873.557-1.765,1.133-2.639,1.691C42.672,179.8,42.653,179.821,42.56,179.858Z" transform="translate(-21.006 -129.764)"/>
    <path id="Path_4" data-name="Path 4" class="cls-1" d="M.427,41.788A1.282,1.282,0,0,1,0,40.878c.019-1.524-.019-3.047.019-4.571a14.466,14.466,0,0,1,.3-2.193c.39-1.97.725-3.958,1.264-5.909A38.168,38.168,0,0,1,23.208,3.214a38.087,38.087,0,0,1,8.77-2.6A41.492,41.492,0,0,1,40.692.055a35.91,35.91,0,0,1,14.14,3.456A40.575,40.575,0,0,1,65.5,10.981c.483.465.892.966,1.356,1.468a.44.44,0,0,1,.093.167.753.753,0,0,1-.186-.056,9.624,9.624,0,0,0-3.679-.873,13.529,13.529,0,0,0-3.679.186,20.734,20.734,0,0,0-2.527.762,31.674,31.674,0,0,0-4.664,1.858,11.09,11.09,0,0,1-2.285.669c-.985.279-1.988.539-2.973.836a2.665,2.665,0,0,0-.632.26.772.772,0,0,0-.427.948.914.914,0,0,0,.966.743c.409-.037.8-.13,1.208-.2a3.765,3.765,0,0,1,.8-.111c-.056.037-.13.074-.186.111-1.542.818-3.084,1.635-4.608,2.471a2.6,2.6,0,0,0-.706.557.815.815,0,0,0-.019,1.059.715.715,0,0,0,.948.3c.836-.334,1.654-.706,2.471-1.059a10.506,10.506,0,0,1,1.059-.427c-.279.2-.576.409-.855.613-.8.576-1.617,1.133-2.416,1.728A1.081,1.081,0,0,0,44,23.8a1.044,1.044,0,0,0,.762,1.041.949.949,0,0,0,.65-.186c.483-.316.948-.669,1.412-1.022.669-.5,1.338-.985,2.062-1.449-.5.539-.985,1.078-1.486,1.617-.3.316-.595.613-.873.929a.97.97,0,0,0-.093,1.282.705.705,0,0,0,1.022.223,9.459,9.459,0,0,0,1.226-1.059c.52-.52,1-1.059,1.524-1.579-.223.334-.465.687-.669,1.041a1.153,1.153,0,0,0-.242.892.819.819,0,0,0,1.412.5A6.637,6.637,0,0,0,51.6,25.01c.316-.427.613-.892.892-1.356a4.747,4.747,0,0,1,1.171-1.264c.483-.353.929-.762,1.412-1.1A4.031,4.031,0,0,1,57.6,20.4a14.429,14.429,0,0,1,2.025.149A3.662,3.662,0,0,1,62.3,22.575a9.079,9.079,0,0,1,.706,6.894,8.076,8.076,0,0,1-1.672,2.824,17.035,17.035,0,0,1-5.444,4.515,15.239,15.239,0,0,1-5.166,1.542,21.59,21.59,0,0,1-6.187-.316,82.851,82.851,0,0,1-10.907-2.917,86.042,86.042,0,0,0-11.223-2.769,33.6,33.6,0,0,0-7.339-.632A18.066,18.066,0,0,0,7.1,33.705,13.625,13.625,0,0,0,.929,40.636c-.167.372-.3.762-.465,1.133C.446,41.77.446,41.77.427,41.788Z" transform="translate(0 0)"/>
  </g>
</svg>
