<svg xmlns="http://www.w3.org/2000/svg" viewBox="0 0 210.53 208.21"><defs><style>.cls-1{fill:#fff;}</style></defs><title>trofeu</title><g id="Camada_2" data-name="Camada 2"><g id="icones2"><path class="cls-1" d="M48.48,206.45c-.22-4.68-.49-9.59-.66-14.57l0-1,1,0c2.53-.09,5-.13,7.53-.24s5-.29,7.44-.57a73,73,0,0,0,14.42-3,33.4,33.4,0,0,0,12.42-6.64,21.33,21.33,0,0,0,4.28-5.21,12.07,12.07,0,0,0,1.65-6c0-.26,0-.52,0-.78l-.05-.9q-.06-1-.09-2c0-1.3-.07-2.57-.09-3.83s0-2.5-.08-3.72l0-.91,0-.45v-.06a.29.29,0,0,0,0,0v.18s0,0,0,0,0,0,.05.08a1.62,1.62,0,0,0,.57.41l.18.08h0l-.12,0-.24-.08-.48-.16c-.32-.11-.65-.22-1-.34-.64-.24-1.27-.49-1.89-.76a40,40,0,0,1-3.65-1.8,52.56,52.56,0,0,1-6.69-4.43c-1-.81-2.07-1.64-3.06-2.5-.5-.42-1-.86-1.47-1.29l-.72-.66-.34-.31-.2-.17a5.64,5.64,0,0,0-1-.61,5,5,0,0,0-.53-.22l-.25-.08-.32-.09-3.74-1.05a106.8,106.8,0,0,1-14.58-5.53,98.6,98.6,0,0,1-13.67-7.72,92.69,92.69,0,0,1-12.23-9.95,95,95,0,0,1-10.4-11.86A98.66,98.66,0,0,1,12.07,94.4a97,97,0,0,1-9.72-30C1.55,59.14,1.19,54,.92,48.9L.24,33.84,0,28.62H5.2l18.16,0h9.08l9.08,0-5,5,0-14.36L36.7,4.86l0-4.86,4.79,0,129.34,1,3.82,0,0,3.77-.17,28.55-3.63-3.63,36,.21,3.27,0,.14,3.24A151.37,151.37,0,0,1,208.86,64a98.5,98.5,0,0,1-3.65,15.15,115.41,115.41,0,0,1-6,14.36c-1.22,2.29-2.38,4.61-3.78,6.8s-2.81,4.37-4.27,6.51c-.76,1.05-1.58,2.06-2.37,3.1l-1.2,1.54L186.35,113c-.87,1-1.69,2-2.59,2.91L181,118.64a93.22,93.22,0,0,1-25.54,17.49l-1.75.83c-.58.28-1.19.5-1.78.76l-3.57,1.47c-1.2.45-2.42.87-3.63,1.3l-1.82.64-1.75.59a35,35,0,0,0-6.44,2.85,20.5,20.5,0,0,0-2.76,1.95c-.43.36-.84.74-1.24,1.14s-1,.95-1.45,1.39a34.12,34.12,0,0,1-6.62,4.66,36.73,36.73,0,0,1-3.64,1.72c-.62.25-1.24.49-1.87.71l-.95.32-.48.15-.23.08c-.09,0,0,0,.15-.18s.13-.34.12-.23a1.73,1.73,0,0,0,0,.22v1.42l-.05,3.8c0,2.51-.09,5,0,7.44,0,.32,0,.58,0,.85s.05.54.09.81a11.65,11.65,0,0,0,.32,1.58,13.21,13.21,0,0,0,1.24,3,19.54,19.54,0,0,0,4.42,5.17,33.48,33.48,0,0,0,12.53,6.61,72.16,72.16,0,0,0,14.52,2.29c2.49.2,5,.35,7.51.52,1.25.07,2.56.21,3.69.24s2.45,0,3.75,0h1.65v1.62l-.12,14.23v1.53l-1.5,0Zm.68-.68,114.66-1.18-1.51,1.51-.12-14.23,1.63,1.63c-1.22,0-2.48.07-3.8.06s-2.58-.13-3.84-.18c-2.5-.13-5-.24-7.56-.4s-5.08-.36-7.63-.69a55,55,0,0,1-7.66-1.49,37.39,37.39,0,0,1-14.09-7.16,23.58,23.58,0,0,1-5.42-6.18,17.39,17.39,0,0,1-1.69-3.93,15.88,15.88,0,0,1-.47-2.1c-.05-.36-.11-.71-.13-1.07s-.06-.72-.07-1c-.13-2.59-.13-5.14-.13-7.66v-5.16a6.3,6.3,0,0,1,0-.72,3.94,3.94,0,0,1,.73-2,4,4,0,0,1,1.66-1.28c.23-.1.51-.2.66-.25l.42-.14.84-.3c.56-.2,1.1-.42,1.65-.66a32.1,32.1,0,0,0,3.16-1.56,29.4,29.4,0,0,0,5.63-4.11c.44-.4.81-.79,1.26-1.24s1-1,1.52-1.44a25.38,25.38,0,0,1,3.37-2.46A39.75,39.75,0,0,1,139.5,137l1.82-.64,1.73-.64c1.15-.43,2.31-.85,3.46-1.29l3.39-1.46c.56-.25,1.14-.47,1.68-.74l1.65-.81a87.79,87.79,0,0,0,23.83-16.8l2.53-2.63c.84-.88,1.59-1.84,2.39-2.76l1.18-1.39,1.1-1.46c.72-1,1.48-1.93,2.18-2.93,1.34-2,2.74-4,3.92-6.17s2.34-4.28,3.46-6.44c.55-1.09,1-2.23,1.52-3.33s1-2.22,1.42-3.38l1.32-3.43c.42-1.15.8-2.29,1.17-3.45A94.55,94.55,0,0,0,202.46,63a144.86,144.86,0,0,0,1-29.46l3.41,3.26-36,.21-3.61,0,0-3.65-.17-28.55,3.8,3.8-129.34,1,4.83-4.83.09,14.36,0,14.36,0,4.95-5,0-9.08,0H23.37l-18.16,0,5-5.22c.25,5.1.34,10.14.55,15.09s.51,9.85,1.17,14.56a93.05,93.05,0,0,0,3,14A88.1,88.1,0,0,0,20.17,90.3a91.71,91.71,0,0,0,16.6,23.33A84.45,84.45,0,0,0,47.66,123,90.81,90.81,0,0,0,60,130.48a109.64,109.64,0,0,0,13.43,5.6L77,137.2l.59.19.63.24a12,12,0,0,1,1.19.56,12.42,12.42,0,0,1,2.15,1.48l.5.46.34.34.65.64c.44.42.87.84,1.32,1.25.88.83,1.78,1.61,2.69,2.38a46.21,46.21,0,0,0,5.72,4.11,33.78,33.78,0,0,0,3.06,1.65c.52.25,1,.49,1.58.71.26.12.53.22.8.32l.4.15.2.08.1,0,.15.06.29.12a4.09,4.09,0,0,1,1.3,1,5.29,5.29,0,0,1,.6.84,6.12,6.12,0,0,1,.68,1.69,5.23,5.23,0,0,1,.1.55c0,.09,0,.22,0,.33v1.69c0,1.29-.06,2.57-.09,3.82s-.08,2.49-.09,3.71q0,.92,0,1.82v1c0,.37,0,.74,0,1.11a17.09,17.09,0,0,1-.82,4.36,18.24,18.24,0,0,1-1.87,3.94A26,26,0,0,1,93.61,184a30.45,30.45,0,0,1-6.9,4.22,46.48,46.48,0,0,1-7.44,2.57A73.8,73.8,0,0,1,64,193c-2.55.12-5.1.14-7.63.1s-5.07-.16-7.56-.23l1-1C49.65,196.38,49.38,201,49.16,205.77Z"/><path class="cls-1" d="M150.08,119.52a4.75,4.75,0,0,0,.95-1,4.78,4.78,0,0,1,.31-.4,2.57,2.57,0,0,1,.39-.36c.72-.58,1.46-1.11,2.16-1.69,1.41-1.16,2.8-2.31,4.14-3.51a89.08,89.08,0,0,0,7.52-7.55A86.26,86.26,0,0,0,177.31,87.8a102,102,0,0,0,4.28-9.4c1.26-3.2,2.36-6.47,3.33-9.8a98.61,98.61,0,0,0,3.72-20.71l4,4.12-22.27-.64,3.28-2.68L169.41,67c-1.42,6.11-2.9,12.22-4.56,18.29a136.89,136.89,0,0,1-6.21,17.95c-1.24,2.91-2.55,5.77-4,8.58q-1.07,2.11-2.19,4.18L151.33,118a3.5,3.5,0,0,1-.53.7A9.86,9.86,0,0,0,150.08,119.52Zm-.69.67c.11-.39.21-.82.35-1.3a10,10,0,0,1,.54-1.39l.94-2.14q.92-2.15,1.78-4.32c1.14-2.9,2.21-5.81,3.18-8.76a145.39,145.39,0,0,0,4.66-17.95C162,78.22,163,72.07,164,65.91s1.94-12.36,3-18.54l.46-2.6,2.82-.08L192.62,44l4-.11,0,4.24A106.39,106.39,0,0,1,194.33,71a68.28,68.28,0,0,1-3.49,11.13,66.77,66.77,0,0,1-5.4,10.37A68.72,68.72,0,0,1,170,109.79a63.14,63.14,0,0,1-9.62,6.25,55.6,55.6,0,0,1-5.15,2.4c-.87.36-1.76.68-2.64,1-.19.06-.54.2-.83.29a8.55,8.55,0,0,1-.91.23C150.29,120.07,149.79,120.1,149.39,120.19Z"/><path class="cls-1" d="M42.34,48.43l-6,.83-5.65.82c-1.83.26-3.61.51-5.35.73s-3.45.41-5.14.59l3.33-3.15a73.7,73.7,0,0,0,4.07,20.26,141.42,141.42,0,0,0,8.31,19.17A81.75,81.75,0,0,0,47.59,105a51.35,51.35,0,0,0,7.61,6.91,33.32,33.32,0,0,0,8.72,4.69L60,121.36a139.24,139.24,0,0,1-7.36-17.66,168.23,168.23,0,0,1-5.12-18.3C46.17,79.24,45.09,73,44.23,66.82l-.61-4.67-.54-4.67-.47-4.67C42.48,51.41,42.43,50,42.34,48.43Zm.63-.72c.34,1.56.71,3.21,1,4.9l.9,4.6.94,4.58,1,4.56c1.38,6.07,2.91,12.09,4.71,18a184.6,184.6,0,0,0,6.24,17.4,150.19,150.19,0,0,0,8.14,16.44l4,7L62,123a40.16,40.16,0,0,1-10.95-5.08,61.82,61.82,0,0,1-9.16-7.37A91.06,91.06,0,0,1,27.45,92.47,76.64,76.64,0,0,1,18.5,71.16a62.13,62.13,0,0,1-1.66-23.27l.45-3.4,2.87.25c2.06.18,4.1.36,6.1.59s4,.47,5.9.73,3.79.53,5.59.82S41.31,47.43,43,47.71Z"/><path class="cls-1" d="M165.93,208.21H46.72V189.78h5.15c8.06.09,17.57-.2,26.94-3.05,6.18-1.88,10.59-4.41,13.88-8s4.58-6.8,4.39-10.58C97,166,97,163.82,97,161.71c0-1.65,0-3.35,0-5a1.12,1.12,0,0,0-.08-.21c-8-2.79-14.18-8.05-18.66-12.35a6.68,6.68,0,0,0-2.68-1.54c-23.8-6.7-42.43-19.88-55.39-39.17A95.17,95.17,0,0,1,4.46,59.34c-.58-5.84-.8-11.81-1-17.59-.1-2.63-.2-5.35-.33-8L3,31.49H39.43V2.77H173V31.31h36l.09,2c0,.46,0,.91.07,1.34,0,.91.09,1.76.11,2.61.45,17.94-1.48,32.18-6.07,44.83-10.55,29-30.92,48.79-60.53,58.72-4.23,1.42-8.65,3.11-12.17,6.73a35,35,0,0,1-14.8,8.92s0,0,0,.06c0,1.69,0,3.41,0,5.06,0,2.61,0,5.3.07,7.91.19,4,2.18,7.61,6.09,10.94,4.93,4.2,11.22,6.79,19.22,7.92,4.31.61,8.8.87,13.13,1.12,1.61.09,3.23.19,4.84.3,1,.07,2.07.05,3.18,0l1.67,0h2.1Zm-115-4.2h110.8V194c-1,0-2,0-3,0-1.6-.11-3.19-.2-4.79-.29-4.42-.25-9-.52-13.48-1.15-8.81-1.24-15.8-4.15-21.35-8.88-4.85-4.12-7.32-8.68-7.57-13.94-.13-2.73-.1-5.48-.08-8.14,0-1.63,0-3.32,0-5a3.84,3.84,0,0,1,2.92-4.11,30.88,30.88,0,0,0,13.06-7.84c4.17-4.3,9.13-6.21,13.85-7.79,28.34-9.51,47.83-28.41,57.92-56.18,4.41-12.14,6.26-25.89,5.82-43.29,0-.61,0-1.22-.08-1.86H168.77V7H43.63V35.69H7.4c.09,2,.16,4,.23,5.9.22,6,.43,11.63,1,17.33a91,91,0,0,0,15,42.18c12.39,18.44,30.23,31,53,37.47a10.91,10.91,0,0,1,4.45,2.55c4.23,4.06,10,9,17.46,11.53,1.62.55,2.53,2.62,2.57,3.9.05,1.74,0,3.5,0,5.2,0,2.05,0,4.17.07,6.23.24,4.92-1.56,9.38-5.51,13.64s-8.82,7-15.74,9.13c-9.92,3-19.83,3.33-28.21,3.24h-.91Zm94-79.42,3-5.71a146.07,146.07,0,0,0,12.9-34.44c1.94-8.39,3.63-17.05,5.27-25.43.74-3.79,1.48-7.59,2.25-11.4l.34-1.68h26.16l-.07,2.17c-.63,18.25-5.13,33.55-13.76,46.77a75.9,75.9,0,0,1-30.29,26.87Zm27.17-74.47q-1,4.86-1.91,9.69c-1.64,8.41-3.34,17.11-5.3,25.57a147.83,147.83,0,0,1-10.28,29.4,71.56,71.56,0,0,0,22.85-22.22c7.86-12,12.11-25.94,13-42.45ZM67.22,123.23l-4.84-1.44C39.25,114.9,16.48,76.94,18.07,48l.11-2H44.49l.24,1.82c3.11,23.24,7.69,47.93,20.09,71Zm-45-73.06C21.88,74.63,39.64,106,58.54,115.71,48,94.17,43.75,71.59,40.82,50.17Z"/></g></g></svg>