<svg xmlns="http://www.w3.org/2000/svg" viewBox="0 0 84.37 89.54"><defs><style>.cls-1{fill:#ffffff;}.cls-2{fill:#fff;}</style></defs><title>user</title><g id="Camada_2" data-name="Camada 2"><g id="ícones"><g id="icone_adicionar_pessoa" data-name="icone adicionar pessoa"><path class="cls-1" d="M43.81,0c-.54,0-1.09,0-1.62.06S41.11,0,40.56,0a27.45,27.45,0,1,0,0,54.89c.55,0,1.09,0,1.63-.06s1.08.06,1.62.06A27.45,27.45,0,1,0,43.81,0Zm10,49.73a24.2,24.2,0,0,1-10,2.16q-.81,0-1.62-.06a24.44,24.44,0,0,1,0-48.77Q43,3,43.81,3a24.2,24.2,0,0,1,10.1,2.19A24.53,24.53,0,0,1,66.08,17.36a24.41,24.41,0,0,1,0,20.1A24.53,24.53,0,0,1,53.84,49.73Z"/><path d="M3.81,77.72a8.75,8.75,0,0,0-.13,5.8,5.67,5.67,0,0,1-.31-4.75c.31-.84.65-1.67,1-2.48C4.18,76.76,4,77.24,3.81,77.72Z"/><path class="cls-1" d="M83.81,77.72a54.71,54.71,0,0,0-15-22.24,8.74,8.74,0,0,0-7.38-2,8.42,8.42,0,0,0-5.74.91,30.77,30.77,0,0,1-13.48,3.89A30.68,30.68,0,0,1,28.7,54.39,8.42,8.42,0,0,0,23,53.48a8.77,8.77,0,0,0-7.39,2,54.79,54.79,0,0,0-15,22.24A8.74,8.74,0,0,0,8.73,89.54H75.64a8.74,8.74,0,0,0,8.17-11.82ZM80.7,83.48c-.11.2-.23.4-.36.59A5.68,5.68,0,0,1,77,86.39a6,6,0,0,1-1.35.15H12a5.74,5.74,0,0,1-5.36-7.77,51.76,51.76,0,0,1,14.17-21,5.87,5.87,0,0,1,2.14-1.18,5.76,5.76,0,0,1,1.64-.24,5.33,5.33,0,0,1,2.66.69,33.8,33.8,0,0,0,15,4.28c.54,0,1.08,0,1.62,0A33.89,33.89,0,0,0,60.39,57a5,5,0,0,1,1-.45,5.48,5.48,0,0,1,3-.07,5.93,5.93,0,0,1,2.42,1.26,50.45,50.45,0,0,1,12.9,17.9l.27.64c.35.81.69,1.64,1,2.48A5.66,5.66,0,0,1,80.7,83.48Z"/></g><path class="cls-2" d="M66.11,37.46a27.33,27.33,0,0,0,0-20.1,24.41,24.41,0,0,1,0,20.1Z"/></g></g></svg>
