<svg xmlns="http://www.w3.org/2000/svg" viewBox="0 0 157.46 176.29"><defs><style>.cls-1{fill:#00d6c8;}</style></defs><title>voltar-icon</title><g id="Camada_2" data-name="Camada 2"><g id="ícones"><path class="cls-1" d="M114,173.31a8,8,0,0,1-11.19,1.22L12.18,101.75,3,94.35A8,8,0,0,1,3,81.94l9.2-7.39L102.76,1.76A8,8,0,0,1,114,3l3.3,4.11A8,8,0,0,1,116,18.29L36.83,81.94a8,8,0,0,0,0,12.42L116,158a8,8,0,0,1,1.22,11.2Z"/><path class="cls-1" d="M154.19,143.16a5.14,5.14,0,0,1-7.23.79l-58.51-47L82.5,92.16a5.14,5.14,0,0,1,0-8l5.94-4.77,58.52-47a5.14,5.14,0,0,1,7.23.79l2.13,2.66a5.14,5.14,0,0,1-.79,7.23L104.37,84.14a5.14,5.14,0,0,0,0,8l51.17,41.12a5.14,5.14,0,0,1,.79,7.23Z"/></g></g></svg>